<svg xmlns="http://www.w3.org/2000/svg" viewBox="0 0 1500 500"><defs><style>.cls-1{fill:#fff;}</style></defs><g id="Layer_2" data-name="Layer 2"><g id="Layer_1-2" data-name="Layer 1"><path class="cls-1" d="M1500,500H0V0H1500ZM125.28,184.5v.5a37.91,37.91,0,0,1-4,0c-1.74-.17-2.61.48-3.36,2.11a23.52,23.52,0,0,0-1.86,12c.38,4.57,2.56,6.88,7,7.34q12,1.24,24.08,2c3,.19,6.1-.42,9.15-.42q58.25,0,116.48,0H419.28c3.94,0,7.88-.2,11.8.06s7.9,1.18,10.36,4.72a55.71,55.71,0,0,1,3.55,6.71,8.41,8.41,0,0,0,7.53,5.06c2.1.11,5,0,6.08,1.23,1.93,2.12,4.22,2.05,6.45,2.7.24.07.54,0,.72.16,2.9,2.17,5.89,1.36,8.89.3,1.77-.63,3.51-1.31,5.27-2,6-2.23,11.7-5.24,15.06-10.88a154.6,154.6,0,0,0,8.28-16.84,8.84,8.84,0,0,0,.26-5.46,78.84,78.84,0,0,0-9.76-21.24c-1-1.64-2.16-3.6-3.76-4.42-3.07-1.59-6.43-3.13-9.8-3.5-7-.79-14.18-.82-21.27-1.11a2.31,2.31,0,0,0-1.75.6c-1.85,2.85-5,3.59-7.79,4.78-4.32,1.85-7.49,4.51-8.9,9.12s-4.68,7-9.6,7c-13.38-.14-26.77-.38-40.15-.48q-39.44-.3-78.89-.51c-26.3-.17-52.59-.44-78.89-.46-18.8,0-37.6.27-56.4.48-6.21.06-12.43.41-18.65.46C147,184.56,136.16,184.5,125.28,184.5ZM463.41,262v-.49a54.08,54.08,0,0,0,6.74-.05c4.83-.61,7-.23,6.89-6.81a24.69,24.69,0,0,1,.72-5.59c.56-2.6.08-5.18-2.3-6.18-3.85-1.63-8-3.7-12-3.71q-156.86-.3-313.7-.16c-4.3,0-4.21,0-5.84-4.07-1.4-3.48-2.88-6.78-6.23-9.16-6.22-4.42-13.29-6.41-20.47-8.23-1.8-.46-4-1.37-5.44-.78a126,126,0,0,0-14.53,6.88c-10.26,5.63-15,14.64-14.68,26.17a82,82,0,0,0,2.15,15c1,4.53,3.1,8.47,7.81,10.62a36.38,36.38,0,0,1,7.7,5.16A5.11,5.11,0,0,0,104,282c3.54-.13,7-.18,10.17,2.14.77.57,3.29.08,3.93-.76a3.48,3.48,0,0,1,3.35-1.4,36.07,36.07,0,0,1,3.75,0,6.63,6.63,0,0,0,7.19-3.5c1.1-1.82,2.75-3.43,5.49-3.14.87.1,2.21-1,2.77-1.86a14.33,14.33,0,0,0,1.36-4.13c.93-3.72,5.49-7.4,9.27-7.39q129.56.25,259.11.47C428.05,262.49,445.73,262.16,463.41,262ZM285.29,293q-73.23,0-146.46.07a52.83,52.83,0,0,0-13.15,1.58c-4.64,1.21-10.21,2.27-9.22,9.36,0,.08-.08.16-.07.23.15,2.12-.17,4.43.6,6.3s2.62,3.52,4.08,5.17c.25.29.91.26,1.39.28,3.55.18,7.1.42,10.65.49,10.38.21,20.76.52,31.15.49q63.93-.15,127.87-.47l108.62-.5c7.84,0,15.67,0,23.5,0a62.11,62.11,0,0,1,8.63.53c4.74.71,8.34,2.88,9.68,8a11.2,11.2,0,0,0,2.91,5.49,39.18,39.18,0,0,0,16.2,8.24c4.23,1.09,8.5,1.5,12.3-1.82a5.2,5.2,0,0,1,4.09-.58c4.72,1.26,8.47.3,12.11-3.16a41,41,0,0,0,10.64-16.48c2.45-7,3.39-14.19.69-21.41C499,288.16,494.39,283,489,278.59a15.64,15.64,0,0,0-6.87-3.45c-4-.68-8.09-.33-12.12-.68a35.42,35.42,0,0,0-15,2.26,22.65,22.65,0,0,0-4.43,1.92A43.79,43.79,0,0,0,438,290.88a4.67,4.67,0,0,1-4.49,2.15Q359.4,293,285.29,293Zm121.09,80.55c9.18,1.22,12.16-3.55,15.84-7.09a1.36,1.36,0,0,0,.26-.91c0-2.76.15-5.53,0-8.28-.19-3.28-1.85-5.7-5.2-6.29-5.54-1-11.13-2.37-16.7-2.37-58.46,0-116.92.23-175.38.39-6.33,0-12.67.13-19-.09a8.42,8.42,0,0,1-4.81-1.94,15.72,15.72,0,0,1-3.32-4.8c-1.77-3.46-3.42-6.77-8.09-7.05a4.78,4.78,0,0,1-3.28-2.42,5.45,5.45,0,0,0-4.29-3.21q-7.47-1.35-15-2.46c-1.71-.25-3.4-.2-4.78,1.35-.57.65-1.75.78-2.66,1.14-2.63,1-5.66,1.56-7.8,3.22a62.21,62.21,0,0,0-9.47,9.38A27.33,27.33,0,0,0,136,359.87a32.46,32.46,0,0,0,5.48,18c6.29,9.65,14.7,15.79,26.74,15.59,4.13-.06,8.26-.46,12.4-.43a9.85,9.85,0,0,0,7.86-3.38c3-3.39,5.69-7,8.47-10.54,3.17-4.05,6.8-7.18,12.41-6.63,3.35.33,6.7,1,10.05,1q82.68-.16,165.38-.43C393,373,401.17,373.42,406.38,373.55ZM310.9,154c33,0,66-.06,99,.06,5.38,0,8.28-4,12-6.58,1.18-.82.57-4.32.61-6.6a8.52,8.52,0,0,0-.53-3.37c-1.19-2.92-2-6.35-5.46-7.4a27.57,27.57,0,0,0-8-1.06c-41.21.1-82.43.32-123.65.44-23.33.07-46.67-.11-70,.13-4,0-6.9-1.08-9.08-4.18a25.21,25.21,0,0,1-2.77-5.17c-2.27-5.77-6.8-8.62-12.56-9.73A107.25,107.25,0,0,0,179,109c-4-.33-8.1-.35-12.15-.47a2.22,2.22,0,0,0-1.08.48,74.19,74.19,0,0,0-6.39,4.06c-3.31,2.55-6.58,5.19-9.62,8.05-1.66,1.57-2.9,3.7-2.22,6.21.77,2.86-.68,4.91-2.4,6.73-3.74,4-3.85,7.51-.85,12.6,1.5,2.54,3.43,5.36,3.51,8.11a12.3,12.3,0,0,0,4.78,10c1.28,1,2.62,2,3.93,2.93,6.11,4.52,12.72,7.28,20.56,6.31a55.65,55.65,0,0,1,7.75,0c1.38,0,2.53.07,2.94-1.8.16-.71,1.46-1.3,2.35-1.68,1.86-.79,4.23-.91,5.6-2.17a131,131,0,0,0,8.89-9.63c2.5-2.8,4.86-4.91,9.31-4.87C246.23,154.12,278.56,154,310.9,154ZM279.29,73.5c-15.66,0-31.32,0-47,0-1.89,0-3.66.1-4.93,1.58-2,2.35-4.23,4.64-5.66,7.33-.71,1.33-.2,3.61.34,5.27,1.5,4.6,3.57,8.87,9.13,9.69,1.31.2,2.64.15,4,.24,9.53.64,19.05,1.64,28.59,1.81,8.75.16,17.52-.6,26.29-.87,3.83-.12,7.66,0,11.49,0a12.73,12.73,0,0,0,1.75,0c6.58-1,13.2-1.82,19.83-.92,6,.8,11.42,2.57,14,9a13,13,0,0,0,4.6,5.83c8.76,5.69,18.26,7.87,28.76,5.64,10.11-2.15,17.69-7.29,22-16.79A33.69,33.69,0,0,0,395,80.87c-2.33-12.9-8.74-22.77-21.31-27.68a31.52,31.52,0,0,0-9.36-1.59c-2.06-.13-4.15.67-6.25.88-6.26.64-12.09,2.68-16.6,7-2.83,2.71-4.6,6.51-7,9.72-1.95,2.65-4.41,4.36-8,4.34C310.78,73.45,295,73.5,279.29,73.5Zm-12.58,330c-11.58,0-23.17,0-34.75,0-1.5,0-2.73.21-3.68,1.5-2.15,2.88-4.42,5.68-6.49,8.61a2.77,2.77,0,0,0,0,2.34c1.35,2.84,2.5,5.89,4.4,8.33,2.72,3.48,6.79,4.81,11.15,4.69,3.52-.11,7-.87,10.55-.9,15.75-.1,31.5-.07,47.25,0,3.46,0,6.94.52,10.4.43,5.1-.14,10.18-.73,15.28-.92,4.58-.16,8,2.88,9.28,7.38a9.52,9.52,0,0,0,2.8,4.58c3.55,2.87,7.38,5.4,11.14,8a4.9,4.9,0,0,0,5.34.43,5.69,5.69,0,0,1,2.64-.39c3.38.11,6.76.34,10.14.46a20,20,0,0,0,11.44-3.08c3.32-2.08,6.28-4.72,9.39-7.12s4.62-5.17,4.16-9.2c-.13-1.18,1.18-2.53,1.83-3.79.85-1.64,2.27-3.21,2.42-4.91a26.57,26.57,0,0,0-.64-8.33,58.73,58.73,0,0,0-8.83-19.49c-2.15-3.15-4.76-4.75-8.62-4.65-1.43,0-3.45-.34-4.23-1.31-2.33-2.9-5.17-3.5-8.57-3.14a24.32,24.32,0,0,1-4.75,0c-6-.54-11.62.13-16.52,4-2.19,1.71-4.69,3.15-6.45,5.23a52.39,52.39,0,0,0-5.22,8.26c-.94,1.66-2,2.93-4,3-3.3.19-6.6.5-9.9.47-5.3,0-10.6-.4-15.9-.44C287.38,403.45,277,403.5,266.71,403.5ZM961,207c-.15,1.85-.41,4.05-.47,6.26-.08,3.27.15,6.55-.11,9.79a5.94,5.94,0,0,1-1.88,3.74c-.43.36-2.17-.9-3.35-1.33-1.51-.54-3.07-1.42-4.58-1.38-5.61.14-11.2.59-16.8.94a5,5,0,0,0-.91.32c-7.08,1.95-13.94,11.36-14.28,19.27a103,103,0,0,0,1,17.27c.58,4.57,2.26,8.81,6.53,11.55,6.44,4.15,13.29,6.89,21,6a28,28,0,0,0,8.49-2.57c2.56-1.22,3.48-1.33,5.24.8.52.64,1.59,1.4,2.25,1.27a101.79,101.79,0,0,0,10.38-2.49c1.86-.56,2.54-2,2.52-4.18-.11-16.82-.06-33.65-.06-50.47,0-.75,0-1.5,0-2.25,0-3.68.12-7.37-.13-11-.14-2.05-3.48-4.23-5.58-4.53C966.8,203.45,963.93,204.76,961,207Zm68.62-3c-3.45.08-7-.51-10.48,1.33-1.44.76-2.22,1.13-2.16,2.83.23,6.55.43,13.1.51,19.65.08,6.91,0,13.83,0,20.74a8.22,8.22,0,0,0,.08,2c1.64,6.63,1.09,13.25-.07,19.85-.87,5,.32,7.06,5.09,8.05a16.29,16.29,0,0,0,2.39.47c2.71.12,5.62.52,7.74-1.56,1.38-1.34,2.51-1.27,4.11-.78a92.4,92.4,0,0,0,12,3.3c5.38.89,9.67-3,14.58-4.3,4.66-1.26,6.88-5.87,8.8-10.08,3.21-7,4.63-14.39,2.81-22.12a19.6,19.6,0,0,0-5.36-9.17c-4.17-4.34-7.47-9.64-14.52-10-5.79-.3-11.55-.71-16.88,2a3.5,3.5,0,0,1-4.53-.84,6.82,6.82,0,0,1-2.29-5.17C1031.48,214.8,1032.66,209.23,1029.61,204ZM824.68,225.49c-1,0-2.08.06-3.15,0-5.35-.32-10.7-.68-16-1a14,14,0,0,0-11.42,4.74q-4.87,5.24-9.3,10.87a7.64,7.64,0,0,0-1.21,4.14c-.16,3.67.45,7.45-.21,11a11.76,11.76,0,0,0,2.07,9.73c2.69,3.49,5.61,7.05,9.15,9.58,5.61,4,12,6.34,19.13,4,2-.66,4.11-1,6.17-1.48a12.45,12.45,0,0,1,9.28.89,10.21,10.21,0,0,0,4.71,1c2.87,0,6-2.4,6.14-4.26.19-3.88.38-7.76.5-11.65.2-6.38.44-12.76.49-19.15.08-10.76.12-21.52-.05-32.28,0-2.69-.43-5.81-3.81-6.68a26.53,26.53,0,0,0-6.76-.84c-2,0-4.78,2.48-4.83,3.94a31.6,31.6,0,0,0,.06,6.74A17.62,17.62,0,0,1,824.68,225.49Zm425.82,29.87c-1.6,6.79,1.23,10.61,4.78,14.2a36.3,36.3,0,0,0,20.2,10.78c3.69.6,7.79,1,10.92-2.36a3.31,3.31,0,0,1,2.89-.87c3.16,1.27,5-.46,6.84-2.48.68-.74,1.29-1.74,2.14-2.06,3-1.13,2.28-3.23,1.72-5.39-1.2-4.57-4.93-7.35-8.73-6.07-1.59.53-2.81,2.12-4.2,3.23-.47.38-.91,1-1.41,1.1a42.06,42.06,0,0,1-6.89.51,63.92,63.92,0,0,1-9.26-1.09,3.36,3.36,0,0,1-1.91-2.4c-.43-3,3.09-6,6.06-5.42a25.53,25.53,0,0,0,3.14.45c3.12.23,6.28.22,9.37.64,5.79.77,11.51.68,17-1.33a4.72,4.72,0,0,0,2.68-3.32,36.89,36.89,0,0,0-.84-8.75c-1.35-6.81-6.58-11.14-10.68-16.21-1.56-1.93-3-3.09-5.82-3.18-6.62-.21-13.07-2.5-19.85,0-4.36,1.63-8.6,2.8-11.35,7-1.78,2.73-4.08,5.12-6.09,7.7a3.15,3.15,0,0,0-.69,1.74C1250.48,246.76,1250.5,251.72,1250.5,255.36Zm-352.64,5c-3.62,1.37-7.32,2.83-11.06,4.18-4.72,1.69-9.15,2.91-14.15-.23-3.24-2-.34-3.93-1.12-5.68a9.28,9.28,0,0,1,2.91-1.07c9.33-.08,18.66-.05,28-.05a7,7,0,0,0,7-8.72c-.14-.63-.28-1.27-.39-1.91-1.19-6.94-4.23-12.75-10.11-16.9-9.78-6.9-20.54-7.33-31.28-3.62-8.4,2.91-15.15,11.54-15,21.13.1,5.32,1.83,10.58,2.5,15.91.89,7.08,5.53,10.59,11.64,12.66a95.09,95.09,0,0,0,11.51,3,23.12,23.12,0,0,0,17.9-3.23c2.91-1.94,5-5.06,7.68-7.84Zm308.36-3.65c3.91,1.18,4.87,4.49,5.75,7.74,1.2,4.45,2.39,8.78,6.89,11.25,1.71.93,3.7.81,4.71-1a9.63,9.63,0,0,0,1.36-3.62,5.34,5.34,0,0,1,3.13-4.58c1.45-.72,1.82-1.8,2.06-3.44.34-2.33-.59-5.09,1.57-6.95a7,7,0,0,0,2.32-5.69,11.34,11.34,0,0,1,2.88-8.09c3.22-3.44,5.36-7.38,5.11-12.3-.15-3.1-2.3-6.07-4.38-6-4.92.14-10.86,4.57-12.64,9.26-1.26,3.31-2.72,6.54-4.32,10.34-1.94-1.48-4-2.39-5-4a76.06,76.06,0,0,1-5.14-10.2c-1.06-2.4-2.68-3.29-5.1-2a7.88,7.88,0,0,0-2.86,2.61c-1.51,2.32-2.78,4.79-4.11,7.22-1,1.92-2,3.88-3.07,5.84-2.7-1-5.63-1.48-5.85-5-.24-3.68-1.82-6.81-3.61-10s-6.66-4.94-9.73-3.59a8,8,0,0,1-3.14.41c-2,0-2.58,1.17-2.39,2.86.88,7.82,4.71,14.44,8.47,21.15,2.62,4.65,5.45,9.28,6,14.89a17.56,17.56,0,0,0,5.73,11.07,2.92,2.92,0,0,0,2.66.48c4.67-2.46,6.52-6.84,7.54-11.71.23-1.08.31-2.35,1-3.12A38,38,0,0,1,1206.22,256.7ZM716.5,250.13c0,.58,0,1.16,0,1.75.24,4.81.16,9.79,3.1,13.9A35.07,35.07,0,0,0,737.25,279c6.75,2.24,13.46,3.09,19.42-2.26a4.26,4.26,0,0,1,2.9-1.12c4.11.47,6.11-2.19,8.13-5,3.68-5.09,5.38-10.87,6.36-17,1.63-10.14-1.18-18.47-10.15-23.85a37.48,37.48,0,0,0-29.43-4.56c-2.46.63-4.3,1.65-5.42,4a3.45,3.45,0,0,1-1.79,1.27c-1.24.53-3.16.51-3.73,1.4C720,237.46,715.07,242.6,716.5,250.13ZM1095.81,298a35.58,35.58,0,0,1,6.29.07c3.51.63,5.33-1.54,7.25-3.74.31-.36.49-.84.8-1.22,5.36-6.65,9.19-13.87,8.93-22.76a3.44,3.44,0,0,1,1.64-2.36,8.47,8.47,0,0,0,4.06-5.55c.65-2.77,1.09-5.6,1.74-8.37.78-3.31,1.25-6.8,4.26-9.11a8.14,8.14,0,0,0,3.2-7.84,7.66,7.66,0,0,1,2-5.87c1.8-2.28,1.25-5.05-1.5-5.9a19.87,19.87,0,0,0-6.78-.79c-6.24.32-8.7,2.15-9.61,6.85a27.84,27.84,0,0,0-.11,4c-.08,1.76-.31,3.57-2.31,4.19-2.45.75-2.21,2.56-2.18,4.48a12.75,12.75,0,0,1-.55,4.36,29.17,29.17,0,0,1-2.59,4.52,45,45,0,0,1-4.38-4.19c-3.76-4.69-5.14-10.44-7-16-2.56-7.51-.56-6.5-8.25-7.8-.31-.05-.6-.29-.92-.32-3.44-.3-6.91-.71-10.14,2.6,2.81,5.95,5.54,12.2,8.7,18.23,2.07,4,4,7.78,4.23,12.35.13,2.37.56,4.69,3.1,6.25A9.61,9.61,0,0,1,1100,271a22.94,22.94,0,0,1-3.84,16.46C1093.79,291.05,1093.59,294.23,1095.81,298Zm306.45-32.73c-2.45.26-4.67.45-6.87.74-4,.52-7.52-1.33-11.25-2.16-3.21-.71-6.78-2.38-9.06,1.47-.87,1.47-.77,3.53-1.07,5.33-.38,2.23.8,3.24,2.81,3.89,5.66,1.8,11.11,4,17.17,4.64,5.41.52,10.57.15,15.24-2.28,2.71-1.41,4.78-4.14,7-6.43a5,5,0,0,0,1.24-3c.15-3.83-.14-7.67.13-11.49a5.65,5.65,0,0,0-2.59-5.23A15.27,15.27,0,0,0,1412,249a53.88,53.88,0,0,0-19.43-4.53c-1.09-.07-2.39.39-2.63-1.44-.49-3.83,2.89-7,6.45-5.84,1.08.34,2.11.86,3.16,1.3,6.38,2.66,9.05,2.31,13.68-2a3.66,3.66,0,0,0,1-4,9.57,9.57,0,0,0-8.28-7.4c-5.1-.83-10.34-.71-15.5-1.14-4.09-.35-7.57,1.67-11.27,2.73-1.16.33-2.1,1.71-2.94,2.77-1.11,1.4-2,3-3,4.46-.3.47-.75,1-.77,1.46a24,24,0,0,0,2.89,13.23c2.86,4.91,7.86,6.66,12.85,8.37,4.15,1.42,8.26,3,12.42,4.36C1402.94,262.11,1403.63,263.27,1402.26,265.27ZM672,242c2.37-1.08,5-1.61,6.64-3.19,2.42-2.32,4.62-2,7.14-.84,1.62.72,3.2,1.55,4.78,2.37,2.16,1.12,4.25,2.39,6.46,3.39s9.29-2.48,9.88-4.65a6,6,0,0,0-.22-2.66c-1.3-6-5.85-8.73-11.15-10.37-7.31-2.27-14.75-1.83-22.19-.54-8.2,1.42-15.85,8.82-16.75,16.84A154.22,154.22,0,0,0,656,258c0,3.79.12,7.58,4.21,9.67.57.29.89,1.14,1.24,1.79,2.32,4.26,5.64,7,10.65,7.64,2.4.3,4.69,1.35,7.09,1.72,4.86.75,9.82,1.74,14.46-.84,3.54-2,6.89-4.32,10.44-6.3,2.27-1.26,2.82-3.21,2.87-5.49.09-3.81-1.29-5.19-5.09-5.19-2.33,0-4.68-.16-7,.07a5,5,0,0,0-2.9,1.61c-1.53,1.74-3,3.29-5.6,2.85a10.42,10.42,0,0,0-3.48,0c-4.33.77-7.53-.94-10-4.36a3.91,3.91,0,0,1-.91-1.89C672,253.46,672,247.64,672,242Zm690-1.08c0-10.83,0-21.66,0-32.49,0-1.77-.57-2.81-2.06-3.4a13.69,13.69,0,0,0-12.91.89,2.61,2.61,0,0,0-1.61,2.59c.07,7.52.21,15,0,22.54-.17,5.08-1.26,10.12-1.35,15.19a110.6,110.6,0,0,0,1,14.54c.64,5.52,1.68,11,2.41,16.49.19,1.46.86,2,2.1,1.71,3.41-.72,6.79-1.57,10.18-2.38,1.82-.44,2.33-1.57,2.31-3.44C1362,262.41,1362,251.66,1362,240.91Zm-30-12.34.89,0c-.46-7.33-1-14.67-1.34-22-.09-1.71-.79-2.2-2.31-2.05-3.59.35-7.19.6-10.76,1.12-.58.09-1.39,1.34-1.42,2.07-.27,7.29-.53,14.59-.52,21.88,0,8.63,0,17.27.54,25.88.44,7.26,1.58,14.48,2.44,21.71.13,1.15.6,1.94,2,1.87,2.42-.11,4.86-.13,7.27,0,2,.11,2.74-1.11,3.09-2.57a21,21,0,0,0,.55-5.12c-.06-3.71-.42-7.43-.45-11.14C1332,249.66,1332,239.11,1332,228.57Z"/><path d="M125.28,184.5c10.88,0,21.76.06,32.64,0,6.22,0,12.44-.4,18.65-.46,18.8-.21,37.6-.5,56.4-.48,26.3,0,52.59.29,78.89.46s52.6.31,78.89.51c13.38.1,26.77.34,40.15.48,4.92,0,8.16-2.26,9.6-7s4.58-7.27,8.9-9.12c2.76-1.19,5.94-1.93,7.79-4.78a2.31,2.31,0,0,1,1.75-.6c7.09.29,14.22.32,21.27,1.11,3.37.37,6.73,1.91,9.8,3.5,1.6.82,2.72,2.78,3.76,4.42a78.84,78.84,0,0,1,9.76,21.24,8.84,8.84,0,0,1-.26,5.46A154.6,154.6,0,0,1,495,216.1c-3.36,5.64-9,8.65-15.06,10.88-1.76.65-3.5,1.33-5.27,2-3,1.06-6,1.87-8.89-.3-.18-.14-.48-.09-.72-.16-2.23-.65-4.52-.58-6.45-2.7-1.13-1.24-4-1.12-6.08-1.23a8.41,8.41,0,0,1-7.53-5.06,55.71,55.71,0,0,0-3.55-6.71c-2.46-3.54-6.39-4.46-10.36-4.72s-7.86-.06-11.8-.06H272.8q-58.24,0-116.48,0c-3,0-6.12.61-9.15.42q-12.06-.74-24.08-2c-4.47-.46-6.65-2.77-7-7.34a23.52,23.52,0,0,1,1.86-12c.75-1.63,1.62-2.28,3.36-2.11a37.91,37.91,0,0,0,4,0Zm366.89,12.05c-.22-1.37-.39-2.75-.68-4.1-2-9.16-10.4-17.29-19.16-18.37-3.95-.49-8-.1-12,0a1.93,1.93,0,0,0-1.21.69c-3.21,3.64-6.41,7.28-9.53,11a4.89,4.89,0,0,0-1,2.58,50,50,0,0,0,1.77,15.79c1,3.92,2.23,7.17,5.75,9.17,4.92,2.81,10.35,3.86,15.93,4.21a3.38,3.38,0,0,0,1.8-.54c3.07-1.85,6-4,9.17-5.58C489.22,208.3,491.88,203.27,492.17,196.55Z"/><path d="M463.41,262c-17.68.17-35.36.5-53,.48q-129.55-.15-259.11-.47c-3.78,0-8.34,3.67-9.27,7.39a14.33,14.33,0,0,1-1.36,4.13c-.56.89-1.9,2-2.77,1.86-2.74-.29-4.39,1.32-5.49,3.14a6.63,6.63,0,0,1-7.19,3.5,36.07,36.07,0,0,0-3.75,0,3.48,3.48,0,0,0-3.35,1.4c-.64.84-3.16,1.33-3.93.76-3.16-2.32-6.63-2.27-10.17-2.14a5.11,5.11,0,0,1-3.73-1.42,36.38,36.38,0,0,0-7.7-5.16c-4.71-2.15-6.8-6.09-7.81-10.62a82,82,0,0,1-2.15-15c-.36-11.53,4.42-20.54,14.68-26.17a126,126,0,0,1,14.53-6.88c1.48-.59,3.64.32,5.44.78,7.18,1.82,14.25,3.81,20.47,8.23,3.35,2.38,4.83,5.68,6.23,9.16,1.63,4,1.54,4.07,5.84,4.07q156.85,0,313.7.16c4,0,8.13,2.08,12,3.71,2.38,1,2.86,3.58,2.3,6.18a24.69,24.69,0,0,0-.72,5.59c.1,6.58-2.06,6.2-6.89,6.81a54.08,54.08,0,0,1-6.74.05ZM113,229.62l-.06.38a26.67,26.67,0,0,0-5,.07c-1.52.29-3.71.77-4.26,1.85a23.72,23.72,0,0,1-9.21,10.17,4.26,4.26,0,0,0-1.42,2.79c-.86,5.21,1.33,10,2.31,14.91a11.16,11.16,0,0,0,5,7.78c5.47,3.55,11.27,6.25,18,5.35,4.14-.56,8.15-1.15,10.92-5.57,3.09-4.93,6.67-9.52,7.51-15.39a12.54,12.54,0,0,0-.8-7.08c-1.65-3.23-4.2-6-6.41-8.93-1.7-2.27-3.69-4.31-6.56-4.88C119.64,230.4,116.3,230.09,113,229.62Z"/><path d="M285.29,293q74.11,0,148.22,0a4.67,4.67,0,0,0,4.49-2.15,43.79,43.79,0,0,1,12.65-12.24,22.65,22.65,0,0,1,4.43-1.92,35.42,35.42,0,0,1,15-2.26c4,.35,8.16,0,12.12.68a15.64,15.64,0,0,1,6.87,3.45c5.36,4.43,10,9.57,12.47,16.24,2.7,7.22,1.76,14.43-.69,21.41a41,41,0,0,1-10.64,16.48c-3.64,3.46-7.39,4.42-12.11,3.16a5.2,5.2,0,0,0-4.09.58c-3.8,3.32-8.07,2.91-12.3,1.82a39.18,39.18,0,0,1-16.2-8.24,11.2,11.2,0,0,1-2.91-5.49c-1.34-5.12-4.94-7.29-9.68-8a62.11,62.11,0,0,0-8.63-.53c-7.83-.06-15.66,0-23.5,0l-108.62.5q-63.94.27-127.87.47c-10.39,0-20.77-.28-31.15-.49-3.55-.07-7.1-.31-10.65-.49-.48,0-1.14,0-1.39-.28-1.46-1.65-3.28-3.21-4.08-5.17s-.45-4.18-.6-6.3c0-.07.08-.15.07-.23-1-7.09,4.58-8.15,9.22-9.36a52.83,52.83,0,0,1,13.15-1.58Q212.06,292.9,285.29,293Zm163.47,10.87c-1.23,5.46.83,10,2.56,14.62a8.46,8.46,0,0,0,2.74,3.69,32.89,32.89,0,0,0,6.77,3.86c4,1.64,8.31,2.93,12.62,1.39,3.18-1.14,6.06-3.09,9.2-4.4A5.09,5.09,0,0,0,486,318.5a10.8,10.8,0,0,1,.92-2.76c1.38-3.21,2.94-6.37,4.15-9.64a7.64,7.64,0,0,0,.29-4.33c-.46-1.76-1.72-3.29-2.36-5a15.88,15.88,0,0,0-6.79-8.17c-3.45-2.15-7.3-2.91-11.25-3.68-6.65-1.3-12,.9-16.42,5.42C450.88,294.08,446.39,297.77,448.76,303.87Z"/><path d="M406.38,373.55c-5.21-.13-13.39-.53-21.57-.52q-82.69.17-165.38.43c-3.35,0-6.7-.63-10.05-1-5.61-.55-9.24,2.58-12.41,6.63-2.78,3.55-5.5,7.15-8.47,10.54a9.85,9.85,0,0,1-7.86,3.38c-4.14,0-8.27.37-12.4.43-12,.2-20.45-5.94-26.74-15.59a32.46,32.46,0,0,1-5.48-18,27.33,27.33,0,0,1,6.72-17.75,62.21,62.21,0,0,1,9.47-9.38c2.14-1.66,5.17-2.18,7.8-3.22.91-.36,2.09-.49,2.66-1.14,1.38-1.55,3.07-1.6,4.78-1.35q7.5,1.11,15,2.46a5.45,5.45,0,0,1,4.29,3.21,4.78,4.78,0,0,0,3.28,2.42c4.67.28,6.32,3.59,8.09,7.05a15.72,15.72,0,0,0,3.32,4.8,8.42,8.42,0,0,0,4.81,1.94c6.32.22,12.66.11,19,.09,58.46-.16,116.92-.4,175.38-.39,5.57,0,11.16,1.41,16.7,2.37,3.35.59,5,3,5.2,6.29.16,2.75,0,5.52,0,8.28a1.36,1.36,0,0,1-.26.91C418.54,370,415.56,374.77,406.38,373.55Zm-235.7,8.95c11.23,0,18.55-5.5,21.1-16,2.11-8.66-.69-16.44-8-21.53-3.93-2.74-8.32-3.77-12.94-4.71-5.27-1.06-9.28,1.42-13.64,3.24-.07,0-.12.11-.19.17a29.12,29.12,0,0,0-7.91,10.59c-1.23,3-3.35,6.14-.3,9.43a5.15,5.15,0,0,1,.67,2.57c.64,4.24,2.06,8.16,5.51,10.88A23.39,23.39,0,0,0,170.68,382.5Z"/><path d="M310.9,154c-32.34,0-64.67.12-97-.14-4.45,0-6.81,2.07-9.31,4.87a131,131,0,0,1-8.89,9.63c-1.37,1.26-3.74,1.38-5.6,2.17-.89.38-2.19,1-2.35,1.68-.41,1.87-1.56,1.82-2.94,1.8a55.65,55.65,0,0,0-7.75,0c-7.84,1-14.45-1.79-20.56-6.31-1.31-1-2.65-1.91-3.93-2.93a12.3,12.3,0,0,1-4.78-10c-.08-2.75-2-5.57-3.51-8.11-3-5.09-2.89-8.64.85-12.6,1.72-1.82,3.17-3.87,2.4-6.73-.68-2.51.56-4.64,2.22-6.21,3-2.86,6.31-5.5,9.62-8.05a74.19,74.19,0,0,1,6.39-4.06,2.22,2.22,0,0,1,1.08-.48c4,.12,8.11.14,12.15.47a107.25,107.25,0,0,1,11.42,1.54c5.76,1.11,10.29,4,12.56,9.73a25.21,25.21,0,0,0,2.77,5.17c2.18,3.1,5.06,4.22,9.08,4.18,23.33-.24,46.67-.06,70-.13,41.22-.12,82.44-.34,123.65-.44a27.57,27.57,0,0,1,8,1.06c3.43,1,4.27,4.48,5.46,7.4a8.52,8.52,0,0,1,.53,3.37c0,2.28.57,5.78-.61,6.6-3.68,2.58-6.58,6.6-12,6.58C376.89,153.94,343.89,154,310.9,154ZM199.43,135.17c-.48-1.38-.61-2.9-1.42-3.85-2.54-3-5-6.19-8.12-8.48a21.91,21.91,0,0,0-13.84-4.2,19.8,19.8,0,0,0-13.15,5.69c-2.19,2.15-4.27,4.33-4.89,7.49-.37,1.83-.83,3.64-1.12,5.48-.37,2.28-1,4.61-.78,6.85.25,2.61.62,5.69,2.15,7.59,2.54,3.15,5.94,5.66,9.17,8.21,6.19,4.89,16,3.61,21.86,0,2.86-1.75,5.75-3.71,6.59-7C197.37,147.16,198.26,141.18,199.43,135.17Z"/><path d="M279.29,73.5c15.74,0,31.49,0,47.23,0,3.58,0,6-1.69,8-4.34,2.37-3.21,4.14-7,7-9.72,4.51-4.32,10.34-6.36,16.6-7,2.1-.21,4.19-1,6.25-.88a31.52,31.52,0,0,1,9.36,1.59C386.26,58.1,392.67,68,395,80.87a33.69,33.69,0,0,1-2.47,20.41c-4.35,9.5-11.93,14.64-22,16.79-10.5,2.23-20,.05-28.76-5.64a13,13,0,0,1-4.6-5.83c-2.59-6.48-8-8.25-14-9-6.63-.9-13.25,0-19.83.92a12.73,12.73,0,0,1-1.75,0c-3.83,0-7.66-.1-11.49,0-8.77.27-17.54,1-26.29.87-9.54-.17-19.06-1.17-28.59-1.81-1.33-.09-2.66,0-4-.24-5.56-.82-7.63-5.09-9.13-9.69-.54-1.66-1-3.94-.34-5.27,1.43-2.69,3.65-5,5.66-7.33,1.27-1.48,3-1.59,4.93-1.58C248,73.53,263.63,73.5,279.29,73.5Zm86.32,34.21.24-.4c1.39-.35,3-.39,4.11-1.13,2.46-1.6,4.51-3.83,7-5.32,8-4.76,10.14-18.3,4.95-25.69-5.47-7.79-13.58-10.65-22.48-11-4.74-.18-8.94,2.89-13.07,5.23-.39.22-.61.75-.89,1.15-4.1,5.75-4.73,12.4-5,19.14a3.57,3.57,0,0,0,.5,1.57c1,1.94,2.1,3.81,3,5.8,1.34,3,2.58,6.1,6.25,7C355.37,105.31,360.49,106.5,365.61,107.71Z"/><path d="M266.71,403.5c10.33,0,20.67-.05,31,0,5.3,0,10.6.41,15.9.44,3.3,0,6.6-.28,9.9-.47,2-.11,3.09-1.38,4-3a52.39,52.39,0,0,1,5.22-8.26c1.76-2.08,4.26-3.52,6.45-5.23,4.9-3.85,10.55-4.52,16.52-4a24.32,24.32,0,0,0,4.75,0c3.4-.36,6.24.24,8.57,3.14.78,1,2.8,1.35,4.23,1.31,3.86-.1,6.47,1.5,8.62,4.65a58.73,58.73,0,0,1,8.83,19.49,26.57,26.57,0,0,1,.64,8.33c-.15,1.7-1.57,3.27-2.42,4.91-.65,1.26-2,2.61-1.83,3.79.46,4-1.15,6.87-4.16,9.2s-6.07,5-9.39,7.12A20,20,0,0,1,362.13,448c-3.38-.12-6.76-.35-10.14-.46a5.69,5.69,0,0,0-2.64.39,4.9,4.9,0,0,1-5.34-.43c-3.76-2.6-7.59-5.13-11.14-8a9.52,9.52,0,0,1-2.8-4.58c-1.29-4.5-4.7-7.54-9.28-7.38-5.1.19-10.18.78-15.28.92-3.46.09-6.94-.42-10.4-.43-15.75,0-31.5-.08-47.25,0-3.52,0-7,.79-10.55.9-4.36.12-8.43-1.21-11.15-4.69-1.9-2.44-3-5.49-4.4-8.33a2.77,2.77,0,0,1,0-2.34c2.07-2.93,4.34-5.73,6.49-8.61.95-1.29,2.18-1.5,3.68-1.5C243.54,403.52,255.13,403.5,266.71,403.5ZM356,438c1.67,0,3.34.07,5,0a4.32,4.32,0,0,0,2-.72c2.25-1.48,4.37-3.17,6.67-4.55,3.05-1.85,5.86-3.72,7-7.46a38.66,38.66,0,0,0,.4-19.69,3.33,3.33,0,0,0-1.23-1.6c-2.35-1.9-4.69-3.85-7.18-5.55a59.3,59.3,0,0,0-7.92-4.72,6.18,6.18,0,0,0-4.18-.1c-3.43,1.14-6.73,2.69-10.12,3.95-3.64,1.35-6.74,3.1-8.42,7-2.47,5.69-2.16,11.58-1.67,17.48.14,1.69.54,3.77,1.62,4.9,2.48,2.59,6,4.31,8.1,7.11C348.73,437.57,351.78,438.84,356,438Z"/><path d="M961,207c2.94-2.24,5.81-3.55,9.33-3,2.1.3,5.44,2.48,5.58,4.53.25,3.67.11,7.36.13,11,0,.75,0,1.5,0,2.25,0,16.82,0,33.65.06,50.47,0,2.15-.66,3.62-2.52,4.18a101.79,101.79,0,0,1-10.38,2.49c-.66.13-1.73-.63-2.25-1.27-1.76-2.13-2.68-2-5.24-.8a28,28,0,0,1-8.49,2.57c-7.76.9-14.61-1.84-21-6-4.27-2.74-6-7-6.53-11.55a103,103,0,0,1-1-17.27c.34-7.91,7.2-17.32,14.28-19.27a5,5,0,0,1,.91-.32c5.6-.35,11.19-.8,16.8-.94,1.51,0,3.07.84,4.58,1.38,1.18.43,2.92,1.69,3.35,1.33a5.94,5.94,0,0,0,1.88-3.74c.26-3.24,0-6.52.11-9.79C960.58,211.05,960.84,208.85,961,207Zm-.76,41.41a13,13,0,0,0-1.61-3.43,49,49,0,0,0-4.37-4c-5-4.68-9.44-5.37-15.13-2-4.59,2.73-5.44,7.44-6.16,12.23-.53,3.56,1.91,6,3.08,8.85a6.26,6.26,0,0,0,4.88,4.09,52.58,52.58,0,0,0,8.94,1.2,8.69,8.69,0,0,0,5-2.09C959.23,259.63,959.39,254.29,960.23,248.41Z"/><path d="M1029.61,204c3.05,5.19,1.87,10.76,1.81,16.15a6.82,6.82,0,0,0,2.29,5.17,3.5,3.5,0,0,0,4.53.84c5.33-2.67,11.09-2.26,16.88-2,7.05.36,10.35,5.66,14.52,10a19.6,19.6,0,0,1,5.36,9.17c1.82,7.73.4,15.07-2.81,22.12-1.92,4.21-4.14,8.82-8.8,10.08-4.91,1.34-9.2,5.19-14.58,4.3a92.4,92.4,0,0,1-12-3.3c-1.6-.49-2.73-.56-4.11.78-2.12,2.08-5,1.68-7.74,1.56a16.29,16.29,0,0,1-2.39-.47c-4.77-1-6-3.05-5.09-8.05,1.16-6.6,1.71-13.22.07-19.85a8.22,8.22,0,0,1-.08-2c0-6.91.06-13.83,0-20.74-.08-6.55-.28-13.1-.51-19.65-.06-1.7.72-2.07,2.16-2.83C1022.62,203.53,1026.16,204.12,1029.61,204Zm17.21,61.54c3.63.82,6.25-.7,8.37-3.5.4-.53,1.07-.88,1.38-1.44,1.52-2.74,4.15-5.52,4.18-8.31,0-6.12-3.2-11.12-8.64-14.2-1.76-1-4.18-1.83-6-1.46-5,1-9.76,2.75-12,8.06-1.64,3.76-4,7.4-.52,11.43a11.18,11.18,0,0,1,1.82,3.47c1.17,3.26,3.68,4.89,6.8,5.66A26.27,26.27,0,0,0,1046.82,265.58Z"/><path d="M824.68,225.49a17.62,17.62,0,0,0,.91-10.73,31.6,31.6,0,0,1-.06-6.74c.05-1.46,2.84-3.93,4.83-3.94a26.53,26.53,0,0,1,6.76.84c3.38.87,3.77,4,3.81,6.68.17,10.76.13,21.52.05,32.28-.05,6.39-.29,12.77-.49,19.15-.12,3.89-.31,7.77-.5,11.65-.09,1.86-3.27,4.22-6.14,4.26a10.21,10.21,0,0,1-4.71-1,12.45,12.45,0,0,0-9.28-.89c-2.06.51-4.17.82-6.17,1.48-7.17,2.38-13.52,0-19.13-4-3.54-2.53-6.46-6.09-9.15-9.58a11.76,11.76,0,0,1-2.07-9.73c.66-3.56,0-7.34.21-11a7.64,7.64,0,0,1,1.21-4.14q4.41-5.62,9.3-10.87a14,14,0,0,1,11.42-4.74c5.35.3,10.7.66,16,1C822.6,225.55,823.67,225.49,824.68,225.49Zm-26.68,25c-.23,4.56.71,8.81,4.5,11.68,3.2,2.42,7.15,2.92,11.08,3.4,6.12.75,10.54-3.89,11.37-9.08a34.05,34.05,0,0,0,0-8.5c-.33-3.56-.79-7.22-5.65-7.6-.9-.07-1.73-.91-2.63-1.3-3.76-1.64-7.54-3.52-11.11.41-.25.28-.73.34-1.09.54C800.37,242.29,797.46,245.31,798,250.46Z"/><path d="M1250.5,255.36c0-3.64,0-8.6,0-13.56a3.15,3.15,0,0,1,.69-1.74c2-2.58,4.31-5,6.09-7.7,2.75-4.19,7-5.36,11.35-7,6.78-2.53,13.23-.24,19.85,0,2.79.09,4.26,1.25,5.82,3.18,4.1,5.07,9.33,9.4,10.68,16.21a36.89,36.89,0,0,1,.84,8.75,4.72,4.72,0,0,1-2.68,3.32c-5.5,2-11.22,2.1-17,1.33-3.09-.42-6.25-.41-9.37-.64a25.53,25.53,0,0,1-3.14-.45c-3-.61-6.49,2.38-6.06,5.42a3.36,3.36,0,0,0,1.91,2.4,63.92,63.92,0,0,0,9.26,1.09,42.06,42.06,0,0,0,6.89-.51c.5-.06.94-.72,1.41-1.1,1.39-1.11,2.61-2.7,4.2-3.23,3.8-1.28,7.53,1.5,8.73,6.07.56,2.16,1.26,4.26-1.72,5.39-.85.32-1.46,1.32-2.14,2.06-1.84,2-3.68,3.75-6.84,2.48a3.31,3.31,0,0,0-2.89.87c-3.13,3.39-7.23,3-10.92,2.36a36.3,36.3,0,0,1-20.2-10.78C1251.73,266,1248.9,262.15,1250.5,255.36Zm30-9.08a2.7,2.7,0,0,1,0-.28c1.16,0,2.34-.09,3.49,0,1.87.18,2.67-.39,3.12-2.41s.41-2.88-1.66-3.42a20.06,20.06,0,0,1-3.53-1.7c-5-2.5-10.72-.71-13.85,4.06-1.22,1.88-.1,2.22,1.15,2.4C1273,245.48,1276.74,245.85,1280.49,246.28Z"/><path d="M897.86,260.35l6,7.67c-2.66,2.78-4.77,5.9-7.68,7.84a23.12,23.12,0,0,1-17.9,3.23,95.09,95.09,0,0,1-11.51-3c-6.11-2.07-10.75-5.58-11.64-12.66-.67-5.33-2.4-10.59-2.5-15.91-.18-9.59,6.57-18.22,15-21.13,10.74-3.71,21.5-3.28,31.28,3.62,5.88,4.15,8.92,10,10.11,16.9.11.64.25,1.28.39,1.91a7,7,0,0,1-7,8.72c-9.32,0-18.65,0-28,.05a9.28,9.28,0,0,0-2.91,1.07c.78,1.75-2.12,3.65,1.12,5.68,5,3.14,9.43,1.92,14.15.23C890.54,263.18,894.24,261.72,897.86,260.35ZM868,244.74c5.93.45,11.28,1,16.65,1.18,1.42.06,3.7-.44,4.17-1.38,1.49-3,.78-5.91-3.35-6.54-1.53-.24-3-.68-4.56-.78a9.59,9.59,0,0,0-3.54.4c-1.45.46-2.78,1.29-4.19,1.88C870.94,240.42,869.44,242,868,244.74Z"/><path d="M1206.22,256.7a38,38,0,0,0-4.25,3.9c-.65.77-.73,2-1,3.12-1,4.87-2.87,9.25-7.54,11.71a2.92,2.92,0,0,1-2.66-.48,17.56,17.56,0,0,1-5.73-11.07c-.51-5.61-3.34-10.24-6-14.89-3.76-6.71-7.59-13.33-8.47-21.15-.19-1.69.36-2.88,2.39-2.86a8,8,0,0,0,3.14-.41c3.07-1.35,8,.52,9.73,3.59s3.37,6.27,3.61,10c.22,3.49,3.15,3.93,5.85,5,1-2,2-3.92,3.07-5.84,1.33-2.43,2.6-4.9,4.11-7.22a7.88,7.88,0,0,1,2.86-2.61c2.42-1.27,4-.38,5.1,2a76.06,76.06,0,0,0,5.14,10.2c1,1.58,3.07,2.49,5,4,1.6-3.8,3.06-7,4.32-10.34,1.78-4.69,7.72-9.12,12.64-9.26,2.08-.05,4.23,2.92,4.38,6,.25,4.92-1.89,8.86-5.11,12.3a11.34,11.34,0,0,0-2.88,8.09,7,7,0,0,1-2.32,5.69c-2.16,1.86-1.23,4.62-1.57,6.95-.24,1.64-.61,2.72-2.06,3.44a5.34,5.34,0,0,0-3.13,4.58,9.63,9.63,0,0,1-1.36,3.62c-1,1.81-3,1.93-4.71,1-4.5-2.47-5.69-6.8-6.89-11.25C1211.09,261.19,1210.13,257.88,1206.22,256.7Z"/><path d="M716.5,250.13c-1.43-7.53,3.49-12.67,7-18.26.57-.89,2.49-.87,3.73-1.4a3.45,3.45,0,0,0,1.79-1.27c1.12-2.35,3-3.37,5.42-4a37.48,37.48,0,0,1,29.43,4.56c9,5.38,11.78,13.71,10.15,23.85-1,6.12-2.68,11.9-6.36,17-2,2.79-4,5.45-8.13,5a4.26,4.26,0,0,0-2.9,1.12c-6,5.35-12.67,4.5-19.42,2.26a35.07,35.07,0,0,1-17.65-13.18c-2.94-4.11-2.86-9.09-3.1-13.9C716.48,251.29,716.5,250.71,716.5,250.13Zm42.15,5.15a54.8,54.8,0,0,0-.76-6.86c-.54-2.24-.9-5.08-2.43-6.4-2.56-2.21-6-3.5-9.08-5a3.88,3.88,0,0,0-2.67.15c-1.73.66-3.37,1.54-5.05,2.34-2,1-4.1,1.63-5.24,4-2.75,5.81-2,11.27.52,16.89,1.88,4.14,10.52,7.44,13.76,5.92a26.78,26.78,0,0,0,7.68-5.85C756.86,259,759.68,257.65,758.65,255.28Z"/><path d="M1095.81,298c-2.22-3.77-2-6.95.37-10.59A22.94,22.94,0,0,0,1100,271a9.61,9.61,0,0,0-4.35-6.87c-2.54-1.56-3-3.88-3.1-6.25-.24-4.57-2.16-8.4-4.23-12.35-3.16-6-5.89-12.28-8.7-18.23,3.23-3.31,6.7-2.9,10.14-2.6.32,0,.61.27.92.32,7.69,1.3,5.69.29,8.25,7.8,1.89,5.55,3.27,11.3,7,16a45,45,0,0,0,4.38,4.19,29.17,29.17,0,0,0,2.59-4.52,12.75,12.75,0,0,0,.55-4.36c0-1.92-.27-3.73,2.18-4.48,2-.62,2.23-2.43,2.31-4.19a27.84,27.84,0,0,1,.11-4c.91-4.7,3.37-6.53,9.61-6.85a19.87,19.87,0,0,1,6.78.79c2.75.85,3.3,3.62,1.5,5.9a7.66,7.66,0,0,0-2,5.87,8.14,8.14,0,0,1-3.2,7.84c-3,2.31-3.48,5.8-4.26,9.11-.65,2.77-1.09,5.6-1.74,8.37a8.47,8.47,0,0,1-4.06,5.55,3.44,3.44,0,0,0-1.64,2.36c.26,8.89-3.57,16.11-8.93,22.76-.31.38-.49.86-.8,1.22-1.92,2.2-3.74,4.37-7.25,3.74A35.58,35.58,0,0,0,1095.81,298Z"/><path d="M1402.26,265.27c1.37-2,.68-3.16-1.56-3.91-4.16-1.39-8.27-2.94-12.42-4.36-5-1.71-10-3.46-12.85-8.37a24,24,0,0,1-2.89-13.23c0-.5.47-1,.77-1.46,1-1.5,1.89-3.06,3-4.46.84-1.06,1.78-2.44,2.94-2.77,3.7-1.06,7.18-3.08,11.27-2.73,5.16.43,10.4.31,15.5,1.14a9.57,9.57,0,0,1,8.28,7.4,3.66,3.66,0,0,1-1,4c-4.63,4.3-7.3,4.65-13.68,2-1-.44-2.08-1-3.16-1.3-3.56-1.13-6.94,2-6.45,5.84.24,1.83,1.54,1.37,2.63,1.44A53.88,53.88,0,0,1,1412,249a15.27,15.27,0,0,1,2.94,1.74,5.65,5.65,0,0,1,2.59,5.23c-.27,3.82,0,7.66-.13,11.49a5,5,0,0,1-1.24,3c-2.19,2.29-4.26,5-7,6.43-4.67,2.43-9.83,2.8-15.24,2.28-6.06-.59-11.51-2.84-17.17-4.64-2-.65-3.19-1.66-2.81-3.89.3-1.8.2-3.86,1.07-5.33,2.28-3.85,5.85-2.18,9.06-1.47,3.73.83,7.25,2.68,11.25,2.16C1397.59,265.72,1399.81,265.53,1402.26,265.27Z"/><path d="M672,242c0,5.65,0,11.47,0,17.29a3.91,3.91,0,0,0,.91,1.89c2.45,3.42,5.65,5.13,10,4.36a10.42,10.42,0,0,1,3.48,0c2.64.44,4.07-1.11,5.6-2.85a5,5,0,0,1,2.9-1.61c2.31-.23,4.66-.07,7-.07,3.8,0,5.18,1.38,5.09,5.19,0,2.28-.6,4.23-2.87,5.49-3.55,2-6.9,4.32-10.44,6.3-4.64,2.58-9.6,1.59-14.46.84-2.4-.37-4.69-1.42-7.09-1.72-5-.63-8.33-3.38-10.65-7.64-.35-.65-.67-1.5-1.24-1.79-4.09-2.09-4.25-5.88-4.21-9.67a154.22,154.22,0,0,1,.56-15.66c.9-8,8.55-15.42,16.75-16.84,7.44-1.29,14.88-1.73,22.19.54,5.3,1.64,9.85,4.34,11.15,10.37a6,6,0,0,1,.22,2.66c-.59,2.17-7.82,5.59-9.88,4.65s-4.3-2.27-6.46-3.39c-1.58-.82-3.16-1.65-4.78-2.37-2.52-1.11-4.72-1.48-7.14.84C677,240.38,674.37,240.91,672,242Z"/><path d="M1362,240.91c0,10.75,0,21.5,0,32.24,0,1.87-.49,3-2.31,3.44-3.39.81-6.77,1.66-10.18,2.38-1.24.27-1.91-.25-2.1-1.71-.73-5.51-1.77-11-2.41-16.49a110.6,110.6,0,0,1-1-14.54c.09-5.07,1.18-10.11,1.35-15.19.24-7.5.1-15,0-22.54a2.61,2.61,0,0,1,1.61-2.59A13.69,13.69,0,0,1,1360,205c1.49.59,2.08,1.63,2.06,3.4C1362,219.25,1362,230.08,1362,240.91Z"/><path d="M1332,228.57c0,10.54,0,21.09,0,31.63,0,3.71.39,7.43.45,11.14a21,21,0,0,1-.55,5.12c-.35,1.46-1.13,2.68-3.09,2.57-2.41-.13-4.85-.11-7.27,0-1.44.07-1.91-.72-2-1.87-.86-7.23-2-14.45-2.44-21.71-.52-8.61-.53-17.25-.54-25.88,0-7.29.25-14.59.52-21.88,0-.73.84-2,1.42-2.07,3.57-.52,7.17-.77,10.76-1.12,1.52-.15,2.22.34,2.31,2.05.36,7.33.88,14.67,1.34,22Z"/><path class="cls-1" d="M492.17,196.55c-.29,6.72-2.95,11.75-9.21,14.8-3.2,1.56-6.1,3.73-9.17,5.58a3.38,3.38,0,0,1-1.8.54c-5.58-.35-11-1.4-15.93-4.21-3.52-2-4.79-5.25-5.75-9.17a50,50,0,0,1-1.77-15.79,4.89,4.89,0,0,1,1-2.58c3.12-3.71,6.32-7.35,9.53-11a1.93,1.93,0,0,1,1.21-.69c4-.06,8.06-.45,12,0,8.76,1.08,17.18,9.21,19.16,18.37C491.78,193.8,492,195.18,492.17,196.55Z"/><path class="cls-1" d="M113,229.62c3.32.47,6.66.78,9.94,1.45,2.87.57,4.86,2.61,6.56,4.88,2.21,2.93,4.76,5.7,6.41,8.93a12.54,12.54,0,0,1,.8,7.08c-.84,5.87-4.42,10.46-7.51,15.39-2.77,4.42-6.78,5-10.92,5.57-6.68.9-12.48-1.8-18-5.35a11.16,11.16,0,0,1-5-7.78c-1-5-3.17-9.7-2.31-14.91a4.26,4.26,0,0,1,1.42-2.79,23.72,23.72,0,0,0,9.21-10.17c.55-1.08,2.74-1.56,4.26-1.85a26.67,26.67,0,0,1,5-.07Z"/><path class="cls-1" d="M448.76,303.87c-2.37-6.1,2.12-9.79,5.81-13.55,4.43-4.52,9.77-6.72,16.42-5.42,3.95.77,7.8,1.53,11.25,3.68a15.88,15.88,0,0,1,6.79,8.17c.64,1.73,1.9,3.26,2.36,5a7.64,7.64,0,0,1-.29,4.33c-1.21,3.27-2.77,6.43-4.15,9.64a10.8,10.8,0,0,0-.92,2.76,5.09,5.09,0,0,1-3.38,4.53c-3.14,1.31-6,3.26-9.2,4.4-4.31,1.54-8.59.25-12.62-1.39a32.89,32.89,0,0,1-6.77-3.86,8.46,8.46,0,0,1-2.74-3.69C449.59,313.9,447.53,309.33,448.76,303.87Z"/><path class="cls-1" d="M170.68,382.5A23.39,23.39,0,0,1,155,377.18c-3.45-2.72-4.87-6.64-5.51-10.88a5.15,5.15,0,0,0-.67-2.57c-3-3.29-.93-6.4.3-9.43A29.12,29.12,0,0,1,157,343.71c.07-.06.12-.14.19-.17,4.36-1.82,8.37-4.3,13.64-3.24,4.62.94,9,2,12.94,4.71,7.29,5.09,10.09,12.87,8,21.53C189.23,377,181.91,382.54,170.68,382.5Z"/><path class="cls-1" d="M199.43,135.17c-1.17,6-2.06,12-3.55,17.82-.84,3.28-3.73,5.24-6.59,7-5.83,3.58-15.67,4.86-21.86,0-3.23-2.55-6.63-5.06-9.17-8.21-1.53-1.9-1.9-5-2.15-7.59-.22-2.24.41-4.57.78-6.85.29-1.84.75-3.65,1.12-5.48.62-3.16,2.7-5.34,4.89-7.49a19.8,19.8,0,0,1,13.15-5.69,21.91,21.91,0,0,1,13.84,4.2c3.11,2.29,5.58,5.5,8.12,8.48C198.82,132.27,199,133.79,199.43,135.17Z"/><path class="cls-1" d="M365.61,107.71c-5.12-1.21-10.24-2.4-15.35-3.65-3.67-.9-4.91-4-6.25-7-.88-2-2-3.86-3-5.8a3.57,3.57,0,0,1-.5-1.57c.23-6.74.86-13.39,5-19.14.28-.4.5-.93.89-1.15,4.13-2.34,8.33-5.41,13.07-5.23,8.9.35,17,3.21,22.48,11,5.19,7.39,3.09,20.93-4.95,25.69-2.51,1.49-4.56,3.72-7,5.32-1.13.74-2.72.78-4.11,1.13Z"/><path class="cls-1" d="M356,438c-4.21.84-7.26-.43-10-4-2.12-2.8-5.62-4.52-8.1-7.11-1.08-1.13-1.48-3.21-1.62-4.9-.49-5.9-.8-11.79,1.67-17.48,1.68-3.86,4.78-5.61,8.42-7,3.39-1.26,6.69-2.81,10.12-3.95a6.18,6.18,0,0,1,4.18.1,59.3,59.3,0,0,1,7.92,4.72c2.49,1.7,4.83,3.65,7.18,5.55a3.33,3.33,0,0,1,1.23,1.6,38.66,38.66,0,0,1-.4,19.69c-1.1,3.74-3.91,5.61-7,7.46-2.3,1.38-4.42,3.07-6.67,4.55a4.32,4.32,0,0,1-2,.72C359.33,438.07,357.66,438,356,438Z"/><path class="cls-1" d="M960.23,248.41c-.84,5.88-1,11.22-5.37,14.87a8.69,8.69,0,0,1-5,2.09,52.58,52.58,0,0,1-8.94-1.2,6.26,6.26,0,0,1-4.88-4.09c-1.17-2.89-3.61-5.29-3.08-8.85.72-4.79,1.57-9.5,6.16-12.23,5.69-3.38,10.17-2.69,15.13,2a49,49,0,0,1,4.37,4A13,13,0,0,1,960.23,248.41Z"/><path class="cls-1" d="M1046.82,265.58a26.27,26.27,0,0,1-4.71-.29c-3.12-.77-5.63-2.4-6.8-5.66a11.18,11.18,0,0,0-1.82-3.47c-3.47-4-1.12-7.67.52-11.43,2.29-5.31,7.06-7.07,12-8.06,1.87-.37,4.29.46,6,1.46,5.44,3.08,8.68,8.08,8.64,14.2,0,2.79-2.66,5.57-4.18,8.31-.31.56-1,.91-1.38,1.44C1053.07,264.88,1050.45,266.4,1046.82,265.58Z"/><path class="cls-1" d="M798,250.46c-.54-5.15,2.37-8.17,6.47-10.45.36-.2.84-.26,1.09-.54,3.57-3.93,7.35-2.05,11.11-.41.9.39,1.73,1.23,2.63,1.3,4.86.38,5.32,4,5.65,7.6a34.05,34.05,0,0,1,0,8.5c-.83,5.19-5.25,9.83-11.37,9.08-3.93-.48-7.88-1-11.08-3.4C798.71,259.27,797.77,255,798,250.46Z"/><path class="cls-1" d="M1280.49,246.28c-3.75-.43-7.5-.8-11.24-1.33-1.25-.18-2.37-.52-1.15-2.4,3.13-4.77,8.81-6.56,13.85-4.06a20.06,20.06,0,0,0,3.53,1.7c2.07.54,2.09,1.49,1.66,3.42s-1.25,2.59-3.12,2.41c-1.15-.11-2.33,0-3.49,0A2.7,2.7,0,0,0,1280.49,246.28Z"/><path class="cls-1" d="M868,244.74c1.48-2.76,3-4.32,5.18-5.24,1.41-.59,2.74-1.42,4.19-1.88a9.59,9.59,0,0,1,3.54-.4c1.53.1,3,.54,4.56.78,4.13.63,4.84,3.51,3.35,6.54-.47.94-2.75,1.44-4.17,1.38C879.24,245.71,873.89,245.19,868,244.74Z"/><path class="cls-1" d="M758.65,255.28c1,2.37-1.79,3.67-3.27,5.23a26.78,26.78,0,0,1-7.68,5.85c-3.24,1.52-11.88-1.78-13.76-5.92-2.54-5.62-3.27-11.08-.52-16.89,1.14-2.41,3.21-3.07,5.24-4,1.68-.8,3.32-1.68,5.05-2.34a3.88,3.88,0,0,1,2.67-.15c3.13,1.5,6.52,2.79,9.08,5,1.53,1.32,1.89,4.16,2.43,6.4A54.8,54.8,0,0,1,758.65,255.28Z"/></g></g></svg>