<svg id="Layer_1" data-name="Layer 1" xmlns="http://www.w3.org/2000/svg" viewBox="0 0 301.47 101.63"><defs><style>.cls-1{fill:none;stroke-width:3px;}.cls-1,.cls-2,.cls-3,.cls-4{stroke:#e7e7e7;}.cls-1,.cls-2,.cls-3{stroke-miterlimit:10;}.cls-2,.cls-3,.cls-4{fill:#e7e7e7;}.cls-2{stroke-width:0.38px;}.cls-4{font-size:27px;font-family:MyriadHebrew-Regular, Myriad Hebrew;}.cls-5{letter-spacing:0em;}.cls-6{letter-spacing:-0.01em;}.cls-7{letter-spacing:-0.01em;}.cls-8{letter-spacing:0em;}</style></defs><circle class="cls-1" cx="69.49" cy="8.85" r="7.35"/><circle class="cls-1" cx="69.49" cy="92.78" r="7.35"/><circle class="cls-1" cx="95.91" cy="36.12" r="7.35"/><circle class="cls-1" cx="95.13" cy="64.51" r="7.35"/><circle class="cls-1" cx="22.54" cy="22.65" r="7.35"/><circle class="cls-1" cx="8.85" cy="50.32" r="7.35"/><circle class="cls-1" cx="20.06" cy="78.11" r="7.35"/><path class="cls-2" d="M62.14,12.45H38.56A3.46,3.46,0,0,1,35,9.21c-.06-1.59,1.36-3.94,3.57-4H62.14Z"/><path class="cls-2" d="M62.14,96.39H38.56A3.47,3.47,0,0,1,35,93.15c-.06-1.59,1.36-3.94,3.57-4H62.14Z"/><path class="cls-2" d="M83.86,26.69h-54V19.45h54a3.47,3.47,0,0,1,3.24,3.32A3.57,3.57,0,0,1,83.86,26.69Z"/><path class="cls-2" d="M81.37,81.73h-54V74.49h54a3.46,3.46,0,0,1,3.24,3.31A3.58,3.58,0,0,1,81.37,81.73Z"/><path class="cls-3" d="M98.68,53.85H16.4V46.6H98.68a4.11,4.11,0,0,1,1.67,5.56,4.22,4.22,0,0,1-1.67,1.68Z"/><path class="cls-3" d="M6.29,39.74H88.57V32.5H6.29a4.11,4.11,0,0,0,0,7.24Z"/><path class="cls-3" d="M6.29,68.13H88.57V60.89H6.29a4.11,4.11,0,0,0,0,7.24Z"/><text class="cls-4" transform="translate(134.27 57.69)"><tspan class="cls-5">c</tspan><tspan x="11.96" y="0">oded </tspan><tspan class="cls-6" x="76.52" y="0">b</tspan><tspan x="91.72" y="0">y </tspan><tspan class="cls-7" x="110.19" y="0">w</tspan><tspan class="cls-8" x="129.79" y="0">ells</tspan></text></svg>