<svg id="Layer_1" data-name="Layer 1" xmlns="http://www.w3.org/2000/svg" viewBox="0 0 802.58 271.01"><defs><style>.cls-1,.cls-2{stroke:#000;stroke-miterlimit:10;}.cls-2{fill:none;stroke-width:8px;}.cls-3{font-size:72px;font-family:MyriadHebrew-Regular, Myriad Hebrew;}.cls-4{letter-spacing:0em;}.cls-5{letter-spacing:0em;}.cls-6{letter-spacing:-0.01em;}.cls-7{letter-spacing:-0.01em;}</style></defs><path class="cls-1" d="M501.74,265.19H438.87c-5.45.47-9.37-4.54-9.52-8.63-.16-4.25,3.61-10.51,9.52-10.63h62.87Z" transform="translate(-336.04 -231.99)"/><circle class="cls-2" cx="185.29" cy="23.59" r="19.59"/><path class="cls-1" d="M501.74,489H438.87c-5.45.46-9.37-4.55-9.52-8.64-.16-4.25,3.61-10.51,9.52-10.62h62.87Z" transform="translate(-336.04 -231.99)"/><circle class="cls-2" cx="185.29" cy="247.42" r="19.59"/><circle class="cls-2" cx="255.77" cy="96.32" r="19.59"/><circle class="cls-2" cx="253.69" cy="172.03" r="19.59"/><circle class="cls-2" cx="60.12" cy="60.41" r="19.59"/><circle class="cls-2" cx="23.59" cy="134.18" r="19.59"/><circle class="cls-2" cx="53.48" cy="208.29" r="19.59"/><path class="cls-1" d="M559.67,303.16H415.74V283.87H559.67c4.58.07,8.29,4.06,8.63,8.83C568.7,298,564.81,303,559.67,303.16Z" transform="translate(-336.04 -231.99)"/><path class="cls-1" d="M553,449.93H409.11v-19.3H553c4.58.08,8.29,4.06,8.63,8.83C562.06,444.77,558.18,449.8,553,449.93Z" transform="translate(-336.04 -231.99)"/><path d="M599.17,375.58H379.77V356.25h219.4a11,11,0,0,1,0,19.3Z" transform="translate(-336.04 -231.99)"/><path d="M352.81,338h219.4v-19.3H352.81a11,11,0,0,0-4.45,14.85A10.84,10.84,0,0,0,352.81,338Z" transform="translate(-336.04 -231.99)"/><path d="M352.81,413.67h219.4v-19.3H352.81a11,11,0,0,0,0,19.3Z" transform="translate(-336.04 -231.99)"/><text class="cls-3" transform="translate(358.05 153.83)"><tspan class="cls-4">c</tspan><tspan class="cls-5" x="31.9" y="0">oded </tspan><tspan class="cls-6" x="204.05" y="0">b</tspan><tspan class="cls-5" x="244.58" y="0">y </tspan><tspan class="cls-7" x="293.83" y="0">w</tspan><tspan x="346.1" y="0">ells</tspan></text></svg>