<svg id="Layer_1" data-name="Layer 1" xmlns="http://www.w3.org/2000/svg" viewBox="0 0 368.93 60.06"><defs><style>.cls-1,.cls-3{fill:#e7e7e7;}.cls-1,.cls-2{opacity:0.75;}.cls-3{font-size:48px;font-family:MyriadHebrew-Regular, Myriad Hebrew;}.cls-4{letter-spacing:0em;}.cls-5{letter-spacing:-0.01em;}.cls-6{letter-spacing:-0.01em;}</style></defs><path class="cls-1" d="M44.42,10.15H30.07a2.1,2.1,0,0,1-2.17-2,2.44,2.44,0,0,1,2.17-2.43H44.42Z" transform="translate(-7.5 -3.48)"/><circle class="cls-1" cx="41.4" cy="4.47" r="4.47"/><path class="cls-1" d="M44.42,61.26H30.07a2.1,2.1,0,0,1-2.17-2,2.42,2.42,0,0,1,2.17-2.42H44.42Z" transform="translate(-7.5 -3.48)"/><circle class="cls-1" cx="41.4" cy="55.58" r="4.47"/><circle class="cls-1" cx="57.49" cy="21.08" r="4.47"/><circle class="cls-1" cx="57.02" cy="38.37" r="4.47"/><circle class="cls-1" cx="12.81" cy="12.88" r="4.47"/><circle class="cls-1" cx="4.47" cy="29.73" r="4.47"/><circle class="cls-1" cx="11.3" cy="46.65" r="4.47"/><path class="cls-1" d="M57.65,18.82H24.79V14.41H57.65a2.1,2.1,0,0,1,2,2A2.16,2.16,0,0,1,57.65,18.82Z" transform="translate(-7.5 -3.48)"/><path class="cls-1" d="M56.14,52.34H23.27V47.93H56.14a2.11,2.11,0,0,1,2,2A2.18,2.18,0,0,1,56.14,52.34Z" transform="translate(-7.5 -3.48)"/><path class="cls-1" d="M66.67,35.36H16.57V30.94h50.1a2.5,2.5,0,0,1,0,4.41Z" transform="translate(-7.5 -3.48)"/><path class="cls-1" d="M10.42,26.77h50.1V22.36H10.42a2.5,2.5,0,0,0,0,4.41Z" transform="translate(-7.5 -3.48)"/><path class="cls-1" d="M10.42,44.06h50.1V39.65H10.42A2.5,2.5,0,0,0,9.4,43,2.57,2.57,0,0,0,10.42,44.06Z" transform="translate(-7.5 -3.48)"/><g class="cls-2"><text class="cls-3" transform="translate(72.59 40.6)"><tspan class="cls-4">c</tspan><tspan x="21.26" y="0">oded </tspan><tspan class="cls-5" x="136.03" y="0">b</tspan><tspan x="163.06" y="0">y </tspan><tspan class="cls-6" x="195.89" y="0">w</tspan><tspan x="230.73" y="0">ells</tspan></text></g></svg>