<svg id="Layer_1" data-name="Layer 1" xmlns="http://www.w3.org/2000/svg" viewBox="0 0 166.7 140.46"><defs><style>.cls-1,.cls-2{stroke:#000;stroke-miterlimit:10;}.cls-1{stroke-width:0.38px;}.cls-2{fill:none;stroke-width:3px;}.cls-3{font-size:27px;font-family:MyriadHebrew-Regular, Myriad Hebrew;}.cls-4{letter-spacing:0em;}.cls-5{letter-spacing:-0.01em;}.cls-6{letter-spacing:-0.01em;}.cls-7{letter-spacing:0em;}</style></defs><path class="cls-1" d="M93.11,15.45H69.53A3.46,3.46,0,0,1,66,12.21c-.06-1.59,1.36-3.94,3.57-4H93.11Z" transform="translate(0 -3)"/><circle class="cls-2" cx="100.45" cy="8.85" r="7.35"/><path class="cls-1" d="M93.11,99.39H69.53A3.47,3.47,0,0,1,66,96.15c-.06-1.59,1.36-3.94,3.57-4H93.11Z" transform="translate(0 -3)"/><circle class="cls-2" cx="100.45" cy="92.78" r="7.35"/><circle class="cls-2" cx="126.88" cy="36.12" r="7.35"/><circle class="cls-2" cx="126.1" cy="64.51" r="7.35"/><circle class="cls-2" cx="53.51" cy="22.65" r="7.35"/><circle class="cls-2" cx="39.81" cy="50.32" r="7.35"/><circle class="cls-2" cx="51.02" cy="78.11" r="7.35"/><path class="cls-1" d="M114.83,29.69h-54V22.45h54a3.47,3.47,0,0,1,3.24,3.32A3.57,3.57,0,0,1,114.83,29.69Z" transform="translate(0 -3)"/><path class="cls-1" d="M112.34,84.73h-54V77.49h54a3.46,3.46,0,0,1,3.24,3.31A3.58,3.58,0,0,1,112.34,84.73Z" transform="translate(0 -3)"/><path d="M129.64,56.85H47.37V49.6h82.27a4.1,4.1,0,0,1,1.67,5.56,4.16,4.16,0,0,1-1.67,1.68Z" transform="translate(0 -3)"/><path d="M37.26,42.74h82.27V35.5H37.26a4.11,4.11,0,0,0,0,7.24Z" transform="translate(0 -3)"/><path d="M37.26,71.13h82.27V63.89H37.26a4.11,4.11,0,0,0,0,7.24Z" transform="translate(0 -3)"/><text class="cls-3" transform="translate(0 131.69)"><tspan class="cls-4">c</tspan><tspan x="11.96" y="0">oded </tspan><tspan class="cls-5" x="76.52" y="0">b</tspan><tspan x="91.72" y="0">y </tspan><tspan class="cls-6" x="110.19" y="0">w</tspan><tspan class="cls-7" x="129.79" y="0">ells</tspan></text></svg>