<svg id="Layer_1" data-name="Layer 1" xmlns="http://www.w3.org/2000/svg" viewBox="0 0 450.19 399.52"><defs><style>.cls-1,.cls-2{stroke:#000;stroke-miterlimit:10;}.cls-2{fill:none;stroke-width:8px;}</style></defs><path class="cls-1" d="M1051.35,387.88H956.69c-8.22.71-14.11-6.84-14.34-13-.24-6.39,5.44-15.82,14.34-16h94.66Z" transform="translate(-803.86 -339.91)"/><circle class="cls-2" cx="276.99" cy="33.5" r="29.5"/><path class="cls-1" d="M1051.35,720.41H956.69c-8.22.7-14.11-6.85-14.34-13-.24-6.4,5.44-15.83,14.34-16h94.66Z" transform="translate(-803.86 -339.91)"/><circle class="cls-2" cx="276.99" cy="366.02" r="29.5"/><circle class="cls-2" cx="383.11" cy="143.02" r="29.5"/><circle class="cls-2" cx="379.98" cy="257.02" r="29.5"/><circle class="cls-2" cx="88.5" cy="88.94" r="29.5"/><circle class="cls-2" cx="33.5" cy="198.02" r="29.5"/><circle class="cls-2" cx="83.03" cy="307.1" r="29.5"/><path class="cls-1" d="M1138.58,445.06H921.86V416h216.72c6.9.12,12.49,6.12,13,13.3C1152.18,437.3,1146.32,444.86,1138.58,445.06Z" transform="translate(-803.86 -339.91)"/><path class="cls-1" d="M1285.28,377.4" transform="translate(-803.86 -339.91)"/><path class="cls-1" d="M1133.11,661.54H916.39V632.48h216.72c6.9.12,12.49,6.12,13,13.3C1146.7,653.77,1140.85,661.34,1133.11,661.54Z" transform="translate(-803.86 -339.91)"/><path d="M1191.06,556.1H860.69V527h330.37a16.5,16.5,0,0,1,0,29.06Z" transform="translate(-803.86 -339.91)"/><path d="M827.1,497.46h330.37V468.4H827.1a16.5,16.5,0,0,0,0,29.06Z" transform="translate(-803.86 -339.91)"/><path d="M827.1,611.46h330.37V582.4H827.1a16.5,16.5,0,0,0,0,29.06Z" transform="translate(-803.86 -339.91)"/><text x="-803.86" y="-339.91"/></svg>