<svg id="Layer_1" data-name="Layer 1" xmlns="http://www.w3.org/2000/svg" viewBox="0 0 2731.88 2650.23"><defs><style>.cls-1,.cls-2{stroke:#000;stroke-miterlimit:10;}.cls-1{stroke-width:9.78px;}.cls-2{fill:none;stroke-width:78.23px;}</style></defs><path class="cls-1" d="M1754.48,499.56H1139.73c-53.39,4.61-91.64-44.43-93.13-84.43-1.56-41.5,35.33-102.74,93.13-103.91h614.75Z" transform="translate(-134.06 -174.88)"/><circle class="cls-2" cx="1812.01" cy="230.7" r="191.58"/><path class="cls-1" d="M1754.48,2688.45H1139.73c-53.39,4.55-91.64-44.48-93.13-84.42-1.56-41.57,35.33-102.81,93.13-103.91h614.75Z" transform="translate(-134.06 -174.88)"/><circle class="cls-2" cx="1812.01" cy="2419.53" r="191.58"/><circle class="cls-2" cx="2501.18" cy="941.96" r="191.58"/><circle class="cls-2" cx="2480.86" cy="1682.31" r="191.58"/><circle class="cls-2" cx="587.89" cy="590.75" r="191.58"/><circle class="cls-2" cx="230.7" cy="1312.14" r="191.58"/><circle class="cls-2" cx="523.03" cy="2036.89" r="191.58"/><path class="cls-1" d="M2321,870.9H913.53V682.18H2321c44.81.78,81.12,39.74,84.43,86.37C2409.31,820.51,2371.25,869.6,2321,870.9Z" transform="translate(-134.06 -174.88)"/><path class="cls-1" d="M2256.12,2306.13H848.67V2117.41H2256.12c44.81.78,81.11,39.74,84.43,86.37C2344.38,2255.67,2306.39,2304.83,2256.12,2306.13Z" transform="translate(-134.06 -174.88)"/><path d="M2707.27,1579H561.73v-189H2707.27a107.16,107.16,0,0,1,0,188.72Z" transform="translate(-134.06 -174.88)"/><path d="M298.13,1211.21H2443.66V1022.48H298.13a107.16,107.16,0,0,0,0,188.73Z" transform="translate(-134.06 -174.88)"/><path d="M298.13,1951.56H2443.66V1762.83H298.13a107.16,107.16,0,0,0,0,188.73Z" transform="translate(-134.06 -174.88)"/></svg>