<svg id="Layer_1" data-name="Layer 1" xmlns="http://www.w3.org/2000/svg" viewBox="0 0 400.79 261.07"><defs><style>.cls-1{fill:#196eb7;}.cls-2{fill:#1777be;}.cls-3{fill:#1286ca;}.cls-4{fill:#1580c5;}.cls-5{fill:#0b97da;}.cls-6{fill:#0e90d3;}.cls-7{fill:#07a0e1;}.cls-8{fill:#04abea;}.cls-9{fill:#2261aa;}.cls-10{fill:#05a8e8;}.cls-11{fill:#0c9fde;}.cls-12{fill:#2a4d98;}.cls-13{fill:#2d408e;}.cls-14{fill:#1b75ba;}.cls-15{fill:#1f60ab;}.cls-16{fill:#1395d4;}.cls-17{fill:#294a97;}.cls-18{fill:#2268ae;}.cls-19{fill:#26559f;}.cls-20{fill:#2556a1;}.cls-21{fill:#386ba3;}.cls-22{fill:#2352a0;}.cls-23{fill:#215ba7;}</style></defs><path class="cls-1" d="M929.47,614.42h-6.92V605.5c.06-3.91.14-7.82.15-11.73q0-17.49,0-35v-3c1.95,0,3.75,0,5.55,0l18.21.22q.25,6.52.5,13.06h-8.89v32h8.39q.25,6.51.5,13l-14.55.25C931.44,614.29,930.46,614.37,929.47,614.42Z" transform="translate(-748.61 -394.47)"/><path class="cls-2" d="M947,614q-.24-6.51-.5-13c6.38-.85,10.14-4.59,10.78-10.86a50.83,50.83,0,0,0-.39-12.07,9.71,9.71,0,0,0-6.16-7.88c-1.21-.49-2.48-.79-3.73-1.18q-.24-6.53-.5-13.06c14.21.2,25.39,7.12,26.9,24.42a49.27,49.27,0,0,1-1,14.83C969.65,607.28,959.46,614.54,947,614Z" transform="translate(-748.61 -394.47)"/><path class="cls-3" d="M1028.47,614.09c-5.23.06-10.47.15-15.7.13a2.41,2.41,0,0,1-1.75-1c-4.08-6.65-8.09-13.35-12.12-20q.29-6.57.58-13.13c1.48-.15,3-.24,4.44-.47a5.6,5.6,0,0,0,.23-11c-1.37-.28-2.78-.38-4.17-.56q-.24-6-.49-12.06c5.21-.45,10.33-.15,15.09,2.23,6.12,3.06,9.11,9.51,8.37,17.76-.55,6.23-4.31,10.41-11.69,12.58l17.22,24.09C1028.48,613.08,1028.47,613.58,1028.47,614.09Z" transform="translate(-748.61 -394.47)"/><path class="cls-4" d="M999.49,555.91q.25,6,.49,12.06l-3.39.25v11.59l2.89.22q-.29,6.57-.58,13.13l-2.45-3.39V614.1H981.21V555.91Z" transform="translate(-748.61 -394.47)"/><path class="cls-5" d="M1058,555.91c2.91,0,5.82-.2,8.72-.1a2.64,2.64,0,0,1,1.86,1.43c7,18.83,13.92,37.68,21,56.79h-15.35c-1-2.73-2.12-5.57-3-8.5-.49-1.72-1.35-2.12-3-2.07-3.4.11-6.82,0-10.23,0V591.08h8.24c-2.65-7.39-5.14-14.37-7.64-21.36a18.89,18.89,0,0,1-.57-3.13C1057.94,563,1058,559.47,1058,555.91Z" transform="translate(-748.61 -394.47)"/><path class="cls-6" d="M1058,591.08v12.34c-3.06,0-6.13.13-9.2.05a2,2,0,0,0-2.27,1.63c-.79,2.52-1.63,5-2.61,7.49-.28.67-1.15,1.56-1.76,1.57-4.55.09-9.11,0-13.67-.07,0-.51,0-1,0-1.52q5.25-14.1,10.49-28.21c3.28-8.86,6.55-17.72,9.74-26.62.53-1.45,1.17-2.18,2.82-2,2.15.19,4.31.15,6.47.21,0,3.56-.06,7.12,0,10.68a18.89,18.89,0,0,0,.57,3.13c-2.31,7-4.62,14-7,21.36Z" transform="translate(-748.61 -394.47)"/><path class="cls-7" d="M1112,614c-10.9-2.19-19.65-12-20.93-23.63-1-8.88.16-17.34,6-24.55a27.19,27.19,0,0,1,18-10.2v13.35c-11,4-12.46,23.88-2.21,30.91a11.41,11.41,0,0,0-.76,2.72C1111.94,606.35,1112,610.15,1112,614Z" transform="translate(-748.61 -394.47)"/><path class="cls-8" d="M1129.48,600.48c2.56-1.73,4.86-3.67,5.68-7.2h-13.29V581.37h27.53v32.71h-11.55c-.09-1.81-.18-3.65-.27-5.49l-7.52,4.7Z" transform="translate(-748.61 -394.47)"/><path class="cls-9" d="M928.8,406.83c-.44.9-.88,1.8-1.33,2.7h-2.33l-.37,1c4.47,4.6,9,9.19,13.39,13.82A6.51,6.51,0,0,1,939,426c-.38.38-1,.72-1.08,1.15-.76,5.13-6.35,10.94-11.44,11.55-1.52.18-1.27.84-1,1.77a5.4,5.4,0,0,1-1.57-.73c-3.77-3.68-7.49-7.4-11.23-11.11.26-.65.52-1.3.79-1.95,2.84-4.8,6-9.23,11.38-11.64.4-.18.47-1.71.26-2.5a34.13,34.13,0,0,0-1.65-4.08,5.82,5.82,0,0,0,2.07-.19,22.91,22.91,0,0,0,2.79-2Z" transform="translate(-748.61 -394.47)"/><path class="cls-10" d="M1115,568.92V555.57c13.34-2.5,27,3.1,32.18,13.28l-12.73,6.85c-.24-.15-.52-.23-.62-.41-3.83-7-11.25-8.59-17.86-6.54A6.35,6.35,0,0,1,1115,568.92Z" transform="translate(-748.61 -394.47)"/><path class="cls-11" d="M1042,641.24a66.82,66.82,0,0,1,2-8.4c1.38-3.67,4.51-5.25,8.32-5.23s6.7,1.66,8.09,5.21a22.79,22.79,0,0,1,0,17.52c-1.53,3.69-4.52,5.3-8.57,5.2-3.89-.1-6.62-1.91-7.88-5.42A74.15,74.15,0,0,1,1042,641.24Zm5.6.17c.41,2.28.66,4.43,1.22,6.49.43,1.63,1.67,3,3.44,2.55a5.18,5.18,0,0,0,3.28-2.43,17.37,17.37,0,0,0-.1-13.1,4.12,4.12,0,0,0-3.1-2.23A4.55,4.55,0,0,0,1049,635C1048.13,637,1048,639.3,1047.56,641.41Z" transform="translate(-748.61 -394.47)"/><path class="cls-10" d="M1069.34,641.12a62.32,62.32,0,0,1,1.65-7.6,9.05,9.05,0,0,1,17.08.22,23.78,23.78,0,0,1,.11,15.45c-1.45,4.36-4.36,6.33-8.8,6.31s-7.15-1.93-8.52-6.3A67.52,67.52,0,0,1,1069.34,641.12Zm14.88.72c-.43-2.24-.53-4.57-1.39-6.57a4.85,4.85,0,0,0-3.39-2.56,4.37,4.37,0,0,0-3.26,2.4,17.45,17.45,0,0,0,0,12.89,5.19,5.19,0,0,0,3.28,2.45c1.77.46,3-.89,3.48-2.51C1083.5,646,1083.79,643.91,1084.22,641.84Z" transform="translate(-748.61 -394.47)"/><path class="cls-12" d="M913.48,426.7c-.27.65-.53,1.3-.79,1.95L909,425.87l-1,1.62v1.06l-2.54.94c.86-1.36,1.72-2.72,2.65-4.21L905,423.1c-.35,2.56-.65,4.76-1,7.14l1.48-.8-1.5,1.73c-.31-.63-1.05-1.48-.86-1.87,1.79-3.59-.16-5.65-2.69-7.78a37.48,37.48,0,0,1-5.1-5.43,7.32,7.32,0,0,1-.89-8.4A25.64,25.64,0,0,1,907,395.42c0,4.89,0,9.79.06,14.68a10.66,10.66,0,0,0,.92,2.89,37.66,37.66,0,0,0-2.71,6,4.19,4.19,0,0,0,1,3.64A60.06,60.06,0,0,0,913.48,426.7Z" transform="translate(-748.61 -394.47)"/><path class="cls-13" d="M891.56,473.51a81,81,0,0,1-6.59-6.37,37.85,37.85,0,0,1-3.88-6.47,2.63,2.63,0,0,1,0-1.93,26.33,26.33,0,0,1,13.8-15c0,4.57,0,9.14.08,13.71a36.53,36.53,0,0,0,.54,4.15,33.42,33.42,0,0,0-1.88,3.67c-.7,1.86-1.81,3.77-.19,5.73l0,.87-1.17,1.59Z" transform="translate(-748.61 -394.47)"/><path class="cls-10" d="M1129.48,600.48l.58,12.81c-5.94,2.46-12,2.16-18.07.66,0-3.8,0-7.6,0-11.4a11.41,11.41,0,0,1,.76-2.72A19.23,19.23,0,0,0,1129.48,600.48Z" transform="translate(-748.61 -394.47)"/><path class="cls-14" d="M944,633.09l-3.84-.21v-4.82H958.4V633h-6.06v22h-5.88V633.09Z" transform="translate(-748.61 -394.47)"/><path class="cls-15" d="M877.47,555.91l11-.33,5.7.32v8.6c-.07,1.39-.13,2.79-.21,4.42H877.47Z" transform="translate(-748.61 -394.47)"/><path class="cls-3" d="M978.49,627.79c8.3-.71,14.4,5,14.53,13.67s-5.91,14.39-14.54,14c.17-1.64.33-3.27.5-4.91,6.12-1,8.76-4,8.48-9.46-.26-5-3.33-7.84-9-8.18Z" transform="translate(-748.61 -394.47)"/><path class="cls-4" d="M979,650.51c-.17,1.64-.33,3.27-.5,4.91-7.83-.13-13-5.58-13.06-13.85s5-13.48,13.07-13.78c0,1.7,0,3.39,0,5.08-3.48.54-6,2.29-7.05,5.75C969.57,644.51,972.47,649.08,979,650.51Z" transform="translate(-748.61 -394.47)"/><path class="cls-16" d="M1024,633.63l-5.88,5.39c-1.47-6.28,3.87-11.48,11.1-10.88V654.9H1024Z" transform="translate(-748.61 -394.47)"/><path class="cls-17" d="M895.53,461.64a36.53,36.53,0,0,1-.54-4.15c-.08-4.57-.06-9.14-.08-13.71,3.27-1.62,6.19-.62,8.66,1.56,2.65,2.33,5,5,7.5,7.5-.21.47-.41.93-.61,1.4l-.52,1.73c-1.41-1.71-3.09-1.75-5.09-1.1C901,456.13,898.18,458.76,895.53,461.64Z" transform="translate(-748.61 -394.47)"/><path class="cls-18" d="M928,469.93c3.29,3.14,6.71,6.17,9.84,9.47,2.32,2.45,2.62,5.36.53,7.93-3.07,3.74-6.61,7.11-9.94,10.64-.17-2.2-.31-4.41-.5-6.61-.11-1.29-.3-2.57-.45-3.85.24-.34.45-.69.71-1,4-5.1,4-5.1.6-10.33,0,0,.09-.13.13-.2l2.74,1.17.44-.47-4.56-6.27Z" transform="translate(-748.61 -394.47)"/><path class="cls-1" d="M940,422c.53.13,1.23.09,1.58.42,3,2.86,6,5.69,8.8,8.74a5.6,5.6,0,0,1,.66,7.12,36.06,36.06,0,0,1-10,10.87c-.19-2.38-.34-4.78-.58-7.16a29.71,29.71,0,0,0-.6-3.07c.86-1.22,1.71-2.45,2.59-3.65,1.49-2,1.85-4.05,0-6.11-.12-.13,0-.48,0-.72h2.18Z" transform="translate(-748.61 -394.47)"/><path class="cls-19" d="M907.93,413a10.66,10.66,0,0,1-.92-2.89c-.1-4.89,0-9.79-.06-14.68,3.21-1.83,6.06-.8,8.69,1.23a41.41,41.41,0,0,1,3.37,3.26l-.54,6A20.58,20.58,0,0,0,907.93,413Z" transform="translate(-748.61 -394.47)"/><path class="cls-18" d="M939.85,439a29.71,29.71,0,0,1,.6,3.07c.24,2.38.39,4.78.58,7.16-2.6,2.17-5,4.78-9,3.27a3,3,0,0,1-.59-.44v-7.25Z" transform="translate(-748.61 -394.47)"/><path class="cls-9" d="M927.52,487.51c.15,1.28.34,2.56.45,3.85.19,2.2.33,4.41.5,6.61-4.27,3.75-6.45,4.3-9.75,2.42-.14-.08-.22-.24-.33-.35.36-.66,1-1.29,1-2,.14-1.57,0-3.15,0-4.73Z" transform="translate(-748.61 -394.47)"/><path class="cls-18" d="M923.9,505.32a6.7,6.7,0,0,1,2,.93q10.57,10.46,21,21c.42.42.47,1.22.69,1.84-.62-.14-1.45-.07-1.83-.45Q935,518,924.37,507.31a6.84,6.84,0,0,1-.86-1.38Z" transform="translate(-748.61 -394.47)"/><path class="cls-14" d="M965.6,508.19q-10.53-10.45-21-20.94c-.4-.4-.38-1.22-.55-1.84.63.2,1.44.2,1.85.61,7.12,7.1,14.2,14.26,21.28,21.4Z" transform="translate(-748.61 -394.47)"/><path class="cls-3" d="M979.94,461.09q-11.34-11.2-22.68-22.42c-.38-.38-.42-1.11-.62-1.67.64.13,1.49,0,1.88.41q11.33,11.23,22.54,22.56C980.69,460.34,980.32,460.72,979.94,461.09Z" transform="translate(-748.61 -394.47)"/><path class="cls-11" d="M988.5,507.93q9.36,9.29,18.7,18.59a7.54,7.54,0,0,1,1.28,1.49,1.15,1.15,0,0,1-.21,1.09c-.2.17-.72,0-1.08,0s-.39-.3-.56-.47q-9.57-9.69-19.11-19.39Z" transform="translate(-748.61 -394.47)"/><path class="cls-16" d="M965.6,508.19l1.55-.77c6.81,6.79,13.64,13.58,20.42,20.41.37.37.38,1.09.56,1.64-.61-.14-1.42-.08-1.8-.46C979.38,522.1,972.5,515.14,965.6,508.19Z" transform="translate(-748.61 -394.47)"/><path class="cls-14" d="M955.47,477c-6.09-6-12.19-12-18.23-18.09-.41-.42-.4-1.25-.59-1.89.58.15,1.34.11,1.7.47,6.1,6.13,12.15,12.3,18.22,18.47Z" transform="translate(-748.61 -394.47)"/><path class="cls-5" d="M979.94,461.09c.38-.37.75-.75,1.12-1.12q8.58,8.41,17.15,16.84c.65.64,1.23,1.34,1.84,2-.36.4-.73.79-1.09,1.18Z" transform="translate(-748.61 -394.47)"/><path class="cls-11" d="M999,480c.36-.39.73-.78,1.09-1.18,5.11,5,10.24,10,15.31,15,.41.41.41,1.23.61,1.87-.69-.23-1.58-.26-2-.71C1008.9,490,1003.94,485,999,480Z" transform="translate(-748.61 -394.47)"/><path class="cls-20" d="M919.43,493.35c0,1.58.13,3.16,0,4.73-.06.67-.67,1.3-1,2l-10.47-10.48.48-.55,6.6,4.91.46-.55-1-2.38Z" transform="translate(-748.61 -394.47)"/><path class="cls-6" d="M988.5,507.93l-1,1.27L971,492.7l1.15-1.16Z" transform="translate(-748.61 -394.47)"/><path class="cls-9" d="M931.47,444.77V452L920.3,441.07l.75-.1c2,1.42,3.45,3.86,6.33,4,0-.78.06-1.36.09-1.95Z" transform="translate(-748.61 -394.47)"/><path class="cls-4" d="M972.17,491.54,971,492.7,955.47,477l1.1-1Z" transform="translate(-748.61 -394.47)"/><path class="cls-21" d="M910.46,454.24c.2-.47.4-.93.61-1.4,1.44,0,2.88-.15,4.32-.14a23.57,23.57,0,0,1,2.5.27,17.06,17.06,0,0,1-1.23,2.41,11.8,11.8,0,0,1-2.07,1.68l10,9.4L924,467c-2.78-2.68-5.54-5.39-8.35-8a14.52,14.52,0,0,0-2.18-1.41c.83-1.14,1.67-2.27,2.66-3.62Zm5.7.06.59-.38c-.1-.12-.23-.34-.29-.32a2.51,2.51,0,0,0-.61.31Z" transform="translate(-748.61 -394.47)"/><path class="cls-9" d="M918.47,405.9l.54-6a14.34,14.34,0,0,1,1.78,1.7c1.91,2.49,4,4.14,7.38,2.5.47-.23,1.3.27,2,.43l-1.34,2.29-.47-.49,1.16-1.52c-1.88.34-3.42,1-4.78.76-2-.36-2.14.55-2.24,1.94Z" transform="translate(-748.61 -394.47)"/><path class="cls-12" d="M891.56,473.51h.76c-.13,1.64-.27,3.28-.45,5.49l4-4.61.49.46c.19.76.15,1.7.6,2.24,1.44,1.71,3.05,3.28,4.59,4.9l-.43.5-5.47-6.32a35.25,35.25,0,0,1-2.71,3,1.19,1.19,0,0,1-2.08-1.09C891,476.57,891.3,475,891.56,473.51Z" transform="translate(-748.61 -394.47)"/><path class="cls-21" d="M901.07,482.48l.43-.5,6.9,7-.48.55Z" transform="translate(-748.61 -394.47)"/><path class="cls-21" d="M908,428.55c0-.35,0-.7,0-1.06l6.35,6.52-.39.57Z" transform="translate(-748.61 -394.47)"/><path class="cls-9" d="M937.44,419.49l-5-5A8,8,0,0,1,937.44,419.49Z" transform="translate(-748.61 -394.47)"/><path class="cls-4" d="M966.51,455.6l-3-.21C964.77,452.91,965.69,453,966.51,455.6Z" transform="translate(-748.61 -394.47)"/><path class="cls-16" d="M976.69,527.72c-1,1.85-1.93,1.6-2.83,0C974.69,526,975.59,526,976.69,527.72Z" transform="translate(-748.61 -394.47)"/><path class="cls-20" d="M921.05,441l-.75.1-3.41-3.49.46-.48Z" transform="translate(-748.61 -394.47)"/><path class="cls-18" d="M924,467l.57-.49.82.75-.56.46Z" transform="translate(-748.61 -394.47)"/><path class="cls-20" d="M916.89,437.58l-.83-.8.52-.39.77.71Z" transform="translate(-748.61 -394.47)"/><path class="cls-18" d="M927.26,469.09l.78.84-.46.47-.72-.78Z" transform="translate(-748.61 -394.47)"/><path class="cls-20" d="M916.06,436.78l-.5-.5.52-.39.5.5Z" transform="translate(-748.61 -394.47)"/><path class="cls-20" d="M915.56,436.28l-.5-.5.52-.39.5.5Z" transform="translate(-748.61 -394.47)"/><path class="cls-20" d="M915.06,435.78l-.5-.5.52-.39.5.5Z" transform="translate(-748.61 -394.47)"/><path class="cls-20" d="M914.56,435.28l-.5-.51.52-.37.5.49Z" transform="translate(-748.61 -394.47)"/><path class="cls-20" d="M913.94,434.58l.39-.57a.46.46,0,0,1,.25.39l-.52.37Z" transform="translate(-748.61 -394.47)"/><path class="cls-9" d="M929,411l-.54-.55Z" transform="translate(-748.61 -394.47)"/><path class="cls-9" d="M928.5,410.52,928,410Z" transform="translate(-748.61 -394.47)"/><path class="cls-9" d="M928,410l-.54-.55Z" transform="translate(-748.61 -394.47)"/><path class="cls-9" d="M930,412l-.54-.55.56,0Z" transform="translate(-748.61 -394.47)"/><path class="cls-9" d="M930.5,412.52,930,412l.56,0Z" transform="translate(-748.61 -394.47)"/><path class="cls-9" d="M931,413l-.54-.55Z" transform="translate(-748.61 -394.47)"/><path class="cls-9" d="M931.5,413.52,931,413Z" transform="translate(-748.61 -394.47)"/><path class="cls-18" d="M926.76,468.59l.5.5c-.14.17-.27.35-.4.53l-.5-.51Z" transform="translate(-748.61 -394.47)"/><path class="cls-18" d="M926.24,468.07c.17.18.35.35.52.52l-.4.52-.5-.5Z" transform="translate(-748.61 -394.47)"/><path class="cls-9" d="M932,414l-.54-.55Z" transform="translate(-748.61 -394.47)"/><path class="cls-18" d="M925.38,467.21l.52.53-.54.37-.54-.44Z" transform="translate(-748.61 -394.47)"/><path class="cls-9" d="M929.5,411.52,929,411l.56,0Z" transform="translate(-748.61 -394.47)"/><path class="cls-9" d="M932.5,414.52,932,414Z" transform="translate(-748.61 -394.47)"/><path class="cls-18" d="M925.9,467.74a.65.65,0,0,1,.34.33l-.38.54-.5-.5Z" transform="translate(-748.61 -394.47)"/><path class="cls-13" d="M789.87,569.07h-13.1v45H761.71v-45h-13.1V555.88h41.26Z" transform="translate(-748.61 -394.47)"/><path class="cls-17" d="M821.46,591.42H810.83v22.64H795.69V555.88h15v22.65h10.75Z" transform="translate(-748.61 -394.47)"/><path class="cls-22" d="M821.46,591.42V578.53h10.9V555.88h15v58.19h-14.9V591.42Z" transform="translate(-748.61 -394.47)"/><path class="cls-23" d="M877.47,555.91v13l-3.72.19c0,2.83-.08,5.55.08,8.25,0,.44,1.06.82,1.64,1.22v12.84c-1.16,0-1.82.33-1.76,1.71.1,2.49,0,5,0,7.68l2.73.27v13H858.69V555.91Z" transform="translate(-748.61 -394.47)"/><path class="cls-19" d="M876.71,643.07c2.62,3.95,5.13,7.74,7.94,12-2.23,0-4.09.11-5.92-.07-.56,0-1.19-.79-1.54-1.36-1.79-2.9-3.47-5.87-5.26-8.76a11.34,11.34,0,0,0-1.79-1.81l-.7.41v11.46h-5.55V628.15c4,0,8-.3,11.93.08s5.89,3,6.38,6.9C882.66,638.79,881.26,640.9,876.71,643.07Zm-7.09-10.24v7a52.08,52.08,0,0,0,6.79-2.48c.41-.2.41-2.37-.13-3.08C874.57,632,872,632.86,869.62,632.83Z" transform="translate(-748.61 -394.47)"/><path class="cls-13" d="M821.34,632.91H808.72v-4.73h19.16a8,8,0,0,1-1.58,6.94c-3.66,4.71-7.06,9.64-10.86,14.89h12.8v4.88H808.79a7,7,0,0,1,1.18-6.22c3.37-4.33,6.51-8.83,9.74-13.28C820.18,634.75,820.59,634.06,821.34,632.91Z" transform="translate(-748.61 -394.47)"/><path class="cls-17" d="M853.43,650v5H838.07V628.16h15.29V633h-9.71v6.08h8.65V644h-8.66v6Z" transform="translate(-748.61 -394.47)"/><path class="cls-9" d="M876.47,614.09v-13h17.39v13Z" transform="translate(-748.61 -394.47)"/><path class="cls-15" d="M875.47,591.42V578.58h16.28v12.84Z" transform="translate(-748.61 -394.47)"/><path class="cls-9" d="M905.47,655.42c-8.26.37-13.9-5.08-14.09-13.6s5.32-14.16,14.08-14.11c0,1.71,0,3.42,0,5.13-5.67.58-8.57,3.63-8.5,8.94s2.63,7.88,8.5,8.72Z" transform="translate(-748.61 -394.47)"/><path class="cls-18" d="M905.47,655.42V650.5c3.41-.67,6.35-1.92,7.48-5.64,1.85-6-1.17-10.92-7.48-12,0-1.71,0-3.42,0-5.13,7.2.37,11.68,3.87,13.12,10.28,1.52,6.79-.93,13.14-6.47,15.81C910.1,654.77,907.69,654.91,905.47,655.42Z" transform="translate(-748.61 -394.47)"/><path class="cls-12" d="M893.46,471c1.68,1,3.42,2,5,3.18,2,1.36,3.32,1.1,4.27-1.15a9.51,9.51,0,0,1,1.11-1.62c2,3,1,6.12.53,9.23-2-1.69-4-3.42-6-5a7.75,7.75,0,0,0-2.05-.8l-.49-.46-2.33-2.47Z" transform="translate(-748.61 -394.47)"/><path class="cls-1" d="M941.47,428,940,427l.09-.83Z" transform="translate(-748.61 -394.47)"/><path class="cls-9" d="M940.05,426.18,940,427l-1-1Z" transform="translate(-748.61 -394.47)"/><path class="cls-1" d="M942.49,428.52l-1-.52Z" transform="translate(-748.61 -394.47)"/><path class="cls-9" d="M922.44,407.5l1,1Z" transform="translate(-748.61 -394.47)"/><path class="cls-9" d="M927.5,443c-.68-.84-1.35-1.69-2-2.53C926.15,441.31,926.82,442.16,927.5,443Z" transform="translate(-748.61 -394.47)"/><path class="cls-20" d="M913.49,489.5a9,9,0,0,1-1.78-1.13c-2.47-2.53-4.87-5.12-7.3-7.69.44-3.11,1.45-6.26-.53-9.23,1.31-3.17,4-4.94,6.78-6.57,3.34-1.93,3.32-1.95,1.41-5.4-.36-.64-.72-1.28-1.07-1.93l1-.11.51.13.57.45a8.41,8.41,0,0,0,1.05,2.31c3.25,3.6,6.57,7.12,9.87,10.67,0,3,0,6.06,0,9.09-2.29,2.19-4.46,4.53-6.93,6.49-1,.77-2.6.69-4.09,1C913.14,488.18,913.32,488.84,913.49,489.5Z" transform="translate(-748.61 -394.47)"/><path class="cls-21" d="M913.05,458l-.57-.45,1-.09Z" transform="translate(-748.61 -394.47)"/><path class="cls-18" d="M924,480.09c0-3,0-6.06,0-9.09l3.5,4-1.28-.3Z" transform="translate(-748.61 -394.47)"/><path class="cls-18" d="M927.45,475l1,.51Z" transform="translate(-748.61 -394.47)"/><path class="cls-20" d="M914.48,491l-.51-1Z" transform="translate(-748.61 -394.47)"/><path class="cls-18" d="M928.45,475.48l.54.54Z" transform="translate(-748.61 -394.47)"/><path class="cls-20" d="M914,490l-.54-.54Z" transform="translate(-748.61 -394.47)"/></svg>