<svg id="Layer_1" data-name="Layer 1" xmlns="http://www.w3.org/2000/svg" viewBox="0 0 620 351"><defs><style>.cls-1{fill:#fed976;}.cls-2{fill:#fed66b;}.cls-3{fill:#fedb7e;}.cls-4{fill:#196eb7;}.cls-5{fill:#1777be;}.cls-6{fill:#1286ca;}.cls-7{fill:#1580c5;}.cls-8{fill:#0b97da;}.cls-9{fill:#0e90d3;}.cls-10{fill:#07a0e1;}.cls-11{fill:#04abea;}.cls-12{fill:#2261aa;}.cls-13{fill:#05a8e8;}.cls-14{fill:#0c9fde;}.cls-15{fill:#2a4d98;}.cls-16{fill:#2d408e;}.cls-17{fill:#1b75ba;}.cls-18{fill:#1f60ab;}.cls-19{fill:#1395d4;}.cls-20{fill:#294a97;}.cls-21{fill:#2268ae;}.cls-22{fill:#26559f;}.cls-23{fill:#f3d276;}.cls-24{fill:#2556a1;}.cls-25{fill:#386ba3;}.cls-26{fill:#2352a0;}.cls-27{fill:#215ba7;}.cls-28{fill:#fcd772;}.cls-29{fill:#f9d776;}.cls-30{fill:#fbd673;}</style></defs><path class="cls-1" d="M829,364h226.52c-1.67,5.73.11,10.84,2.87,15.84l-1.24,1.7.71,0c.39,1.57,1.31,3.23,1,4.68-.57,3.29,1.81,5.52,2.76,8.13a19.29,19.29,0,0,1,1.38,5.21,8.31,8.31,0,0,0,.74,2.76c1,2.14,2.51,4.11,3.1,6.34s-.13,4.84,1.92,7.11c1.78,2,2.6,4.82,3.8,7.29.84,1.72,1.62,3.45,2.39,5.2.87,1.95,1.6,4,2.58,5.88s2.32,3.58,3.3,5.48c1.5,2.9,2.81,5.9,4.23,8.85.65,1.35,1.34,2.68,2,4a28.3,28.3,0,0,0,2.63,4.78c1.5,1.85,1.66,5,4.84,5.36.17,0,.23.74.41,1.1.88,1.87,1.68,3.78,2.71,5.56,1.57,2.71,4.36,4.37,5.71,7.48s4.74,5.15,6.56,8.48c1.92,3.53,6,5.85,8.29,9.23,1.25,1.8,2.08,3.51,4.3,4.12.19.05.19.62.4.86q2.86,3.21,5.79,6.38c.14.16.57.06.7.21,1.59,2,3.12,4,5.45,5.18,0,0,0,.15,0,.23a61.45,61.45,0,0,0,6.26,6.54,9,9,0,0,1,1.82,1.14c2.4,2.13,4.65,4.46,7.17,6.43,3.14,2.45,7.49,3.36,9.27,7.51.11.26.5.43.8.57a43.6,43.6,0,0,1,10,6.47,42.48,42.48,0,0,0,6.06,4.07,16.32,16.32,0,0,0,3.34,1.38c1.49.51,3.44.29,3.51,2.74,0,.42,1,1.1,1.6,1.16a7.39,7.39,0,0,1,5.2,2.46,9.92,9.92,0,0,0,3.11,2c3.22,1.6,6.73,2.77,9.68,4.77,4.13,2.81,9.61,2.79,13.16,6.64a1.09,1.09,0,0,0,.72.16,12.37,12.37,0,0,1,7.35,2.17c3,2,6.87,2.33,10.18,4.13,2.71,1.48,6,2,9,2.85,3.23.85,6.5,1.53,9.77,2.24,1.12.24,2.8-.11,3.34.54,2.24,2.72,5.71,1.38,8.42,2.85,1.54.83,3.83.68,5.31,2.25V715H1030.48a6.32,6.32,0,0,0-.46-1.14c-2.11-3.26-5.86-4.5-8.65-7-3.44-3-7.4-5.47-11.07-8.25-.89-.68-1.41-1.82-2.27-2.56-2.3-2-4.75-3.77-7-5.78-3.63-3.21-7.11-6.58-10.72-9.81-2.49-2.23-5.21-4.21-7.61-6.53Q971.35,663,960.21,651.9a30.35,30.35,0,0,1-5-5.8c-.79-1.32-1.38-2.14-2.9-2.1V633h6.06v-4.9H940.13a46.1,46.1,0,0,1-10.66-13.64c1,0,2-.13,2.95-.15L947,614c12.49.52,22.68-6.74,25.4-18.81a49.27,49.27,0,0,0,1-14.83c-1.51-17.3-12.69-24.22-26.9-24.42l-18.21-.22c-1.8,0-3.6,0-5.55,0v3q0,17.49,0,35c0,3.91-.09,7.82-.15,11.73a49.42,49.42,0,0,1-3.47-4c-1.12-1.62-1.64-3.8-3-5.07a26.47,26.47,0,0,1-7.19-11.2c-.19-.55-.89-.91-1.3-1.4-1.46-1.77-2.93-3.55-4.32-5.37a21.23,21.23,0,0,1-1.78-2.82c-1.51-2.77-3.31-5.45-4.34-8.39-.61-1.72-1.25-2.56-2.94-2.7v-8.6l-5.7-.32a69,69,0,0,0-2.4-6.92c-1.47-3.18-3.31-6.2-4.89-9.34-1.68-3.35-3.17-6.8-4.85-10.16s-3.56-6.48-5.11-9.83c-2-4.18-3.68-8.46-5.42-12.73a26.31,26.31,0,0,1-.84-3.34,10.73,10.73,0,0,0-.63-2.09c-1.6-3.3-3.43-6.51-4.84-9.89-1.63-3.92-2.94-8-4.32-12-.8-2.34-1.45-4.74-2.2-7.11-.4-1.29-.89-2.56-1.29-3.86-.92-2.91-1.83-5.82-2.7-8.74-.21-.7-.26-1.45-.45-2.16-.5-1.8-1-3.59-1.57-5.37-.28-.92-.67-1.8-.92-2.73-.43-1.58-.79-3.19-1.19-4.79-.21-.84-.37-1.71-.66-2.53a33.51,33.51,0,0,1-1.63-4.37c-.67-3.36-1.1-6.76-1.64-10.15a1.62,1.62,0,0,0-.33-.92c-1.77-1.7-1.68-3.87-1.64-6.05a6.21,6.21,0,0,0-.31-1.69c-.54-2-1.13-4-1.67-6a25.15,25.15,0,0,1-.6-2.6,23.18,23.18,0,0,1-.26-2.63,8.42,8.42,0,0,0,0-1.41c-.88-3.53-2-7-2.69-10.57-1-5.25-.82-10.64-2.29-15.92C829.77,374.61,829.65,369.23,829,364ZM925.9,467.74l-.52-.53-.82-.75-10-9.4a11.8,11.8,0,0,0,2.07-1.68,17.06,17.06,0,0,0,1.23-2.41,23.57,23.57,0,0,0-2.5-.27c-1.44,0-2.88.09-4.32.14-2.49-2.52-4.85-5.17-7.5-7.5-2.47-2.18-5.39-3.18-8.66-1.56a26.33,26.33,0,0,0-13.8,15,2.63,2.63,0,0,0,0,1.93,37.85,37.85,0,0,0,3.88,6.47,81,81,0,0,0,6.59,6.37c-.26,1.53-.59,3.06-.75,4.6a1.19,1.19,0,0,0,2.08,1.09,35.25,35.25,0,0,0,2.71-3l5.47,6.32,6.85,7.08L918.39,500c.11.11.19.27.33.35,3.3,1.88,5.48,1.33,9.75-2.42,3.33-3.53,6.87-6.9,9.94-10.64,2.09-2.57,1.79-5.48-.53-7.93-3.13-3.3-6.55-6.33-9.84-9.47l-.78-.84-.5-.5c-.17-.17-.35-.34-.52-.52A.65.65,0,0,0,925.9,467.74ZM932,414l0,0-.54-.55,0,0L931,413l0,0-.54-.55,0,0,0-.57-.56,0,0,0,0-.57-.56,0,0,0,0-.57-.56,0,0,0-.54-.55,0,0L928,410l0,0-.54-.55v.06c.45-.9.89-1.8,1.33-2.7l1.34-2.29c-.67-.16-1.5-.66-2-.43-3.36,1.64-5.47,0-7.38-2.5a14.34,14.34,0,0,0-1.78-1.7,41.41,41.41,0,0,0-3.37-3.26c-2.63-2-5.48-3.06-8.69-1.23a25.64,25.64,0,0,0-12.51,12.27,7.32,7.32,0,0,0,.89,8.4,37.48,37.48,0,0,0,5.1,5.43c2.53,2.13,4.48,4.19,2.69,7.78-.19.39.55,1.24.86,1.87l1.5-1.73-.05.05,2.54-.94,6,6,.12.19.5.51.5.5.5.5.5.5.83.8,3.41,3.49L931.46,452a3,3,0,0,0,.59.44c3.94,1.51,6.38-1.1,9-3.27a36.06,36.06,0,0,0,10-10.87,5.6,5.6,0,0,0-.66-7.12c-2.78-3.05-5.82-5.88-8.8-8.74-.35-.33-1.05-.29-1.58-.42l-2.55-2.55a8,8,0,0,0-5-5l0,0Zm40.21,77.57L956.57,476c-6.07-6.17-12.12-12.34-18.22-18.47-.36-.36-1.12-.32-1.7-.47.19.64.18,1.47.59,1.89,6,6.06,12.14,12.07,18.23,18.09L971,492.7l16.5,16.5q9.56,9.69,19.11,19.39c.17.17.35.42.56.47s.88.21,1.08,0a1.15,1.15,0,0,0,.21-1.09,7.54,7.54,0,0,0-1.28-1.49q-9.35-9.3-18.7-18.59ZM999,480c5,5,9.94,10,15,15,.46.45,1.35.48,2,.71-.2-.64-.2-1.46-.61-1.87-5.07-5-10.2-10-15.31-15-.61-.67-1.19-1.37-1.84-2q-8.57-8.43-17.15-16.84-11.25-11.3-22.54-22.56c-.39-.38-1.24-.28-1.88-.41.2.56.24,1.29.62,1.67q11.31,11.25,22.68,22.42ZM965.6,508.19c6.9,6.95,13.78,13.91,20.73,20.82.38.38,1.19.32,1.8.46-.18-.55-.19-1.27-.56-1.64-6.78-6.83-13.61-13.62-20.42-20.41-7.08-7.14-14.16-14.3-21.28-21.4-.41-.41-1.22-.41-1.85-.61.17.62.15,1.44.55,1.84Q955,497.77,965.6,508.19Zm12.89,119.6c-8.07.3-13.16,5.65-13.07,13.78s5.23,13.72,13.06,13.85c8.63.43,14.67-5.36,14.54-14S986.79,627.08,978.49,627.79Zm151-27.31a19.23,19.23,0,0,1-16.7-.65c-10.25-7-8.79-27,2.21-30.91a6.35,6.35,0,0,0,1-.17c6.61-2,14-.44,17.86,6.54.1.18.38.26.62.41l12.73-6.85c-5.21-10.18-18.84-15.78-32.18-13.28a27.19,27.19,0,0,0-18,10.2c-5.79,7.21-6.93,15.67-6,24.55,1.28,11.62,10,21.44,20.93,23.63,6.09,1.5,12.13,1.8,18.07-.66l7.52-4.7c.09,1.84.18,3.68.27,5.49h11.55V581.37h-27.53v11.91h13.29C1134.34,596.81,1132,598.75,1129.48,600.48ZM1058,555.91c-2.16-.06-4.32,0-6.47-.21-1.65-.14-2.29.59-2.82,2-3.19,8.9-6.46,17.76-9.74,26.62q-5.22,14.11-10.49,28.21l-17.22-24.09c7.38-2.17,11.14-6.35,11.69-12.58.74-8.25-2.25-14.7-8.37-17.76-4.76-2.38-9.88-2.68-15.09-2.23H981.21V614.1h15.24V589.77l2.45,3.39c4,6.69,8,13.39,12.12,20a2.41,2.41,0,0,0,1.75,1c5.23,0,10.47-.07,15.7-.13,4.56,0,9.12.16,13.67.07.61,0,1.48-.9,1.76-1.57,1-2.45,1.82-5,2.61-7.49a2,2,0,0,1,2.27-1.63c3.07.08,6.14,0,9.2-.05,3.41,0,6.83.15,10.23,0,1.67-.05,2.53.35,3,2.07.83,2.93,2,5.77,3,8.5h15.35c-7-19.11-14-38-21-56.79a2.64,2.64,0,0,0-1.86-1.43C1063.82,555.71,1060.91,555.86,1058,555.91Zm-16,85.33a74.15,74.15,0,0,0,2,8.88c1.26,3.51,4,5.32,7.88,5.42,4.05.1,7-1.51,8.57-5.2a22.79,22.79,0,0,0,0-17.52c-1.39-3.55-4.37-5.19-8.09-5.21s-6.94,1.56-8.32,5.23A66.82,66.82,0,0,0,1042,641.24Zm27.38-.12a67.52,67.52,0,0,0,1.52,8.08c1.37,4.37,4.2,6.29,8.52,6.3s7.35-2,8.8-6.31a23.78,23.78,0,0,0-.11-15.45,9.05,9.05,0,0,0-17.08-.22A62.32,62.32,0,0,0,1069.34,641.12ZM1024,633.63V654.9h5.22V628.14c-7.23-.6-12.57,4.6-11.1,10.88ZM923.9,505.32l-.39.61a6.84,6.84,0,0,0,.86,1.38Q935,518,945.76,528.66c.38.38,1.21.31,1.83.45-.22-.62-.27-1.42-.69-1.84q-10.46-10.56-21-21A6.7,6.7,0,0,0,923.9,505.32Zm42.61-49.72c-.82-2.56-1.74-2.69-3-.21Zm10.18,72.12c-1.1-1.75-2-1.7-2.83,0C974.76,529.32,975.67,529.57,976.69,527.72Z" transform="translate(-650 -364)"/><path class="cls-2" d="M952.34,644c1.52,0,2.11.78,2.9,2.1a30.35,30.35,0,0,0,5,5.8Q971.37,663,982.69,674c2.4,2.32,5.12,4.3,7.61,6.53,3.61,3.23,7.09,6.6,10.72,9.81,2.26,2,4.71,3.8,7,5.78.86.74,1.38,1.88,2.27,2.56,3.67,2.78,7.63,5.21,11.07,8.25,2.79,2.47,6.54,3.71,8.65,7a6.32,6.32,0,0,1,.46,1.14H650V364H829c.69,5.23.81,10.61,2.22,15.64,1.47,5.28,1.25,10.67,2.29,15.92.71,3.56,1.81,7,2.69,10.57a8.42,8.42,0,0,1,0,1.41,23.18,23.18,0,0,0,.26,2.63,25.15,25.15,0,0,0,.6,2.6c.54,2,1.13,4,1.67,6a6.21,6.21,0,0,1,.31,1.69c0,2.18-.13,4.35,1.64,6.05a1.62,1.62,0,0,1,.33.92c.54,3.39,1,6.79,1.64,10.15a33.51,33.51,0,0,0,1.63,4.37c.29.82.45,1.69.66,2.53.4,1.6.76,3.21,1.19,4.79.25.93.64,1.81.92,2.73.54,1.78,1.07,3.57,1.57,5.37.19.71.24,1.46.45,2.16.87,2.92,1.78,5.83,2.7,8.74.4,1.3.89,2.57,1.29,3.86.75,2.37,1.4,4.77,2.2,7.11,1.38,4,2.69,8.08,4.32,12,1.41,3.38,3.24,6.59,4.84,9.89a10.73,10.73,0,0,1,.63,2.09,26.31,26.31,0,0,0,.84,3.34c1.74,4.27,3.47,8.55,5.42,12.73,1.55,3.35,3.46,6.53,5.11,9.83s3.17,6.81,4.85,10.16c1.58,3.14,3.42,6.16,4.89,9.34a69,69,0,0,1,2.4,6.92l-11,.33H858.69v58.18h35.17v-13H876.47l-2.73-.27c0-2.7.07-5.19,0-7.68-.06-1.38.6-1.73,1.76-1.71h16.28V578.58H875.47c-.58-.4-1.62-.78-1.64-1.22-.16-2.7-.08-5.42-.08-8.25l3.72-.19H894c.08-1.63.14-3,.21-4.42,1.69.14,2.33,1,2.94,2.7,1,2.94,2.83,5.62,4.34,8.39a21.23,21.23,0,0,0,1.78,2.82c1.39,1.82,2.86,3.6,4.32,5.37.41.49,1.11.85,1.3,1.4a26.47,26.47,0,0,0,7.19,11.2c1.4,1.27,1.92,3.45,3,5.07a49.42,49.42,0,0,0,3.47,4v8.92h6.92a46.1,46.1,0,0,0,10.66,13.64v4.82l3.84.21,2.49,2.91v19h5.88Zm-46.87,11.42c2.22-.51,4.63-.65,6.64-1.62,5.54-2.67,8-9,6.47-15.81-1.44-6.41-5.92-9.91-13.12-10.28-8.76-.05-14.26,5.46-14.08,14.11S897.21,655.79,905.47,655.42Zm-84-64h11v22.65h14.9V555.88h-15v22.65H810.71V555.88h-15v58.18h15.14V591.42Zm-31.59-22.35V555.88H748.61v13.17h13.1v45h15.06v-45Zm86.84,74c4.55-2.17,5.95-4.28,5.49-7.94-.49-3.89-2.59-6.53-6.38-6.9s-7.91-.08-11.93-.08v26.79h5.55V643.48l.7-.41a11.34,11.34,0,0,1,1.79,1.81c1.79,2.89,3.47,5.86,5.26,8.76.35.57,1,1.31,1.54,1.36,1.83.18,3.69.07,5.92.07C881.84,650.81,879.33,647,876.71,643.07Zm-55.37-10.16c-.75,1.15-1.16,1.84-1.63,2.48-3.23,4.45-6.37,9-9.74,13.28a7,7,0,0,0-1.18,6.22h19.45V650h-12.8c3.8-5.25,7.2-10.18,10.86-14.89a8,8,0,0,0,1.58-6.94H808.72v4.73Zm32.09,17h-9.79v-6h8.66v-4.9h-8.65V633h9.71v-4.81H838.07v26.78h15.36Z" transform="translate(-650 -364)"/><path class="cls-3" d="M1270,582.5c-1.48-1.57-3.77-1.42-5.31-2.25-2.71-1.47-6.18-.13-8.42-2.85-.54-.65-2.22-.3-3.34-.54-3.27-.71-6.54-1.39-9.77-2.24-3.05-.81-6.3-1.37-9-2.85-3.31-1.8-7.22-2.12-10.18-4.13a12.37,12.37,0,0,0-7.35-2.17,1.09,1.09,0,0,1-.72-.16c-3.55-3.85-9-3.83-13.16-6.64-3-2-6.46-3.17-9.68-4.77a9.92,9.92,0,0,1-3.11-2,7.39,7.39,0,0,0-5.2-2.46c-.59-.06-1.58-.74-1.6-1.16-.07-2.45-2-2.23-3.51-2.74a16.32,16.32,0,0,1-3.34-1.38,42.48,42.48,0,0,1-6.06-4.07,43.6,43.6,0,0,0-10-6.47c-.3-.14-.69-.31-.8-.57-1.78-4.15-6.13-5.06-9.27-7.51-2.52-2-4.77-4.3-7.17-6.43a9,9,0,0,0-1.82-1.14,61.45,61.45,0,0,1-6.26-6.54c0-.08,0-.21,0-.23-2.33-1.19-3.86-3.21-5.45-5.18-.13-.15-.56-.05-.7-.21q-2.93-3.17-5.79-6.38c-.21-.24-.21-.81-.4-.86-2.22-.61-3-2.32-4.3-4.12-2.34-3.38-6.37-5.7-8.29-9.23-1.82-3.33-5.18-5.27-6.56-8.48s-4.14-4.77-5.71-7.48c-1-1.78-1.83-3.69-2.71-5.56-.18-.36-.24-1.08-.41-1.1-3.18-.38-3.34-3.51-4.84-5.36a28.3,28.3,0,0,1-2.63-4.78c-.7-1.33-1.39-2.66-2-4-1.42-2.95-2.73-5.95-4.23-8.85-1-1.9-2.32-3.6-3.3-5.48s-1.71-3.93-2.58-5.88c-.77-1.75-1.55-3.48-2.39-5.2-1.2-2.47-2-5.32-3.8-7.29-2-2.27-1.29-4.76-1.92-7.11s-2.1-4.2-3.1-6.34a8.31,8.31,0,0,1-.74-2.76,19.29,19.29,0,0,0-1.38-5.21c-1-2.61-3.33-4.84-2.76-8.13.26-1.45-.66-3.11-1-4.68l-.71,0,1.24-1.7c-2.76-5-4.54-10.11-2.87-15.84H1270Z" transform="translate(-650 -364)"/><path class="cls-4" d="M929.47,614.42h-6.92V605.5c.06-3.91.14-7.82.15-11.73q0-17.49,0-35v-3c1.95,0,3.75,0,5.55,0l18.21.22q.25,6.52.5,13.06h-8.89v32h8.39q.25,6.51.5,13l-14.55.25C931.44,614.29,930.46,614.37,929.47,614.42Z" transform="translate(-650 -364)"/><path class="cls-5" d="M947,614q-.24-6.51-.5-13c6.38-.85,10.14-4.59,10.78-10.86a50.83,50.83,0,0,0-.39-12.07,9.71,9.71,0,0,0-6.16-7.88c-1.21-.49-2.48-.79-3.73-1.18q-.24-6.53-.5-13.06c14.21.2,25.39,7.12,26.9,24.42a49.27,49.27,0,0,1-1,14.83C969.65,607.28,959.46,614.54,947,614Z" transform="translate(-650 -364)"/><path class="cls-6" d="M1028.47,614.09c-5.23.06-10.47.15-15.7.13a2.41,2.41,0,0,1-1.75-1c-4.08-6.65-8.09-13.35-12.12-20q.29-6.57.58-13.13c1.48-.15,3-.24,4.44-.47a5.6,5.6,0,0,0,.23-11c-1.37-.28-2.78-.38-4.17-.56q-.24-6-.49-12.06c5.21-.45,10.33-.15,15.09,2.23,6.12,3.06,9.11,9.51,8.37,17.76-.55,6.23-4.31,10.41-11.69,12.58l17.22,24.09C1028.48,613.08,1028.47,613.58,1028.47,614.09Z" transform="translate(-650 -364)"/><path class="cls-7" d="M999.49,555.91q.25,6,.49,12.06l-3.39.25v11.59l2.89.22q-.29,6.57-.58,13.13l-2.45-3.39V614.1H981.21V555.91Z" transform="translate(-650 -364)"/><path class="cls-8" d="M1058,555.91c2.91,0,5.82-.2,8.72-.1a2.64,2.64,0,0,1,1.86,1.43c7,18.83,13.92,37.68,21,56.79h-15.35c-1-2.73-2.12-5.57-3-8.5-.49-1.72-1.35-2.12-3-2.07-3.4.11-6.82,0-10.23,0V591.08h8.24c-2.65-7.39-5.14-14.37-7.64-21.36a18.89,18.89,0,0,1-.57-3.13C1057.94,563,1058,559.47,1058,555.91Z" transform="translate(-650 -364)"/><path class="cls-9" d="M1058,591.08v12.34c-3.06,0-6.13.13-9.2.05a2,2,0,0,0-2.27,1.63c-.79,2.52-1.63,5-2.61,7.49-.28.67-1.15,1.56-1.76,1.57-4.55.09-9.11,0-13.67-.07,0-.51,0-1,0-1.52q5.25-14.1,10.49-28.21c3.28-8.86,6.55-17.72,9.74-26.62.53-1.45,1.17-2.18,2.82-2,2.15.19,4.31.15,6.47.21,0,3.56-.06,7.12,0,10.68a18.89,18.89,0,0,0,.57,3.13c-2.31,7-4.62,14-7,21.36Z" transform="translate(-650 -364)"/><path class="cls-10" d="M1112,614c-10.9-2.19-19.65-12-20.93-23.63-1-8.88.16-17.34,6-24.55a27.19,27.19,0,0,1,18-10.2v13.35c-11,4-12.46,23.88-2.21,30.91a11.41,11.41,0,0,0-.76,2.72C1111.94,606.35,1112,610.15,1112,614Z" transform="translate(-650 -364)"/><path class="cls-11" d="M1129.48,600.48c2.56-1.73,4.86-3.67,5.68-7.2h-13.29V581.37h27.53v32.71h-11.55c-.09-1.81-.18-3.65-.27-5.49l-7.52,4.7Z" transform="translate(-650 -364)"/><path class="cls-12" d="M928.8,406.83c-.44.9-.88,1.8-1.33,2.7h-2.33l-.37,1c4.47,4.6,9,9.19,13.39,13.82A6.51,6.51,0,0,1,939,426c-.38.38-1,.72-1.08,1.15-.76,5.13-6.35,10.94-11.44,11.55-1.52.18-1.27.84-1,1.77a5.4,5.4,0,0,1-1.57-.73c-3.77-3.68-7.49-7.4-11.23-11.11.26-.65.52-1.3.79-1.95,2.84-4.8,6-9.23,11.38-11.64.4-.18.47-1.71.26-2.5a34.13,34.13,0,0,0-1.65-4.08,5.82,5.82,0,0,0,2.07-.19,22.91,22.91,0,0,0,2.79-2Z" transform="translate(-650 -364)"/><path class="cls-13" d="M1115,568.92V555.57c13.34-2.5,27,3.1,32.18,13.28l-12.73,6.85c-.24-.15-.52-.23-.62-.41-3.83-7-11.25-8.59-17.86-6.54A6.35,6.35,0,0,1,1115,568.92Z" transform="translate(-650 -364)"/><path class="cls-14" d="M1042,641.24a66.82,66.82,0,0,1,2-8.4c1.38-3.67,4.51-5.25,8.32-5.23s6.7,1.66,8.09,5.21a22.79,22.79,0,0,1,0,17.52c-1.53,3.69-4.52,5.3-8.57,5.2-3.89-.1-6.62-1.91-7.88-5.42A74.15,74.15,0,0,1,1042,641.24Zm5.6.17c.41,2.28.66,4.43,1.22,6.49.43,1.63,1.67,3,3.44,2.55a5.18,5.18,0,0,0,3.28-2.43,17.37,17.37,0,0,0-.1-13.1,4.12,4.12,0,0,0-3.1-2.23A4.55,4.55,0,0,0,1049,635C1048.13,637,1048,639.3,1047.56,641.41Z" transform="translate(-650 -364)"/><path class="cls-13" d="M1069.34,641.12a62.32,62.32,0,0,1,1.65-7.6,9.05,9.05,0,0,1,17.08.22,23.78,23.78,0,0,1,.11,15.45c-1.45,4.36-4.36,6.33-8.8,6.31s-7.15-1.93-8.52-6.3A67.52,67.52,0,0,1,1069.34,641.12Zm14.88.72c-.43-2.24-.53-4.57-1.39-6.57a4.85,4.85,0,0,0-3.39-2.56,4.37,4.37,0,0,0-3.26,2.4,17.45,17.45,0,0,0,0,12.89,5.19,5.19,0,0,0,3.28,2.45c1.77.46,3-.89,3.48-2.51C1083.5,646,1083.79,643.91,1084.22,641.84Z" transform="translate(-650 -364)"/><path class="cls-15" d="M913.48,426.7c-.27.65-.53,1.3-.79,1.95L909,425.87l-1,1.62v1.06l-2.54.94c.86-1.36,1.72-2.72,2.65-4.21L905,423.1c-.35,2.56-.65,4.76-1,7.14l1.48-.8-1.5,1.73c-.31-.63-1.05-1.48-.86-1.87,1.79-3.59-.16-5.65-2.69-7.78a37.48,37.48,0,0,1-5.1-5.43,7.32,7.32,0,0,1-.89-8.4A25.64,25.64,0,0,1,907,395.42c0,4.89,0,9.79.06,14.68a10.66,10.66,0,0,0,.92,2.89,37.66,37.66,0,0,0-2.71,6,4.19,4.19,0,0,0,1,3.64A60.06,60.06,0,0,0,913.48,426.7Z" transform="translate(-650 -364)"/><path class="cls-16" d="M891.56,473.51a81,81,0,0,1-6.59-6.37,37.85,37.85,0,0,1-3.88-6.47,2.63,2.63,0,0,1,0-1.93,26.33,26.33,0,0,1,13.8-15c0,4.57,0,9.14.08,13.71a36.53,36.53,0,0,0,.54,4.15,33.42,33.42,0,0,0-1.88,3.67c-.7,1.86-1.81,3.77-.19,5.73l0,.87-1.17,1.59Z" transform="translate(-650 -364)"/><path class="cls-13" d="M1129.48,600.48l.58,12.81c-5.94,2.46-12,2.16-18.07.66,0-3.8,0-7.6,0-11.4a11.41,11.41,0,0,1,.76-2.72A19.23,19.23,0,0,0,1129.48,600.48Z" transform="translate(-650 -364)"/><path class="cls-17" d="M944,633.09l-3.84-.21v-4.82H958.4V633h-6.06v22h-5.88V633.09Z" transform="translate(-650 -364)"/><path class="cls-18" d="M877.47,555.91l11-.33,5.7.32v8.6c-.07,1.39-.13,2.79-.21,4.42H877.47Z" transform="translate(-650 -364)"/><path class="cls-6" d="M978.49,627.79c8.3-.71,14.4,5,14.53,13.67s-5.91,14.39-14.54,14c.17-1.64.33-3.27.5-4.91,6.12-1,8.76-4,8.48-9.46-.26-5-3.33-7.84-9-8.18Z" transform="translate(-650 -364)"/><path class="cls-7" d="M979,650.51c-.17,1.64-.33,3.27-.5,4.91-7.83-.13-13-5.58-13.06-13.85s5-13.48,13.07-13.78c0,1.7,0,3.39,0,5.08-3.48.54-6,2.29-7.05,5.75C969.57,644.51,972.47,649.08,979,650.51Z" transform="translate(-650 -364)"/><path class="cls-19" d="M1024,633.63l-5.88,5.39c-1.47-6.28,3.87-11.48,11.1-10.88V654.9H1024Z" transform="translate(-650 -364)"/><path class="cls-20" d="M895.53,461.64a36.53,36.53,0,0,1-.54-4.15c-.08-4.57-.06-9.14-.08-13.71,3.27-1.62,6.19-.62,8.66,1.56,2.65,2.33,5,5,7.5,7.5-.21.47-.41.93-.61,1.4l-.52,1.73c-1.41-1.71-3.09-1.75-5.09-1.1C901,456.13,898.18,458.76,895.53,461.64Z" transform="translate(-650 -364)"/><path class="cls-21" d="M928,469.93c3.29,3.14,6.71,6.17,9.84,9.47,2.32,2.45,2.62,5.36.53,7.93-3.07,3.74-6.61,7.11-9.94,10.64-.17-2.2-.31-4.41-.5-6.61-.11-1.29-.3-2.57-.45-3.85.24-.34.45-.69.71-1,4-5.1,4-5.1.6-10.33,0,0,.09-.13.13-.2l2.74,1.17.44-.47-4.56-6.27Z" transform="translate(-650 -364)"/><path class="cls-4" d="M940,422c.53.13,1.23.09,1.58.42,3,2.86,6,5.69,8.8,8.74a5.6,5.6,0,0,1,.66,7.12,36.06,36.06,0,0,1-10,10.87c-.19-2.38-.34-4.78-.58-7.16a29.71,29.71,0,0,0-.6-3.07c.86-1.22,1.71-2.45,2.59-3.65,1.49-2,1.85-4.05,0-6.11-.12-.13,0-.48,0-.72h2.18Z" transform="translate(-650 -364)"/><path class="cls-22" d="M907.93,413a10.66,10.66,0,0,1-.92-2.89c-.1-4.89,0-9.79-.06-14.68,3.21-1.83,6.06-.8,8.69,1.23a41.41,41.41,0,0,1,3.37,3.26l-.54,6A20.58,20.58,0,0,0,907.93,413Z" transform="translate(-650 -364)"/><path class="cls-21" d="M939.85,439a29.71,29.71,0,0,1,.6,3.07c.24,2.38.39,4.78.58,7.16-2.6,2.17-5,4.78-9,3.27a3,3,0,0,1-.59-.44v-7.25Z" transform="translate(-650 -364)"/><path class="cls-12" d="M927.52,487.51c.15,1.28.34,2.56.45,3.85.19,2.2.33,4.41.5,6.61-4.27,3.75-6.45,4.3-9.75,2.42-.14-.08-.22-.24-.33-.35.36-.66,1-1.29,1-2,.14-1.57,0-3.15,0-4.73Z" transform="translate(-650 -364)"/><path class="cls-21" d="M923.9,505.32a6.7,6.7,0,0,1,2,.93q10.57,10.46,21,21c.42.42.47,1.22.69,1.84-.62-.14-1.45-.07-1.83-.45Q935,518,924.37,507.31a6.84,6.84,0,0,1-.86-1.38Z" transform="translate(-650 -364)"/><path class="cls-23" d="M940,422l4.67,6.44h-2.18v0l-1-.52,0,0-1.42-1.84L939,426H939a6.51,6.51,0,0,0-.85-1.71c-4.44-4.63-8.92-9.22-13.39-13.82l.37-1h2.33v-.06l.54.55,0,0,.54.55,0,0,.54.55,0,0,.54.55,0,0,.54.55,0,0,.54.55,0,0,.54.55,0,0,.54.55,0,0,.54.55,0,0,.54.55,0,0,5,5Z" transform="translate(-650 -364)"/><path class="cls-17" d="M965.6,508.19q-10.53-10.45-21-20.94c-.4-.4-.38-1.22-.55-1.84.63.2,1.44.2,1.85.61,7.12,7.1,14.2,14.26,21.28,21.4Z" transform="translate(-650 -364)"/><path class="cls-6" d="M979.94,461.09q-11.34-11.2-22.68-22.42c-.38-.38-.42-1.11-.62-1.67.64.13,1.49,0,1.88.41q11.33,11.23,22.54,22.56C980.69,460.34,980.32,460.72,979.94,461.09Z" transform="translate(-650 -364)"/><path class="cls-14" d="M988.5,507.93q9.36,9.29,18.7,18.59a7.54,7.54,0,0,1,1.28,1.49,1.15,1.15,0,0,1-.21,1.09c-.2.17-.72,0-1.08,0s-.39-.3-.56-.47q-9.57-9.69-19.11-19.39Z" transform="translate(-650 -364)"/><path class="cls-19" d="M965.6,508.19l1.55-.77c6.81,6.79,13.64,13.58,20.42,20.41.37.37.38,1.09.56,1.64-.61-.14-1.42-.08-1.8-.46C979.38,522.1,972.5,515.14,965.6,508.19Z" transform="translate(-650 -364)"/><path class="cls-17" d="M955.47,477c-6.09-6-12.19-12-18.23-18.09-.41-.42-.4-1.25-.59-1.89.58.15,1.34.11,1.7.47,6.1,6.13,12.15,12.3,18.22,18.47Z" transform="translate(-650 -364)"/><path class="cls-8" d="M979.94,461.09c.38-.37.75-.75,1.12-1.12q8.58,8.41,17.15,16.84c.65.64,1.23,1.34,1.84,2-.36.4-.73.79-1.09,1.18Z" transform="translate(-650 -364)"/><path class="cls-14" d="M999,480c.36-.39.73-.78,1.09-1.18,5.11,5,10.24,10,15.31,15,.41.41.41,1.23.61,1.87-.69-.23-1.58-.26-2-.71C1008.9,490,1003.94,485,999,480Z" transform="translate(-650 -364)"/><path class="cls-24" d="M919.43,493.35c0,1.58.13,3.16,0,4.73-.06.67-.67,1.3-1,2l-10.47-10.48.48-.55,6.6,4.91.46-.55-1-2.38Z" transform="translate(-650 -364)"/><path class="cls-9" d="M988.5,507.93l-1,1.27L971,492.7l1.15-1.16Z" transform="translate(-650 -364)"/><path class="cls-12" d="M931.47,444.77V452L920.3,441.07l.75-.1c2,1.42,3.45,3.86,6.33,4,0-.78.06-1.36.09-1.95Z" transform="translate(-650 -364)"/><path class="cls-7" d="M972.17,491.54,971,492.7,955.47,477l1.1-1Z" transform="translate(-650 -364)"/><path class="cls-25" d="M910.46,454.24c.2-.47.4-.93.61-1.4,1.44,0,2.88-.15,4.32-.14a23.57,23.57,0,0,1,2.5.27,17.06,17.06,0,0,1-1.23,2.41,11.8,11.8,0,0,1-2.07,1.68l10,9.4L924,467c-2.78-2.68-5.54-5.39-8.35-8a14.52,14.52,0,0,0-2.18-1.41c.83-1.14,1.67-2.27,2.66-3.62Zm5.7.06.59-.38c-.1-.12-.23-.34-.29-.32a2.51,2.51,0,0,0-.61.31Z" transform="translate(-650 -364)"/><path class="cls-12" d="M918.47,405.9l.54-6a14.34,14.34,0,0,1,1.78,1.7c1.91,2.49,4,4.14,7.38,2.5.47-.23,1.3.27,2,.43l-1.34,2.29-.47-.49,1.16-1.52c-1.88.34-3.42,1-4.78.76-2-.36-2.14.55-2.24,1.94Z" transform="translate(-650 -364)"/><path class="cls-15" d="M891.56,473.51h.76c-.13,1.64-.27,3.28-.45,5.49l4-4.61.49.46c.19.76.15,1.7.6,2.24,1.44,1.71,3.05,3.28,4.59,4.9l-.43.5-5.47-6.32a35.25,35.25,0,0,1-2.71,3,1.19,1.19,0,0,1-2.08-1.09C891,476.57,891.3,475,891.56,473.51Z" transform="translate(-650 -364)"/><path class="cls-25" d="M901.07,482.48l.43-.5,6.9,7-.48.55Z" transform="translate(-650 -364)"/><path class="cls-25" d="M908,428.55c0-.35,0-.7,0-1.06l6.35,6.52-.39.57Z" transform="translate(-650 -364)"/><path class="cls-12" d="M937.44,419.49l-5-5A8,8,0,0,1,937.44,419.49Z" transform="translate(-650 -364)"/><path class="cls-7" d="M966.51,455.6l-3-.21C964.77,452.91,965.69,453,966.51,455.6Z" transform="translate(-650 -364)"/><path class="cls-19" d="M976.69,527.72c-1,1.85-1.93,1.6-2.83,0C974.69,526,975.59,526,976.69,527.72Z" transform="translate(-650 -364)"/><path class="cls-24" d="M921.05,441l-.75.1-3.41-3.49.46-.48Z" transform="translate(-650 -364)"/><path class="cls-21" d="M924,467l.57-.49.82.75-.56.46Z" transform="translate(-650 -364)"/><path class="cls-24" d="M916.89,437.58l-.83-.8.52-.39.77.71Z" transform="translate(-650 -364)"/><path class="cls-21" d="M927.26,469.09l.78.84-.46.47-.72-.78Z" transform="translate(-650 -364)"/><path class="cls-24" d="M916.06,436.78l-.5-.5.52-.39.5.5Z" transform="translate(-650 -364)"/><path class="cls-24" d="M915.56,436.28l-.5-.5.52-.39.5.5Z" transform="translate(-650 -364)"/><path class="cls-24" d="M915.06,435.78l-.5-.5.52-.39.5.5Z" transform="translate(-650 -364)"/><path class="cls-24" d="M914.56,435.28l-.5-.51.52-.37.5.49Z" transform="translate(-650 -364)"/><path class="cls-24" d="M913.94,434.58l.39-.57a.46.46,0,0,1,.25.39l-.52.37Z" transform="translate(-650 -364)"/><path class="cls-12" d="M929,411l-.54-.55Z" transform="translate(-650 -364)"/><path class="cls-12" d="M928.5,410.52,928,410Z" transform="translate(-650 -364)"/><path class="cls-12" d="M928,410l-.54-.55Z" transform="translate(-650 -364)"/><path class="cls-12" d="M930,412l-.54-.55.56,0Z" transform="translate(-650 -364)"/><path class="cls-12" d="M930.5,412.52,930,412l.56,0Z" transform="translate(-650 -364)"/><path class="cls-12" d="M931,413l-.54-.55Z" transform="translate(-650 -364)"/><path class="cls-12" d="M931.5,413.52,931,413Z" transform="translate(-650 -364)"/><path class="cls-21" d="M926.76,468.59l.5.5c-.14.17-.27.35-.4.53l-.5-.51Z" transform="translate(-650 -364)"/><path class="cls-21" d="M926.24,468.07c.17.18.35.35.52.52l-.4.52-.5-.5Z" transform="translate(-650 -364)"/><path class="cls-12" d="M932,414l-.54-.55Z" transform="translate(-650 -364)"/><path class="cls-21" d="M925.38,467.21l.52.53-.54.37-.54-.44Z" transform="translate(-650 -364)"/><path class="cls-12" d="M929.5,411.52,929,411l.56,0Z" transform="translate(-650 -364)"/><path class="cls-12" d="M932.5,414.52,932,414Z" transform="translate(-650 -364)"/><path class="cls-21" d="M925.9,467.74a.65.65,0,0,1,.34.33l-.38.54-.5-.5Z" transform="translate(-650 -364)"/><path class="cls-16" d="M789.87,569.07h-13.1v45H761.71v-45h-13.1V555.88h41.26Z" transform="translate(-650 -364)"/><path class="cls-20" d="M821.46,591.42H810.83v22.64H795.69V555.88h15v22.65h10.75Z" transform="translate(-650 -364)"/><path class="cls-26" d="M821.46,591.42V578.53h10.9V555.88h15v58.19h-14.9V591.42Z" transform="translate(-650 -364)"/><path class="cls-27" d="M877.47,555.91v13l-3.72.19c0,2.83-.08,5.55.08,8.25,0,.44,1.06.82,1.64,1.22v12.84c-1.16,0-1.82.33-1.76,1.71.1,2.49,0,5,0,7.68l2.73.27v13H858.69V555.91Z" transform="translate(-650 -364)"/><path class="cls-22" d="M876.71,643.07c2.62,3.95,5.13,7.74,7.94,12-2.23,0-4.09.11-5.92-.07-.56,0-1.19-.79-1.54-1.36-1.79-2.9-3.47-5.87-5.26-8.76a11.34,11.34,0,0,0-1.79-1.81l-.7.41v11.46h-5.55V628.15c4,0,8-.3,11.93.08s5.89,3,6.38,6.9C882.66,638.79,881.26,640.9,876.71,643.07Zm-7.09-10.24v7a52.08,52.08,0,0,0,6.79-2.48c.41-.2.41-2.37-.13-3.08C874.57,632,872,632.86,869.62,632.83Z" transform="translate(-650 -364)"/><path class="cls-16" d="M821.34,632.91H808.72v-4.73h19.16a8,8,0,0,1-1.58,6.94c-3.66,4.71-7.06,9.64-10.86,14.89h12.8v4.88H808.79a7,7,0,0,1,1.18-6.22c3.37-4.33,6.51-8.83,9.74-13.28C820.18,634.75,820.59,634.06,821.34,632.91Z" transform="translate(-650 -364)"/><path class="cls-20" d="M853.43,650v5H838.07V628.16h15.29V633h-9.71v6.08h8.65V644h-8.66v6Z" transform="translate(-650 -364)"/><path class="cls-12" d="M876.47,614.09v-13h17.39v13Z" transform="translate(-650 -364)"/><path class="cls-18" d="M875.47,591.42V578.58h16.28v12.84Z" transform="translate(-650 -364)"/><path class="cls-12" d="M905.47,655.42c-8.26.37-13.9-5.08-14.09-13.6s5.32-14.16,14.08-14.11c0,1.71,0,3.42,0,5.13-5.67.58-8.57,3.63-8.5,8.94s2.63,7.88,8.5,8.72Z" transform="translate(-650 -364)"/><path class="cls-21" d="M905.47,655.42V650.5c3.41-.67,6.35-1.92,7.48-5.64,1.85-6-1.17-10.92-7.48-12,0-1.71,0-3.42,0-5.13,7.2.37,11.68,3.87,13.12,10.28,1.52,6.79-.93,13.14-6.47,15.81C910.1,654.77,907.69,654.91,905.47,655.42Z" transform="translate(-650 -364)"/><path class="cls-1" d="M944,633.09h2.49V636Z" transform="translate(-650 -364)"/><path class="cls-28" d="M947,569c1.25.39,2.52.69,3.73,1.18a9.71,9.71,0,0,1,6.16,7.88,50.83,50.83,0,0,1,.39,12.07c-.64,6.27-4.4,10-10.78,10.86h-8.39V569Z" transform="translate(-650 -364)"/><path class="cls-29" d="M999.48,580l-2.89-.22V568.22L1000,568c1.39.18,2.8.28,4.17.56a5.6,5.6,0,0,1-.23,11C1002.45,579.79,1001,579.88,999.48,580Z" transform="translate(-650 -364)"/><path class="cls-29" d="M1058,591.08h-6.43c2.41-7.31,4.72-14.33,7-21.36,2.5,7,5,14,7.64,21.36Z" transform="translate(-650 -364)"/><path class="cls-30" d="M918.47,405.9l4,1.62,0,0,1,1v0a34.13,34.13,0,0,1,1.65,4.08c.21.79.14,2.32-.26,2.5-5.34,2.41-8.54,6.84-11.38,11.64a60.06,60.06,0,0,1-7.25-4,4.19,4.19,0,0,1-1-3.64,37.66,37.66,0,0,1,2.71-6A20.58,20.58,0,0,1,918.47,405.9Z" transform="translate(-650 -364)"/><path class="cls-29" d="M931.47,444.77l-4-1.79,0,0c-.68-.84-1.35-1.69-2-2.53v0c-.27-.93-.52-1.59,1-1.77,5.09-.61,10.68-6.42,11.44-11.55.06-.43.7-.77,1.08-1.15H939l1,1,1.51,1,0,0,1,.52v0c0,.24-.13.59,0,.72,1.82,2.06,1.46,4.07,0,6.11-.88,1.2-1.73,2.43-2.59,3.65Z" transform="translate(-650 -364)"/><path class="cls-23" d="M914.58,434.4a.46.46,0,0,0-.25-.39L908,427.49l1-1.62,3.74,2.78c3.74,3.71,7.46,7.43,11.23,11.11a5.4,5.4,0,0,0,1.57.73v0c.67.84,1.34,1.69,2,2.53l0,0c0,.59-.05,1.17-.09,1.95-2.88-.1-4.3-2.54-6.33-4l-3.7-3.87-.77-.71-.5-.5-.5-.5-.5-.5Z" transform="translate(-650 -364)"/><path class="cls-23" d="M922.47,407.52c.1-1.39.29-2.3,2.24-1.94,1.36.26,2.9-.42,4.78-.76l-1.16,1.52a22.91,22.91,0,0,1-2.79,2,5.82,5.82,0,0,1-2.07.19v0l-1-1Z" transform="translate(-650 -364)"/><path class="cls-29" d="M1047.56,641.41c.43-2.11.57-4.41,1.43-6.41a4.55,4.55,0,0,1,3.31-2.31,4.12,4.12,0,0,1,3.1,2.23,17.37,17.37,0,0,1,.1,13.1,5.18,5.18,0,0,1-3.28,2.43c-1.77.44-3-.92-3.44-2.55C1048.22,645.84,1048,643.69,1047.56,641.41Z" transform="translate(-650 -364)"/><path class="cls-29" d="M1084.22,641.84c-.43,2.07-.72,4.12-1.3,6.1-.47,1.62-1.71,3-3.48,2.51a5.19,5.19,0,0,1-3.28-2.45,17.45,17.45,0,0,1,0-12.89,4.37,4.37,0,0,1,3.26-2.4,4.85,4.85,0,0,1,3.39,2.56C1083.69,637.27,1083.79,639.6,1084.22,641.84Z" transform="translate(-650 -364)"/><path class="cls-23" d="M905.48,429.44l-1.48.8c.32-2.38.62-4.58,1-7.14l3.11,2.18c-.93,1.49-1.79,2.85-2.65,4.21Z" transform="translate(-650 -364)"/><path class="cls-30" d="M895.53,461.64c2.65-2.88,5.45-5.51,9.32-6.77,2-.65,3.68-.61,5.09,1.1l.07.06,1,1.52c.35.65.71,1.29,1.07,1.93,1.91,3.45,1.93,3.47-1.41,5.4-2.82,1.63-5.47,3.4-6.78,6.57a9.51,9.51,0,0,0-1.11,1.62c-.95,2.25-2.32,2.51-4.27,1.15-1.62-1.14-3.36-2.13-5-3.18-1.62-2-.51-3.87.19-5.73A33.42,33.42,0,0,1,895.53,461.64Z" transform="translate(-650 -364)"/><path class="cls-15" d="M893.46,471c1.68,1,3.42,2,5,3.18,2,1.36,3.32,1.1,4.27-1.15a9.51,9.51,0,0,1,1.11-1.62c2,3,1,6.12.53,9.23-2-1.69-4-3.42-6-5a7.75,7.75,0,0,0-2.05-.8l-.49-.46-2.33-2.47Z" transform="translate(-650 -364)"/><path class="cls-23" d="M893.49,471.91l2.33,2.47-4,4.61c.18-2.21.32-3.85.45-5.49Z" transform="translate(-650 -364)"/><path class="cls-30" d="M979,650.51c-6.51-1.43-9.41-6-7.55-11.89,1.1-3.46,3.57-5.21,7.05-5.75,5.65.34,8.72,3.14,9,8.18C987.74,646.54,985.1,649.49,979,650.51Z" transform="translate(-650 -364)"/><path class="cls-30" d="M910.46,454.24l5.66-.35c-1,1.35-1.83,2.48-2.66,3.62v0l-1,.09-.51-.13L910,456l-.07-.06Z" transform="translate(-650 -364)"/><path class="cls-29" d="M919.43,493.35l-5-2.36.05,0-.51-1,0,0-.54-.54,0,0-.5-1.89c1.49-.34,3.13-.26,4.09-1,2.47-2,4.64-4.3,6.93-6.49l2.18-5.37,1.28.3,0,0,1,.51,0,0,.54.54,0,0c0,.07-.15.18-.13.2,3.42,5.23,3.42,5.23-.6,10.33-.26.32-.47.67-.71,1Z" transform="translate(-650 -364)"/><path class="cls-23" d="M925.36,468.11l.5.5.5.5.5.51.72.78,4.56,6.27-.44.47L929,476l0,0-.54-.54,0,0-1-.51,0,0-3.5-4c-3.3-3.55-6.62-7.07-9.87-10.67a8.41,8.41,0,0,1-1.05-2.31l.42-.54v0a14.52,14.52,0,0,1,2.18,1.41c2.81,2.64,5.57,5.35,8.35,8l.83.72Z" transform="translate(-650 -364)"/><path class="cls-4" d="M941.47,428,940,427l.09-.83Z" transform="translate(-650 -364)"/><path class="cls-12" d="M940.05,426.18,940,427l-1-1Z" transform="translate(-650 -364)"/><path class="cls-4" d="M942.49,428.52l-1-.52Z" transform="translate(-650 -364)"/><path class="cls-23" d="M896.31,474.84a7.75,7.75,0,0,1,2.05.8c2.07,1.62,4,3.35,6,5,2.43,2.57,4.83,5.16,7.3,7.69a9,9,0,0,0,1.78,1.13l0,0,.54.54,0,0,.51,1-.05,0c.34.8.69,1.59,1,2.38l-.46.55L908.4,489l-6.9-7c-1.54-1.62-3.15-3.19-4.59-4.9C896.46,476.54,896.5,475.6,896.31,474.84Z" transform="translate(-650 -364)"/><path class="cls-30" d="M916.16,454.3l-.31-.39a2.51,2.51,0,0,1,.61-.31c.06,0,.19.2.29.32Z" transform="translate(-650 -364)"/><path class="cls-30" d="M869.62,632.83c2.38,0,5-.83,6.66,1.44.54.71.54,2.88.13,3.08a52.08,52.08,0,0,1-6.79,2.48Z" transform="translate(-650 -364)"/><path class="cls-30" d="M905.47,632.84c6.31,1.1,9.33,6,7.48,12-1.13,3.72-4.07,5-7.48,5.64-5.87-.84-8.42-3.46-8.5-8.72S899.8,633.42,905.47,632.84Z" transform="translate(-650 -364)"/><path class="cls-12" d="M922.44,407.5l1,1Z" transform="translate(-650 -364)"/><path class="cls-12" d="M927.5,443c-.68-.84-1.35-1.69-2-2.53C926.15,441.31,926.82,442.16,927.5,443Z" transform="translate(-650 -364)"/><path class="cls-24" d="M913.49,489.5a9,9,0,0,1-1.78-1.13c-2.47-2.53-4.87-5.12-7.3-7.69.44-3.11,1.45-6.26-.53-9.23,1.31-3.17,4-4.94,6.78-6.57,3.34-1.93,3.32-1.95,1.41-5.4-.36-.64-.72-1.28-1.07-1.93l1-.11.51.13.57.45a8.41,8.41,0,0,0,1.05,2.31c3.25,3.6,6.57,7.12,9.87,10.67,0,3,0,6.06,0,9.09-2.29,2.19-4.46,4.53-6.93,6.49-1,.77-2.6.69-4.09,1C913.14,488.18,913.32,488.84,913.49,489.5Z" transform="translate(-650 -364)"/><path class="cls-23" d="M912,457.44l-1,.11L910,456Z" transform="translate(-650 -364)"/><path class="cls-25" d="M913.05,458l-.57-.45,1-.09Z" transform="translate(-650 -364)"/><path class="cls-21" d="M924,480.09c0-3,0-6.06,0-9.09l3.5,4-1.28-.3Z" transform="translate(-650 -364)"/><path class="cls-21" d="M927.45,475l1,.51Z" transform="translate(-650 -364)"/><path class="cls-24" d="M914.48,491l-.51-1Z" transform="translate(-650 -364)"/><path class="cls-21" d="M928.45,475.48l.54.54Z" transform="translate(-650 -364)"/><path class="cls-24" d="M914,490l-.54-.54Z" transform="translate(-650 -364)"/></svg>