<?xml version="1.0" encoding="utf-8"?>
<!-- Generator: Adobe Illustrator 26.0.3, SVG Export Plug-In . SVG Version: 6.00 Build 0)  -->
<svg version="1.0" id="Layer_1" xmlns="http://www.w3.org/2000/svg" xmlns:xlink="http://www.w3.org/1999/xlink" x="0px" y="0px"
	 viewBox="0 0 2000 2000" style="enable-background:new 0 0 2000 2000;" xml:space="preserve">
<style type="text/css">
	.st0{fill:#FFFFFF;}
</style>
<g>
	<path class="st0" d="M640.32,1360.88c0-240.16,0-480.32,0-720.48c240.16,0,480.32,0,720.48,0c0,240.16,0,480.32,0,720.48
		C1120.64,1360.88,880.48,1360.88,640.32,1360.88z M1141.83,1006.22c2.24,0.03,4.58,0.78,6.73-1.1c-0.13,1.17,0.33,1.57,1.24,1.47
		c1.19-0.13,2.38-0.36,3.57-0.35c1.16,0,2.32,0.36,3.48,0.35c1.58-0.02,3.17-0.2,4.75-0.41c0.67-0.09,1.69,0.55,1.96-0.73
		c0.01-0.06,0.6-0.1,0.62-0.05c0.48,1.41,1.64,0.69,2.45,0.69c1.67,0,3.34-0.28,5.02-0.38c1.59-0.09,3.46,0.41,4.72-0.27
		c1.73-0.93,3.13,0.6,4.67-0.09c0.78-0.34,1.82-0.15,2.54-0.56c1.57-0.9,2.77-0.15,4.44,0.51c-1.33,1.27-2.47,2.27-3.51,3.36
		c-1.1,1.16-2.17,2.36-3.12,3.64c-9.64,13.01-14.67,27.54-14.45,43.82c0.01,1.08-0.04,2.33-0.56,3.2c-1.74,2.95-3.69,5.79-5.62,8.63
		c-0.36,0.53-1.01,0.86-1.54,1.29c-1.25-1.18-1.03-2.43-0.9-3.58c0.98-8.34,2.02-16.67,3.03-25c0.4-3.33,0.96-6.65,1.13-9.99
		c0.17-3.26-1.32-5.84-4.08-7.68c-4.4-2.92-9.16-3.58-14.22-2.36c-0.84,0.2-1.65,0.62-2.39,1.07c-0.67,0.41-1,1.09-0.43,1.84
		c1.54,2.02,1.53,4.37,1.25,6.66c-0.79,6.5-1.57,13.01-2.65,19.47c-1.63,9.72-4.21,19.21-8.25,28.23c-2.19,4.9-4.8,9.59-8.74,13.37
		c-0.74,0.71-1.56,1.4-2.45,1.9c-2.1,1.17-3.95,0.62-4.97-1.56c-0.53-1.13-0.84-2.43-0.98-3.68c-0.19-1.66-0.18-3.35-0.15-5.03
		c0.11-7.38,1.08-14.67,2.56-21.88c2.04-9.89,4.68-19.59,9.1-28.72c2.17-4.49,4.82-8.65,8.38-12.2c3.06-3.05,6.59-4.99,10.96-5.31
		c1.74-0.13,2.57-1.43,1.77-2.98c-0.44-0.86-1.27-1.66-2.12-2.14c-1.79-1-3.78-1.17-5.82-0.89c-3.91,0.54-7.63,1.7-11.17,3.45
		c-6.19,3.05-10.91,7.76-15.03,13.15c-8.46,11.07-12.93,23.78-15.28,37.36c-0.64,3.69-0.72,7.48-2,11.07
		c-1.5,4.21-2.77,8.52-4.41,12.68c-1.55,3.93-3.41,7.75-5.24,11.57c-0.63,1.31-1.29,2.72-3.18,3.48c-0.14-1.23-0.41-2.23-0.33-3.2
		c0.41-5.02,0.71-10.06,1.44-15.04c1.64-11.23,3.49-22.43,5.3-33.63c1.04-6.44-0.62-9.93-6.36-13.02c-0.7-0.38-1.42-0.75-2.17-1.01
		c-3.62-1.28-7.32-1.78-11.05-0.55c-2.21,0.73-2.58,1.92-1.15,3.77c1.54,1.99,1.95,4.19,1.57,6.56c-1.34,8.2-2.53,16.43-4.15,24.58
		c-1.74,8.8-4.32,17.38-8.36,25.44c-1.97,3.94-4.2,7.75-7.44,10.82c-0.92,0.87-1.96,1.66-3.07,2.24c-1.59,0.83-2.95,0.46-4-0.99
		c-0.5-0.69-0.96-1.54-1.08-2.36c-0.3-2.05-0.59-4.13-0.55-6.19c0.35-16.07,3.67-31.55,9.45-46.52c1.82-4.71,4.08-9.22,7.15-13.26
		c3.73-4.91,8.04-8.9,14.67-9.33c1.5-0.1,2.11-1.34,1.63-2.77c-0.41-1.23-1.35-1.96-2.47-2.46c-2.46-1.1-5-0.89-7.54-0.4
		c-7.97,1.54-14.6,5.47-20.11,11.37c-8.09,8.66-13.41,18.87-16.59,30.19c-1.42,5.06-2.11,10.33-3.45,15.42
		c-2.59,9.81-5.39,19.57-8.14,29.33c-0.24,0.86-0.81,1.62-1.27,2.52c-1.74-0.86-1.9-2.3-1.96-3.58c-0.1-2.31-0.16-4.66,0.15-6.94
		c1.7-12.43,3.52-24.84,5.31-37.26c0.75-5.23,1.59-10.46,1.13-15.75c-0.18-2.03-0.62-4.16-1.48-6c-2.34-4.99-6.28-7.77-11.97-7.59
		c-5.11,0.16-9.13,2.43-12.45,6.27c-3.49,4.04-7.13,7.95-10.74,11.96c-0.8-1.5-1.44-2.96-2.3-4.28c-3-4.66-7.82-6.78-12.97-5.69
		c-3.31,0.71-6.16,2.37-8.24,5.04c-2.6,3.34-5,6.83-7.49,10.26c-0.35,0.48-0.71,0.95-1.37,1.83c0-1.06-0.02-1.59,0-2.12
		c0.14-3.8-1.66-6.43-4.99-8.03c-4.45-2.14-8.98-1.98-13.48-0.16c-1.96,0.79-2.26,1.51-1.71,3.56c0.84,3.13,1.14,6.3,0.86,9.51
		c-0.5,5.65-0.92,11.32-1.73,16.94c-1.09,7.59-2.63,15.12-3.74,22.71c-0.83,5.69-1.4,11.42-1.88,17.15
		c-0.32,3.78,0.5,7.38,3.14,10.27c3.43,3.76,7.62,6.34,12.65,7.31c1.21,0.23,2.56,0.13,3.78-0.12c1.21-0.25,1.45-1.06,0.89-2.2
		c-0.24-0.5-0.58-0.96-0.93-1.39c-1.3-1.61-2.01-3.47-2.13-5.5c-0.13-2.15-0.35-4.34-0.09-6.46c0.71-5.78,1.43-11.58,2.57-17.29
		c1.31-6.57,2.27-13.25,4.78-19.53c3.47-8.68,6.9-17.38,10.46-26.02c0.81-1.98,2.01-3.82,3.19-5.61c0.69-1.04,1.71-2.26,3.08-1.77
		c1.36,0.49,1.05,2.04,0.93,3.19c-0.28,2.78-0.6,5.57-1.05,8.33c-2.25,13.97-4.64,27.91-6.76,41.9c-0.64,4.25-0.72,8.6-0.79,12.91
		c-0.06,3.36,1.62,5.94,4.51,7.71c2.09,1.28,4.32,2.16,6.8,1.98c1.46-0.11,2.15,0.58,2.8,1.72c1.02,1.79,0.63,3.36-0.43,4.93
		c-2.48,3.68-6.04,5.86-10.14,7.29c-6,2.09-12.23,3.16-18.51,3.82c-7.32,0.76-14.65,1.29-21.99,1.84c-1.96,0.15-3.95,0.02-5.9,0.02
		c-0.26-0.8-0.52-1.54-0.75-2.28c-0.53-1.66-1.44-3.3-1.49-4.97c-0.14-4.7-0.22-9.44,0.19-14.12c1.28-14.66,3.87-29.15,6.29-43.66
		c1.89-11.35,4.22-22.64,5.16-34.13c0.12-1.43,0.78-2.03,1.99-2.58c4.38-1.95,8.8-3.85,13.03-6.08c9.76-5.14,19.45-10.4,29.1-15.74
		c6.2-3.44,12.81-5.77,19.61-7.62c4.04-1.1,8.15-1.66,12.34-1.2c3.06,0.34,5.24,1.75,6.08,4.9c0.25,0.97,0.75,1.87,1.15,2.86
		c1.94-0.28,2.89-1.39,3.6-2.78c1.42-2.78,1.87-5.75,1.79-8.83c-0.13-4.95-3.06-8.35-7.99-8.83c-2.03-0.2-4.15,0.1-6.17,0.49
		c-5.68,1.11-11.02,3.26-16.26,5.67c-10.54,4.85-20.72,10.37-30.83,16.04c-7.81,4.38-15.66,8.68-23.5,13
		c-0.75,0.41-1.55,0.71-2.74,1.25c0.31-2.65,0.59-4.92,0.84-7.19c0.49-4.28,1.26-8.55,0.74-12.9c-0.94-7.89-6.74-13.72-15.49-11.92
		c-12.91,2.65-20.98,10.62-24.81,23.02c-1.42,4.6-1.43,9.31,0,13.95c1.19,3.87,3.75,6.43,7.6,7.7c2.46,0.81,5,1.05,7.57,0.96
		c0.77-0.03,1.54,0,2.45,0c-0.05,0.96-0.05,1.67-0.14,2.36c-0.85,6.9-1.69,13.8-2.57,20.7c-1.71,13.48-3.49,26.95-5.12,40.44
		c-0.81,6.68-0.98,13.4-0.63,20.12c0.22,4.23,1.24,8.21,3.71,11.73c0.2,0.28,0.25,0.67,0.3,0.82c-7.08,0.93-14.07,1.76-21.02,2.8
		c-4.74,0.71-9.41,1.84-13.84,3.77c-2.52,1.1-4.83,2.5-6.6,4.66c-2.41,2.93-2.38,6.26,0.09,9.16c1.52,1.79,3.35,3.21,5.49,4.18
		c0.65,0.29,1.34,0.55,2.04,0.66c1.26,0.19,1.85-0.31,1.67-1.6c-0.32-2.29,0.66-3.94,2.43-5.1c1.93-1.26,3.91-2.58,6.05-3.36
		c4.42-1.6,8.94-2.97,13.47-4.22c3.61-0.99,7.27-2.01,10.98-2.4c9.54-1,19.13-1.56,28.68-2.46c9.64-0.91,19.19-2.44,28.57-4.86
		c5.27-1.36,10.46-2.95,15.19-5.76c2.57-1.52,4.89-3.33,6.6-5.83c1.81-2.65,2.37-5.52,1.72-8.68c-0.78-3.84-2.82-6.74-6.49-8.66
		c0.26-2.86,0.34-5.75,0.8-8.57c1.61-9.94,3.43-19.84,5.03-29.78c2.1-13.1,8.03-24.52,15.28-35.37c0.8-1.2,1.79-2.98,3.52-2.22
		c1.56,0.69,1.33,2.56,1.13,4.09c-1.09,8.16-2.23,16.32-3.29,24.48c-1.38,10.62-2.78,21.24-4,31.88c-0.36,3.15-0.44,6.4-0.14,9.56
		c0.61,6.35,6.14,10.38,12.43,9.26c5.74-1.02,10.3-3.95,13.17-9.08c1.87-3.34,3.39-6.88,5.06-10.32c0.25-0.51,0.5-1.01,0.88-1.78
		c0.42,1.25,0.69,2.17,1.04,3.05c2.23,5.76,6.34,9.26,12.49,10.3c5.96,1.01,11.05-0.74,15.43-4.78c3.4-3.13,5.92-6.91,8.05-10.97
		c0.32-0.6,0.66-1.19,1.21-2.18c0.18,0.83,0.26,1.18,0.34,1.54c1.62,7.23,6.5,10.57,13.84,9.75c5.14-0.57,8.97-3.13,12.02-7.1
		c2.89-3.76,5.22-7.85,7.25-12.12c0.34-0.71,0.7-1.41,1.22-2.45c0.36,1.06,0.61,1.79,0.86,2.51c3.6,10.41,15.81,14.49,24.95,8.35
		c2.83-1.9,5.2-4.32,6.91-7.23c2.06-3.5,3.84-7.18,5.74-10.78c0.25-0.47,0.49-0.94,0.73-1.41c0.1,0.04,0.19,0.08,0.29,0.12
		c-0.76,6.57-1.52,13.13-2.29,19.76c-0.6,0.07-0.99,0.1-1.38,0.17c-4.16,0.75-8.39,1.24-12.47,2.31
		c-7.29,1.91-12.36,8.48-12.62,16.01c-0.33,9.41,2.23,18.02,7.52,25.8c0.98,1.44,2.15,2.82,3.5,3.92c1.2,0.98,2.68,1.91,4.17,2.2
		c5.63,1.1,10.81,0.03,15.16-3.97c3.11-2.86,5.43-6.26,7.21-10.08c3.03-6.52,4.59-13.44,5.67-20.5c0.33-2.19,0.67-4.37,1.01-6.6
		c4.02-0.5,7.81-1.04,11.62-1.44c9.09-0.96,18.01-2.72,26.76-5.35c6.62-1.99,12.96-4.56,18.6-8.67c2.41-1.75,2.98-3.35,2.27-6.24
		c-0.64-2.62-1.91-4.9-3.73-6.89c-0.41-0.45-0.81-0.9-1.21-1.35c8.28-8.72,11.46-14.45,14.36-26.25c1.01-4.1,1.76-8.26,2.67-12.57
		c2.38-0.2,4.55-1.37,6.64-2.71c0.81-0.52,1.61-1.06,2.47-1.48c4.65-2.25,6.33-6.56,7.67-11.07c0.53-1.77-0.19-3.34-1.44-4.59
		c-1.22-1.22-2.66-2.02-4.15-1.56c-1.16,3.2-2.01,6.21-3.33,8.99c-1.55,3.24-4.8,5.26-7.53,5.13c-0.7-6.44-0.75-13-2.34-19.28
		c-2.39-0.35-3.77-0.16-5.81,0.73c-3.5,1.53-4.97,4.41-4.17,8.15c0.13,0.63,0.29,1.25,0.42,1.87c1.09,5.11,1.76,10.25,1.27,15.48
		c-0.8,8.5-2.96,16.67-6.12,24.57c-1.69,4.22-4.24,7.91-7.77,10.8c-1.52,1.25-3.26,2.34-5.08,3.1c-3.17,1.32-6.3,0.39-8.27-2.42
		c-0.94-1.34-1.66-2.94-2.07-4.53c-0.91-3.58-1.14-7.24-0.83-10.95c0.56-6.69,2.44-13.03,5.06-19.16
		c3.89-9.07,9.23-17.16,16.44-23.96c4.19-3.96,8.95-6.69,14.88-6.89c0.14,0,0.27-0.15,0.65-0.38c0.04-0.85,0.23-1.89,0.11-2.88
		c-0.48-3.9-1.84-7.43-4.64-10.3c-0.72-0.74-1.33-1.75-2.21-2.13c-2.05-0.88-4.25-1.45-6.53-0.84c-1.62,0.43-3.21,1-4.84,1.36
		c-1.86,0.41-3.56,2.01-5.66,0.82c-0.11-0.06-0.31,0.03-0.46,0.06c-2.13,0.39-4.26,0.81-6.41,1.16c-0.62,0.1-1.27,0-1.9-0.03
		c-0.47-0.03-0.99-0.25-1.4-0.12c-2.84,0.93-5.69,1.39-8.63,0.5c-0.22-0.07-0.53-0.11-0.7,0c-1.68,1.11-3.52,0.7-5.35,0.73
		c-1.91,0.03-3.85,0.17-5.7,0.63c-1.82,0.45-3.55,0.89-5.4,0.23c-0.22-0.08-0.55,0.26-0.85,0.32c-0.83,0.16-1.74,0.57-2.48,0.37
		c-2.21-0.59-4.36-0.07-6.52,0.08c-2.12,0.15-4.23,0.57-6.35,0.7c-2.55,0.15-5.12,0.09-7.67,0.2c-0.71,0.03-1.43-0.22-2.08,0.79
		c-0.69,1.07-1.41-0.62-2.25-0.67c-0.15-0.01-0.3,0.12-0.46,0.12c-0.94,0.02-1.88,0.07-2.81,0.02c-0.79-0.04-1.63-0.38-2.37-0.23
		c-3.04,0.61-5.98-0.07-8.94-0.55c-0.39-0.06-0.8-0.05-1.19-0.11c-1.9-0.27-3.8-0.52-5.68-0.86c-0.53-0.1-0.99-0.51-1.49-0.77
		c0.05-0.16,0.1-0.33,0.14-0.49c1.33-0.04,2.68,0.04,3.99-0.16c1.64-0.25,3.27-0.65,4.86-1.15c0.51-0.16,1.2-0.85,1.21-1.3
		c0.01-2.7,0.34-5.45-0.6-8.09c-0.32-0.9-0.92-1.42-1.84-1.7c-5.14-1.54-10.31-2.2-15.61-0.92c-0.92,0.22-1.87,0.39-2.81,0.47
		c-2.22,0.17-4.45,0.23-6.66,0.41c-1.19,0.1-2.36,0.41-3.55,0.53c-1.19,0.13-2.39,0.16-3.59,0.2c-1.12,0.04-2.24,0.02-3.36,0.05
		c-1.2,0.02-2.41-0.04-3.59,0.12c-1.02,0.14-2.35-0.27-2.86,1.18c-1.13-0.27-2.26-0.57-3.4-0.79c-0.46-0.09-0.96-0.01-1.44-0.01
		c-1.86,0.03-3.73,0.06-5.59,0.08c-0.94,0.01-2.04-0.33-2.78,0.05c-1.32,0.68-2.58,0.38-3.88,0.38c-0.14,0-0.27,0.12-0.49,0.23
		c0.09,0.49,0.19,1,0.34,1.8c0.7-1.03,1.37-0.75,2.18-0.66c0.75,0.09,1.58-0.51,2.54-0.87c0,0.5,0,0.84,0,1.13
		c1.82,0.08,3.62-0.09,5.31,0.27c2.89,0.62,5.71,0.42,8.56-0.1c0.29-0.05,0.73-0.25,0.86-0.13c1.48,1.4,2.52,0.02,3.38-0.45
		c1.59,1.87,3.82,0.34,5.39,1.23c-0.19,1.13-1.03,0.86-1.69,0.83c-0.86-0.04-1.72-0.23-2.58-0.23c-3.58-0.01-7.16,0.01-10.73,0.08
		c-1.05,0.02-2.09,0.23-3.14,0.35c2.83,0.48,5.66,0.64,8.48,0.67c2.88,0.03,5.83-0.49,8.62-0.01c2.85,0.49,5.69-0.34,8.66,0.23
		c-0.23,0.42-0.29,0.69-0.45,0.79c-1.55,0.96-1.74,2.35-1.31,3.96c0.18,0.69,0.31,1.41,0.42,2.12c0.45,2.9,2.14,4.59,5.02,4.99
		c4.02,0.56,8.05,1.4,12.07,1.42c4.89,0.02,9.71,0.77,14.61,0.73c3.1-0.03,6.35-0.53,9.44,0.52c0.19,0.06,0.45-0.12,0.69-0.13
		c1.34-0.06,2.69-0.07,4.03-0.17c1.16-0.09,2.31-0.28,3.47-0.42L1141.83,1006.22z M1046.03,967.35c0.22,0.79,0.32,1.06,0.37,1.34
		c1.6,9.65,10.25,13.88,17.83,13.12c9.88-0.99,17.52-5.77,22.91-13.98c2.09-3.19,3.76-6.69,5.29-10.2
		c3.89-8.87,6.9-18.06,9.59-27.36c1.65-5.68,3.17-11.39,4.64-17.12c0.79-3.08,0.18-4.46-2.22-5.93c-2.2-1.35-4.02-0.64-4.79,1.86
		c-1.92,6.26-3.72,12.57-5.79,18.78c-3.11,9.32-6.37,18.6-9.63,27.87c-1.17,3.33-2.73,6.49-5.09,9.18
		c-1.28,1.45-2.67,2.76-4.55,3.41c-2.03,0.7-3.72,0.28-4.75-1.59c-0.71-1.29-1.21-2.82-1.31-4.28c-0.16-2.22-0.05-4.48,0.21-6.7
		c0.62-5.32,1.4-10.62,2.08-15.93c1.51-11.81,2.99-23.63,4.5-35.45c1.52-11.89,3.16-23.77,4.58-35.68
		c1.37-11.51,2.55-23.04,3.73-34.57c0.37-3.66,0.59-7.34,0.66-11.01c0.06-3.3-1.35-6.01-3.96-8.1c-3.28-2.62-7-4.22-11.14-4.61
		c-2.2-0.21-4.45,0.04-6.67,0.25c-1.2,0.11-1.64,0.85-1.44,2.22c1.31,8.86,0.7,17.7-0.39,26.54c-1.41,11.5-2.95,23-4.07,34.53
		c-1.28,13.14-3.24,26.18-5.16,39.22c-1.2,8.14-2.55,16.27-3.56,24.44c-1.22,9.85-1.1,9.87-5.97,18.42c-0.4,0.69-0.8,1.38-1.22,2.07
		c-3.42,5.63-7.25,10.94-11.96,15.55c-3.49,3.42-7.51,6.07-12.41,6.84c-7.87,1.24-14.6-1.21-16.32-10.58
		c-1.23-6.72-1.64-13.49-0.86-20.3c1.21-10.57,4.17-20.66,8.39-30.4c2.48-5.74,5.49-11.2,9.35-16.15c2.21-2.84,4.86-5.07,8.45-5.98
		c2.76-0.7,4.99,0.07,6.24,2.63c0.75,1.54,1.23,3.32,1.34,5.03c0.36,5.49-1.1,10.62-3.67,15.43c-4.76,8.9-11.5,15.89-20.32,20.84
		c-0.84,0.47-1.7,0.88-2.53,1.37c-2.63,1.55-3.5,4.49-2.18,7.26c1.17,2.46,3.07,3.04,6.31,1.94c3.84-1.31,7.23-3.4,10.31-5.99
		c9-7.55,15.59-16.88,20.01-27.73c1.8-4.42,2.64-9.04,2.19-13.84c-0.77-8.3-5.77-13.97-13.89-15.56c-3.9-0.76-7.8-0.57-11.64,0.44
		c-9.64,2.53-17.06,8.25-22.73,16.26c-7.66,10.82-12.21,22.95-14.61,35.92c-0.61,3.3-3.84,6.02-7.63,6.12
		c-0.85-7.48-0.92-15.08-2.68-22.43c-7.01-1.94-13.14,3.84-11.55,10.76c1.55,6.73,2.6,13.5,1.82,20.44
		c-1.04,9.19-3.35,18.06-6.63,26.68c-1.73,4.53-4.3,8.57-7.75,12.01c-2.05,2.05-4.28,3.85-7,4.95c-4.4,1.79-8.57,0.48-10.89-3.68
		c-0.92-1.64-1.55-3.52-1.95-5.37c-1.33-6.11-1.05-12.25,0.25-18.33c3.15-14.7,9.81-27.65,19.7-38.95c2.75-3.14,5.84-5.91,9.25-8.33
		c3.22-2.29,6.8-3.49,10.71-3.8c2.29-0.18,2.75-0.56,2.6-2.73c-0.37-5.46-2.24-10.26-6.34-14.07c-2.74-2.54-5.9-3.4-9.52-2.54
		c-4.94,1.16-9.51,3-13.69,6.04c-4.22,3.07-8.32,6.22-11.94,9.98c-6.58,6.85-11.17,14.95-14.84,23.64c-0.3,0.71-0.63,1.4-0.9,2
		c-5.71-1.43-11.18-2.79-16.71-4.18c0.12-1.34,0.18-2.45,0.31-3.55c1.53-12.86,3.09-25.72,4.61-38.58c0.67-5.65-0.27-4.14,4.42-7.07
		c16.34-10.22,33.12-19.69,50.3-28.42c4.69-2.39,9.51-4.6,14.44-6.42c7.62-2.82,15.5-4.59,23.72-3.68
		c7.51,0.83,13.94,3.26,15.99,11.64c0.25,1.02,0.93,1.23,1.83,0.91c0.45-0.16,0.9-0.35,1.3-0.61c4.44-2.99,7.44-7.04,8.46-12.32
		c1.01-5.26-0.74-8.35-5.68-10.52c-2.65-1.17-5.44-1.87-8.34-2.03c-12.56-0.7-24.68,1.51-36.52,5.54
		c-9.04,3.08-17.48,7.49-25.83,12.03c-13.34,7.25-26.53,14.8-39.78,22.21c-0.82,0.46-1.66,0.88-2.95,1.57
		c0.34-3.05,0.61-5.63,0.93-8.21c0.65-5.32,1.49-10.61,1.22-16c-0.4-7.92-3.95-13.69-11.37-16.85c-1.1-0.47-2.23-0.89-3.37-1.24
		c-6.03-1.82-12.18-1.75-18.3-0.78c-13.91,2.21-26.52,7.6-37.86,15.94c-6.4,4.71-11.64,10.47-15.42,17.5
		c-3.14,5.84-4.22,12-2.96,18.56c1.81,9.44,7.4,15.01,16.83,16.58c4.37,0.73,8.78,0.53,13.16,0.12c8.86-0.81,17.53-2.67,26.14-4.86
		c1.69-0.43,3.39-0.84,5.43-1.35c-1.02,11.1-2.01,21.93-3.01,32.87c-4.95-1.55-9.62-1.66-14.35-0.99
		c-10.38,1.46-18.75,6-24.22,15.29c-3.41,5.79-5.61,12-7.02,18.53c-2.24,10.43-2.35,20.93-1.03,31.49
		c1.38,11.04,4.25,21.63,9.17,31.63c3.78,7.69,9.68,13.25,17.45,16.79c5.99,2.73,12.69,1.53,17.22-3.21
		c1.8-1.88,3.26-4.14,4.64-6.37c1.17-1.9,2.06-3.97,2.96-6.02c5.6-12.76,8.76-26.21,10.97-39.89c1.83-11.36,3.26-22.79,4.88-34.18
		c0.26-1.79,0.59-3.57,0.94-5.62c5.13,0.38,9.89,1.47,14.86,2c-1.54,6.33-2.47,12.39-2.5,18.58c-0.04,8.16,1.01,16.11,4.46,23.6
		c2.22,4.82,5.4,8.86,9.81,11.88c3.36,2.3,7.1,3.42,11.11,3.11c7.76-0.61,14.82-3.13,20.73-8.4c4.1-3.65,7.46-7.89,10.15-12.68
		c4.68-8.36,6.93-17.49,8.61-26.81c0.34-1.86,0.65-3.73,0.91-5.26c2.43-0.82,4.56-1.54,6.83-2.3c0,1.43,0.02,2.7,0,3.98
		c-0.08,4.98,0.44,9.9,1.46,14.77c0.89,4.24,2.1,8.36,4.26,12.17c2.85,5,6.94,8.21,12.63,9.47c4.89,1.08,9.71,0.88,14.47-0.43
		c13.82-3.81,24.7-11.73,32.78-23.55C1044.82,969.15,1045.29,968.45,1046.03,967.35z M1066.92,991.69
		c-6.48-0.46-12.88-1.3-19.3-0.41c6.02,0.44,12.05,0.66,18.07,0.83C1066.1,992.12,1066.51,991.84,1066.92,991.69z M1056.57,988.1
		c-1.27-0.16-2.44-0.42-3.6-0.4c-0.6,0.01-1.22,0.48-1.78,0.84c-0.1,0.06,0.08,0.57,0.12,0.8c1.81,0.12,3.5,0.23,5.27,0.35
		C1056.57,989.05,1056.57,988.61,1056.57,988.1z M1046.36,989.11c2.51,0.32,2.51,0.32,3.27-1.08
		C1047.03,987.64,1047.02,987.64,1046.36,989.11z M1045.59,991.28c-2.22-0.81-2.61-0.82-4.76,0
		C1042.33,991.28,1043.82,991.28,1045.59,991.28z"/>
	<path d="M1141.89,1006.18c-1.15,0.14-2.31,0.33-3.47,0.42c-1.34,0.1-2.69,0.11-4.03,0.17c-0.23,0.01-0.5,0.2-0.69,0.13
		c-3.09-1.05-6.33-0.55-9.44-0.52c-4.9,0.04-9.73-0.71-14.61-0.73c-4.03-0.02-8.06-0.86-12.07-1.42c-2.87-0.4-4.57-2.08-5.02-4.99
		c-0.11-0.71-0.24-1.42-0.42-2.12c-0.43-1.62-0.24-3,1.31-3.96c0.16-0.1,0.22-0.37,0.45-0.79c-2.97-0.57-5.81,0.26-8.66-0.23
		c-2.79-0.48-5.74,0.04-8.62,0.01c-2.83-0.03-5.65-0.2-8.48-0.67c1.05-0.12,2.09-0.33,3.14-0.35c3.58-0.07,7.16-0.08,10.73-0.08
		c0.86,0,1.72,0.2,2.58,0.23c0.67,0.03,1.5,0.3,1.69-0.83c-1.58-0.9-3.8,0.64-5.39-1.23c-0.85,0.46-1.9,1.85-3.38,0.45
		c-0.13-0.12-0.57,0.07-0.86,0.13c-2.85,0.52-5.66,0.72-8.56,0.1c-1.69-0.36-3.49-0.2-5.31-0.27c0-0.29,0-0.63,0-1.13
		c-0.96,0.36-1.79,0.96-2.54,0.87c-0.81-0.09-1.48-0.37-2.18,0.66c-0.15-0.8-0.25-1.31-0.34-1.8c0.22-0.1,0.35-0.23,0.49-0.23
		c1.3,0,2.56,0.3,3.88-0.38c0.74-0.38,1.84-0.04,2.78-0.05c1.86-0.02,3.73-0.05,5.59-0.08c0.48-0.01,0.97-0.08,1.44,0.01
		c1.14,0.22,2.26,0.52,3.4,0.79c0.51-1.45,1.84-1.04,2.86-1.18c1.18-0.16,2.39-0.1,3.59-0.12c1.12-0.02,2.24-0.01,3.36-0.05
		c1.2-0.04,2.4-0.08,3.59-0.2c1.19-0.13,2.36-0.44,3.55-0.53c2.22-0.18,4.45-0.24,6.66-0.41c0.94-0.07,1.89-0.24,2.81-0.47
		c5.3-1.28,10.48-0.63,15.61,0.92c0.92,0.28,1.52,0.8,1.84,1.7c0.93,2.64,0.6,5.38,0.6,8.09c0,0.45-0.7,1.14-1.21,1.3
		c-1.58,0.5-3.22,0.9-4.86,1.15c-1.31,0.2-2.66,0.12-3.99,0.16c-0.05,0.16-0.1,0.33-0.14,0.49c0.49,0.27,0.96,0.68,1.49,0.77
		c1.88,0.35,3.79,0.59,5.68,0.86c0.4,0.06,0.8,0.04,1.19,0.11c2.96,0.47,5.89,1.16,8.94,0.55c0.74-0.15,1.57,0.2,2.37,0.23
		c0.93,0.04,1.87,0,2.81-0.02c0.15,0,0.31-0.13,0.46-0.12c0.84,0.04,1.55,1.73,2.25,0.67c0.66-1.01,1.37-0.76,2.08-0.79
		c2.56-0.11,5.12-0.05,7.67-0.2c2.12-0.13,4.23-0.55,6.35-0.7c2.16-0.15,4.31-0.68,6.52-0.08c0.74,0.2,1.65-0.2,2.48-0.37
		c0.3-0.06,0.63-0.39,0.85-0.32c1.85,0.65,3.57,0.21,5.4-0.23c1.84-0.45,3.79-0.59,5.7-0.63c1.83-0.03,3.67,0.38,5.35-0.73
		c0.16-0.11,0.48-0.06,0.7,0c2.94,0.9,5.79,0.43,8.63-0.5c0.41-0.13,0.93,0.09,1.4,0.12c0.63,0.03,1.28,0.13,1.9,0.03
		c2.14-0.35,4.27-0.77,6.41-1.16c0.16-0.03,0.35-0.12,0.46-0.06c2.1,1.19,3.8-0.41,5.66-0.82c1.63-0.36,3.22-0.92,4.84-1.36
		c2.28-0.61,4.47-0.04,6.53,0.84c0.88,0.38,1.49,1.39,2.21,2.13c2.8,2.87,4.17,6.4,4.64,10.3c0.12,0.99-0.07,2.02-0.11,2.88
		c-0.38,0.23-0.51,0.37-0.65,0.38c-5.93,0.2-10.69,2.92-14.88,6.89c-7.21,6.81-12.55,14.89-16.44,23.96
		c-2.63,6.13-4.5,12.47-5.06,19.16c-0.31,3.71-0.08,7.37,0.83,10.95c0.4,1.59,1.13,3.19,2.07,4.53c1.96,2.81,5.1,3.74,8.27,2.42
		c1.81-0.76,3.55-1.85,5.08-3.1c3.53-2.89,6.08-6.58,7.77-10.8c3.16-7.9,5.32-16.08,6.12-24.57c0.49-5.23-0.19-10.37-1.27-15.48
		c-0.13-0.63-0.29-1.25-0.42-1.87c-0.8-3.74,0.68-6.62,4.17-8.15c2.03-0.89,3.41-1.08,5.81-0.73c1.59,6.28,1.63,12.84,2.34,19.28
		c2.73,0.13,5.98-1.89,7.53-5.13c1.33-2.78,2.17-5.79,3.33-8.99c1.49-0.45,2.92,0.35,4.15,1.56c1.25,1.25,1.97,2.82,1.44,4.59
		c-1.34,4.51-3.02,8.82-7.67,11.07c-0.86,0.42-1.66,0.96-2.47,1.48c-2.09,1.34-4.26,2.51-6.64,2.71c-0.91,4.31-1.66,8.47-2.67,12.57
		c-2.9,11.8-6.08,17.53-14.36,26.25c0.4,0.44,0.8,0.9,1.21,1.35c1.82,1.98,3.09,4.27,3.73,6.89c0.71,2.89,0.14,4.49-2.27,6.24
		c-5.63,4.1-11.98,6.67-18.6,8.67c-8.75,2.64-17.67,4.39-26.76,5.35c-3.81,0.4-7.61,0.94-11.62,1.44c-0.34,2.23-0.67,4.41-1.01,6.6
		c-1.07,7.06-2.63,13.98-5.67,20.5c-1.78,3.82-4.1,7.22-7.21,10.08c-4.35,4-9.53,5.07-15.16,3.97c-1.49-0.29-2.97-1.22-4.17-2.2
		c-1.34-1.09-2.52-2.48-3.5-3.92c-5.29-7.77-7.85-16.39-7.52-25.8c0.26-7.53,5.33-14.1,12.62-16.01c4.08-1.07,8.31-1.57,12.47-2.31
		c0.38-0.07,0.77-0.1,1.38-0.17c0.77-6.63,1.53-13.19,2.29-19.76c-0.1-0.04-0.19-0.08-0.29-0.12c-0.24,0.47-0.48,0.94-0.73,1.41
		c-1.9,3.6-3.68,7.27-5.74,10.78c-1.72,2.91-4.08,5.33-6.91,7.23c-9.14,6.15-21.34,2.06-24.95-8.35c-0.25-0.72-0.49-1.45-0.86-2.51
		c-0.52,1.05-0.88,1.74-1.22,2.45c-2.03,4.27-4.36,8.37-7.25,12.12c-3.05,3.97-6.88,6.53-12.02,7.1
		c-7.34,0.82-12.22-2.52-13.84-9.75c-0.08-0.35-0.16-0.71-0.34-1.54c-0.55,0.99-0.9,1.58-1.21,2.18c-2.13,4.06-4.65,7.84-8.05,10.97
		c-4.39,4.03-9.47,5.79-15.43,4.78c-6.15-1.04-10.25-4.54-12.49-10.3c-0.34-0.89-0.61-1.8-1.04-3.05c-0.38,0.77-0.63,1.28-0.88,1.78
		c-1.68,3.45-3.19,6.98-5.06,10.32c-2.87,5.13-7.43,8.06-13.17,9.08c-6.29,1.12-11.82-2.91-12.43-9.26
		c-0.3-3.16-0.22-6.41,0.14-9.56c1.22-10.64,2.62-21.26,4-31.88c1.06-8.16,2.2-16.32,3.29-24.48c0.2-1.52,0.43-3.4-1.13-4.09
		c-1.73-0.76-2.72,1.02-3.52,2.22c-7.25,10.85-13.18,22.27-15.28,35.37c-1.59,9.94-3.41,19.84-5.03,29.78
		c-0.46,2.82-0.54,5.71-0.8,8.57c3.68,1.92,5.71,4.82,6.49,8.66c0.64,3.15,0.09,6.03-1.72,8.68c-1.71,2.5-4.03,4.31-6.6,5.83
		c-4.73,2.81-9.92,4.4-15.19,5.76c-9.39,2.42-18.94,3.95-28.57,4.86c-9.55,0.9-19.14,1.46-28.68,2.46c-3.7,0.39-7.37,1.41-10.98,2.4
		c-4.54,1.25-9.05,2.62-13.47,4.22c-2.14,0.78-4.12,2.09-6.05,3.36c-1.77,1.16-2.75,2.81-2.43,5.1c0.18,1.29-0.41,1.79-1.67,1.6
		c-0.7-0.1-1.39-0.36-2.04-0.66c-2.14-0.97-3.97-2.39-5.49-4.18c-2.47-2.9-2.5-6.23-0.09-9.16c1.77-2.15,4.08-3.56,6.6-4.66
		c4.43-1.93,9.1-3.06,13.84-3.77c6.95-1.04,13.93-1.87,21.02-2.8c-0.05-0.15-0.11-0.53-0.3-0.82c-2.47-3.52-3.49-7.51-3.71-11.73
		c-0.35-6.72-0.18-13.45,0.63-20.12c1.63-13.49,3.42-26.96,5.12-40.44c0.87-6.9,1.72-13.8,2.57-20.7c0.09-0.7,0.08-1.4,0.14-2.36
		c-0.91,0-1.68-0.02-2.45,0c-2.58,0.09-5.11-0.15-7.57-0.96c-3.85-1.27-6.4-3.82-7.6-7.7c-1.43-4.64-1.42-9.35,0-13.95
		c3.83-12.4,11.9-20.37,24.81-23.02c8.75-1.8,14.55,4.03,15.49,11.92c0.52,4.35-0.25,8.61-0.74,12.9c-0.26,2.27-0.53,4.54-0.84,7.19
		c1.18-0.54,1.99-0.84,2.74-1.25c7.84-4.32,15.69-8.63,23.5-13c10.11-5.67,20.3-11.19,30.83-16.04c5.24-2.41,10.58-4.55,16.26-5.67
		c2.02-0.39,4.15-0.69,6.17-0.49c4.93,0.48,7.86,3.88,7.99,8.83c0.08,3.08-0.37,6.06-1.79,8.83c-0.71,1.39-1.66,2.5-3.6,2.78
		c-0.41-0.99-0.9-1.89-1.15-2.86c-0.83-3.15-3.01-4.57-6.08-4.9c-4.2-0.47-8.31,0.1-12.34,1.2c-6.8,1.85-13.4,4.18-19.61,7.62
		c-9.65,5.35-19.34,10.6-29.1,15.74c-4.24,2.23-8.65,4.13-13.03,6.08c-1.22,0.54-1.88,1.14-1.99,2.58
		c-0.94,11.49-3.27,22.78-5.16,34.13c-2.42,14.51-5.01,28.99-6.29,43.66c-0.41,4.68-0.34,9.42-0.19,14.12
		c0.05,1.67,0.97,3.32,1.49,4.97c0.24,0.74,0.49,1.48,0.75,2.28c1.95,0,3.94,0.13,5.9-0.02c7.33-0.55,14.67-1.08,21.99-1.84
		c6.28-0.65,12.51-1.73,18.51-3.82c4.1-1.42,7.65-3.61,10.14-7.29c1.06-1.57,1.45-3.14,0.43-4.93c-0.65-1.14-1.34-1.83-2.8-1.72
		c-2.47,0.18-4.71-0.7-6.8-1.98c-2.89-1.77-4.56-4.35-4.51-7.71c0.07-4.31,0.15-8.66,0.79-12.91c2.12-13.99,4.51-27.93,6.76-41.9
		c0.44-2.76,0.77-5.54,1.05-8.33c0.12-1.16,0.43-2.7-0.93-3.19c-1.37-0.49-2.4,0.73-3.08,1.77c-1.18,1.8-2.38,3.64-3.19,5.61
		c-3.56,8.64-6.99,17.34-10.46,26.02c-2.51,6.28-3.47,12.96-4.78,19.53c-1.14,5.71-1.86,11.51-2.57,17.29
		c-0.26,2.12-0.04,4.31,0.09,6.46c0.12,2.04,0.82,3.9,2.13,5.5c0.35,0.43,0.69,0.89,0.93,1.39c0.56,1.15,0.32,1.95-0.89,2.2
		c-1.22,0.25-2.56,0.35-3.78,0.12c-5.04-0.97-9.22-3.55-12.65-7.31c-2.64-2.9-3.46-6.49-3.14-10.27c0.49-5.73,1.05-11.46,1.88-17.15
		c1.11-7.59,2.65-15.12,3.74-22.71c0.8-5.61,1.23-11.28,1.73-16.94c0.28-3.2-0.02-6.38-0.86-9.51c-0.55-2.05-0.25-2.77,1.71-3.56
		c4.49-1.82,9.03-1.97,13.48,0.16c3.33,1.6,5.13,4.23,4.99,8.03c-0.02,0.53,0,1.06,0,2.12c0.66-0.88,1.02-1.35,1.37-1.83
		c2.49-3.43,4.89-6.92,7.49-10.26c2.08-2.66,4.93-4.33,8.24-5.04c5.14-1.1,9.96,1.03,12.97,5.69c0.85,1.32,1.5,2.78,2.3,4.28
		c3.61-4.01,7.25-7.92,10.74-11.96c3.31-3.84,7.34-6.11,12.45-6.27c5.69-0.18,9.63,2.6,11.97,7.59c0.86,1.83,1.3,3.96,1.48,6
		c0.47,5.29-0.38,10.53-1.13,15.75c-1.78,12.42-3.6,24.83-5.31,37.26c-0.31,2.28-0.25,4.63-0.15,6.94c0.06,1.28,0.22,2.72,1.96,3.58
		c0.46-0.89,1.03-1.66,1.27-2.52c2.76-9.77,5.56-19.52,8.14-29.33c1.34-5.09,2.03-10.36,3.45-15.42
		c3.18-11.32,8.5-21.53,16.59-30.19c5.51-5.9,12.14-9.83,20.11-11.37c2.53-0.49,5.08-0.7,7.54,0.4c1.13,0.51,2.06,1.23,2.47,2.46
		c0.48,1.43-0.14,2.68-1.63,2.77c-6.63,0.42-10.94,4.41-14.67,9.33c-3.07,4.04-5.34,8.55-7.15,13.26
		c-5.77,14.97-9.1,30.45-9.45,46.52c-0.04,2.06,0.25,4.14,0.55,6.19c0.12,0.83,0.58,1.67,1.08,2.36c1.05,1.45,2.41,1.82,4,0.99
		c1.11-0.58,2.16-1.37,3.07-2.24c3.24-3.07,5.47-6.88,7.44-10.82c4.04-8.06,6.62-16.64,8.36-25.44c1.61-8.15,2.81-16.38,4.15-24.58
		c0.39-2.37-0.03-4.57-1.57-6.56c-1.43-1.85-1.06-3.04,1.15-3.77c3.73-1.23,7.42-0.72,11.05,0.55c0.75,0.26,1.47,0.64,2.17,1.01
		c5.75,3.1,7.41,6.59,6.36,13.02c-1.81,11.2-3.66,22.4-5.3,33.63c-0.73,4.98-1.02,10.02-1.44,15.04c-0.08,0.97,0.19,1.97,0.33,3.2
		c1.89-0.75,2.56-2.17,3.18-3.48c1.83-3.82,3.68-7.64,5.24-11.57c1.64-4.16,2.91-8.46,4.41-12.68c1.28-3.59,1.36-7.37,2-11.07
		c2.35-13.58,6.82-26.29,15.28-37.36c4.12-5.39,8.84-10.1,15.03-13.15c3.55-1.75,7.26-2.9,11.17-3.45c2.04-0.28,4.04-0.12,5.82,0.89
		c0.85,0.48,1.68,1.28,2.12,2.14c0.8,1.56-0.03,2.85-1.77,2.98c-4.37,0.32-7.91,2.27-10.96,5.31c-3.56,3.55-6.21,7.71-8.38,12.2
		c-4.42,9.13-7.06,18.84-9.1,28.72c-1.49,7.22-2.45,14.5-2.56,21.88c-0.03,1.68-0.04,3.37,0.15,5.03c0.14,1.25,0.45,2.54,0.98,3.68
		c1.02,2.18,2.87,2.73,4.97,1.56c0.89-0.5,1.71-1.18,2.45-1.9c3.95-3.78,6.55-8.46,8.74-13.37c4.04-9.03,6.62-18.51,8.25-28.23
		c1.08-6.46,1.86-12.97,2.65-19.47c0.28-2.3,0.3-4.65-1.25-6.66c-0.57-0.74-0.24-1.43,0.43-1.84c0.74-0.45,1.55-0.87,2.39-1.07
		c5.06-1.22,9.82-0.57,14.22,2.36c2.77,1.84,4.25,4.42,4.08,7.68c-0.17,3.34-0.73,6.66-1.13,9.99c-1.01,8.33-2.05,16.66-3.03,25
		c-0.13,1.15-0.35,2.4,0.9,3.58c0.53-0.43,1.18-0.76,1.54-1.29c1.93-2.84,3.88-5.68,5.62-8.63c0.52-0.88,0.57-2.13,0.56-3.2
		c-0.22-16.27,4.81-30.81,14.45-43.82c0.95-1.28,2.03-2.48,3.12-3.64c1.04-1.1,2.18-2.1,3.51-3.36c-1.68-0.66-2.87-1.41-4.44-0.51
		c-0.72,0.41-1.76,0.21-2.54,0.56c-1.54,0.68-2.95-0.84-4.67,0.09c-1.25,0.68-3.12,0.17-4.72,0.27c-1.68,0.1-3.35,0.38-5.02,0.38
		c-0.8,0-1.97,0.72-2.45-0.69c-0.02-0.05-0.61-0.02-0.62,0.05c-0.27,1.29-1.29,0.65-1.96,0.73c-1.57,0.21-3.16,0.39-4.75,0.41
		c-1.16,0.02-2.32-0.34-3.48-0.35c-1.19,0-2.38,0.22-3.57,0.35c-0.91,0.1-1.37-0.3-1.24-1.47c-2.15,1.89-4.49,1.14-6.73,1.1
		c0.42-0.75,0.83-1.49,1.25-2.24c0.06,0.35,0.11,0.69,0.19,1.17c1.08-0.4,1.85-1.3,2.98-0.43c0.38,0.29,1.39,0.28,1.84-0.77
		c-1.12-0.2-2.14-0.42-3.17-0.56c-0.71-0.1-1.46-0.13-1.89,0.67C1141.75,1004.05,1141.34,1004.81,1141.89,1006.18z M1153.29,1101.74
		c1.67-0.09,2.96-0.02,4.2-0.24c4.79-0.85,9.62-1.55,14.33-2.74c8.24-2.07,16.19-4.98,23.36-9.64c1.93-1.25,3.64-2.84,5.42-4.32
		c0.35-0.29,0.51-0.8,0.79-1.25c-2.95,0.9-5.65,1.84-8.42,2.54c-7.03,1.78-12.91-0.27-17.73-5.59c-2.5-2.77-4.27-5.96-5.54-9.45
		c-0.25-0.69-0.53-1.37-0.79-2.04c-1.01,0.91-1.83,1.56-2.54,2.31c-2.37,2.48-5.16,4.33-8.43,5.29c-1.51,0.45-1.96,1.24-2.11,2.69
		c-0.54,5.16-1.21,10.31-1.81,15.47C1153.77,1096.98,1153.56,1099.19,1153.29,1101.74z M1133.47,1108.01
		c-2.59-0.29-4.87-0.74-7.14-0.75c-5.87-0.03-10.31,3.55-11.3,9.36c-1.33,7.77,0.63,14.87,5.19,21.26c0.41,0.58,0.94,1.09,1.49,1.55
		c2.33,1.96,4.66,1.79,6.29-0.8c1.08-1.72,2.03-3.7,2.36-5.68c1-6.14,1.69-12.33,2.46-18.5
		C1133.05,1112.49,1133.21,1110.51,1133.47,1108.01z M905.13,1046.38c0.34-2.81,0.65-5.34,0.95-7.87c0.5-4.2,1.06-8.42,0.61-12.66
		c-0.17-1.65-0.54-3.31-1.09-4.87c-0.51-1.45-1.4-1.82-2.87-1.35c-1.12,0.36-2.24,0.89-3.2,1.56c-3.87,2.7-6.46,6.35-7.74,10.91
		c-0.66,2.34-0.95,4.71-0.42,7.1c0.36,1.63,0.73,3.34,2.22,4.38C897,1045.94,900.75,1046.94,905.13,1046.38z M1171.29,1004.19
		c0.91-0.06,2.23-0.52,2.64-0.1c1.15,1.2,1.6-0.92,2.69-0.28c0.69,0.4,1.87,0.04,2.81-0.11c0.97-0.16,1.91-0.48,2.86-0.72
		c-0.01-0.17-0.01-0.34-0.02-0.51c-1.21-0.31-2.58-0.46-3.65,0.22c-0.97,0.62-1.67,0.64-2.62,0.22
		C1174.21,1002.1,1172.64,1002.59,1171.29,1004.19z M1154.07,1004.12c2.28,0.34,4.57,0.95,6.82-0.18
		C1159.63,1003.21,1155.81,1003.19,1154.07,1004.12z M1153.06,1003.99c-1.35-0.22-2.67-0.84-4.23-0.26
		C1150.34,1005.36,1151.74,1004.45,1153.06,1003.99z M1169.23,1004.06c0.01-0.18,0.01-0.36,0.02-0.54c-2.01-0.4-2.01-0.4-3.06,0.8
		C1167.36,1004.22,1168.3,1004.14,1169.23,1004.06z M1126.47,1004.76c1.48,1.06,2.36,0.83,3.18,0.14c-0.02-0.21-0.05-0.41-0.07-0.62
		C1128.73,1004.41,1127.87,1004.55,1126.47,1004.76z M1161.8,1003.24c-0.02,0.2-0.03,0.39-0.05,0.59c0.73,0.56,1.45,1.22,2.81-0.19
		C1163.36,1003.47,1162.58,1003.36,1161.8,1003.24z M1132.99,1003.74c-0.72,0.27-1.45,0.53-2.3,0.84
		C1132.13,1005.99,1132.59,1004.8,1132.99,1003.74z M1183.72,1002.94c-0.01,0.14-0.03,0.28-0.04,0.42c0.67-0.05,1.35-0.05,2.01-0.18
		c0.18-0.03,0.44-0.6,0.38-0.68c-0.21-0.24-0.64-0.59-0.83-0.51C1184.69,1002.21,1184.22,1002.61,1183.72,1002.94z M1133.54,1003.69
		c0.44,0.55,0.64,0.79,0.83,1.04c0.32-0.4,0.64-0.81,0.96-1.21c-0.07-0.03-0.13-0.07-0.31-0.16
		C1134.69,1003.43,1134.26,1003.53,1133.54,1003.69z M1140.65,1004.37c-1.37-0.78-1.37-0.78-2.3,0.22c0.49-0.15,0.82-0.31,1.16-0.33
		C1139.89,1004.23,1140.27,1004.33,1140.65,1004.37z M1189,1002.09c-0.06-0.04-0.14-0.13-0.17-0.12c-0.35,0.15-0.69,0.32-1.03,0.5
		c-0.01,0.01,0.03,0.16,0.04,0.16c0.38-0.03,0.76-0.06,1.13-0.13C1189,1002.49,1188.99,1002.23,1189,1002.09z"/>
	<path d="M1046.03,967.35c-0.74,1.1-1.21,1.8-1.68,2.49c-8.07,11.82-18.96,19.75-32.78,23.55c-4.77,1.31-9.58,1.52-14.47,0.43
		c-5.69-1.26-9.78-4.47-12.63-9.47c-2.17-3.8-3.38-7.93-4.26-12.17c-1.02-4.87-1.54-9.79-1.46-14.77c0.02-1.27,0-2.55,0-3.98
		c-2.26,0.76-4.4,1.48-6.83,2.3c-0.27,1.53-0.58,3.4-0.91,5.26c-1.68,9.32-3.92,18.45-8.61,26.81c-2.69,4.79-6.05,9.02-10.15,12.68
		c-5.91,5.27-12.97,7.79-20.73,8.4c-4.01,0.32-7.75-0.81-11.11-3.11c-4.41-3.02-7.59-7.06-9.81-11.88
		c-3.45-7.49-4.49-15.44-4.46-23.6c0.03-6.19,0.96-12.25,2.5-18.58c-4.97-0.53-9.74-1.62-14.86-2c-0.34,2.05-0.68,3.83-0.94,5.62
		c-1.62,11.39-3.05,22.82-4.88,34.18c-2.21,13.67-5.37,27.13-10.97,39.89c-0.9,2.05-1.79,4.12-2.96,6.02
		c-1.38,2.23-2.84,4.48-4.64,6.37c-4.53,4.74-11.23,5.95-17.22,3.21c-7.77-3.54-13.67-9.1-17.45-16.79
		c-4.92-10-7.79-20.59-9.17-31.63c-1.32-10.56-1.21-21.06,1.03-31.49c1.4-6.52,3.61-12.73,7.02-18.53
		c5.47-9.29,13.84-13.83,24.22-15.29c4.73-0.67,9.41-0.56,14.35,0.99c1-10.95,1.99-21.77,3.01-32.87c-2.04,0.51-3.73,0.92-5.43,1.35
		c-8.61,2.2-17.28,4.05-26.14,4.86c-4.38,0.4-8.79,0.6-13.16-0.12c-9.43-1.57-15.02-7.15-16.83-16.58
		c-1.26-6.56-0.18-12.72,2.96-18.56c3.78-7.03,9.02-12.79,15.42-17.5c11.34-8.34,23.95-13.73,37.86-15.94
		c6.13-0.97,12.27-1.04,18.3,0.78c1.14,0.35,2.27,0.77,3.37,1.24c7.42,3.16,10.97,8.93,11.37,16.85c0.27,5.39-0.57,10.69-1.22,16
		c-0.31,2.58-0.58,5.17-0.93,8.21c1.29-0.68,2.13-1.11,2.95-1.57c13.25-7.42,26.44-14.96,39.78-22.21
		c8.35-4.54,16.8-8.95,25.83-12.03c11.83-4.03,23.96-6.24,36.52-5.54c2.9,0.16,5.69,0.86,8.34,2.03c4.95,2.17,6.7,5.26,5.68,10.52
		c-1.02,5.28-4.02,9.33-8.46,12.32c-0.39,0.26-0.85,0.45-1.3,0.61c-0.9,0.32-1.58,0.11-1.83-0.91c-2.05-8.38-8.48-10.81-15.99-11.64
		c-8.22-0.91-16.1,0.86-23.72,3.68c-4.93,1.83-9.75,4.04-14.44,6.42c-17.18,8.74-33.96,18.21-50.3,28.42
		c-4.69,2.93-3.75,1.43-4.42,7.07c-1.52,12.86-3.08,25.72-4.61,38.58c-0.13,1.1-0.2,2.22-0.31,3.55c5.54,1.38,11,2.75,16.71,4.18
		c0.27-0.6,0.6-1.3,0.9-2c3.66-8.68,8.26-16.78,14.84-23.64c3.62-3.77,7.72-6.91,11.94-9.98c4.18-3.04,8.75-4.88,13.69-6.04
		c3.63-0.85,6.78,0,9.52,2.54c4.1,3.8,5.98,8.61,6.34,14.07c0.15,2.17-0.31,2.55-2.6,2.73c-3.91,0.31-7.48,1.51-10.71,3.8
		c-3.41,2.42-6.5,5.19-9.25,8.33c-9.89,11.3-16.55,24.24-19.7,38.95c-1.3,6.08-1.59,12.22-0.25,18.33c0.4,1.85,1.03,3.73,1.95,5.37
		c2.32,4.16,6.49,5.47,10.89,3.68c2.72-1.11,4.95-2.91,7-4.95c3.45-3.44,6.02-7.48,7.75-12.01c3.28-8.62,5.59-17.5,6.63-26.68
		c0.79-6.94-0.26-13.71-1.82-20.44c-1.6-6.91,4.54-12.69,11.55-10.76c1.75,7.34,1.83,14.95,2.68,22.43c3.79-0.1,7.02-2.83,7.63-6.12
		c2.4-12.97,6.95-25.1,14.61-35.92c5.67-8.02,13.09-13.73,22.73-16.26c3.85-1.01,7.74-1.21,11.64-0.44
		c8.12,1.59,13.12,7.26,13.89,15.56c0.45,4.81-0.39,9.42-2.19,13.84c-4.43,10.85-11.01,20.18-20.01,27.73
		c-3.08,2.59-6.47,4.68-10.31,5.99c-3.24,1.1-5.14,0.53-6.31-1.94c-1.32-2.77-0.45-5.71,2.18-7.26c0.83-0.49,1.69-0.9,2.53-1.37
		c8.81-4.95,15.56-11.94,20.32-20.84c2.57-4.81,4.03-9.94,3.67-15.43c-0.11-1.71-0.59-3.49-1.34-5.03
		c-1.25-2.56-3.48-3.33-6.24-2.63c-3.59,0.91-6.23,3.14-8.45,5.98c-3.86,4.95-6.86,10.41-9.35,16.15
		c-4.21,9.74-7.17,19.83-8.39,30.4c-0.78,6.81-0.37,13.58,0.86,20.3c1.72,9.37,8.45,11.82,16.32,10.58
		c4.91-0.77,8.92-3.42,12.41-6.84c4.72-4.62,8.55-9.93,11.96-15.55c0.41-0.68,0.82-1.37,1.22-2.07c4.87-8.55,4.75-8.57,5.97-18.42
		c1.01-8.17,2.36-16.29,3.56-24.44c1.93-13.05,3.89-26.08,5.16-39.22c1.12-11.53,2.66-23.03,4.07-34.53
		c1.09-8.84,1.7-17.68,0.39-26.54c-0.2-1.36,0.24-2.1,1.44-2.22c2.21-0.21,4.47-0.45,6.67-0.25c4.14,0.39,7.86,1.99,11.14,4.61
		c2.61,2.09,4.03,4.79,3.96,8.1c-0.07,3.67-0.29,7.35-0.66,11.01c-1.18,11.53-2.36,23.06-3.73,34.57
		c-1.41,11.91-3.05,23.78-4.58,35.68c-1.51,11.81-2.99,23.63-4.5,35.45c-0.68,5.31-1.47,10.61-2.08,15.93
		c-0.26,2.21-0.37,4.48-0.21,6.7c0.11,1.46,0.6,2.99,1.31,4.28c1.02,1.87,2.72,2.29,4.75,1.59c1.88-0.65,3.28-1.96,4.55-3.41
		c2.36-2.69,3.91-5.85,5.09-9.18c3.26-9.27,6.53-18.54,9.63-27.87c2.07-6.21,3.87-12.52,5.79-18.78c0.76-2.5,2.59-3.2,4.79-1.86
		c2.4,1.48,3.01,2.85,2.22,5.93c-1.47,5.73-3,11.44-4.64,17.12c-2.69,9.29-5.7,18.49-9.59,27.36c-1.54,3.5-3.2,7.01-5.29,10.2
		c-5.39,8.21-13.04,13-22.91,13.98c-7.58,0.76-16.22-3.47-17.83-13.12C1046.35,968.41,1046.25,968.14,1046.03,967.35z
		 M870.66,942.43c-2.01-0.27-3.97-0.6-5.93-0.77c-8.39-0.72-15.24,2.3-20.33,8.94c-1.78,2.32-3.16,5.01-4.34,7.69
		c-2.98,6.75-3.93,13.98-4.34,21.26c-0.58,10.35,0.2,20.61,2.37,30.75c1.26,5.88,2.85,11.65,5.76,16.96
		c0.87,1.59,1.92,3.15,3.17,4.47c1.42,1.51,3.17,1.54,4.73,0.17c1.06-0.93,2.01-2.09,2.67-3.33c0.93-1.75,1.75-3.62,2.25-5.53
		c1.75-6.64,3.55-13.28,4.95-20c4.02-19.26,6.23-38.81,9.04-58.26C870.74,944.09,870.66,943.38,870.66,942.43z M876.77,888.76
		c0.07-0.79,0.14-1.33,0.17-1.88c0.28-5.99,0.61-11.97,0.8-17.96c0.09-2.79-0.02-5.59-0.21-8.38c-0.25-3.84-2.35-6.31-5.95-7.6
		c-3.58-1.28-7.23-1.25-10.88-0.63c-7.27,1.23-13.91,4.11-20.14,7.96c-5.97,3.69-11.21,8.21-15.28,13.99
		c-1.81,2.58-3.3,5.33-3.74,8.48c-1.33,9.67,3.05,13.58,10.54,14.37c3.15,0.33,6.42,0.25,9.55-0.21c5.12-0.77,10.2-1.88,15.24-3.07
		C863.45,892.26,870,890.49,876.77,888.76z"/>
	<path d="M1066.92,991.69c-0.41,0.15-0.82,0.43-1.23,0.42c-6.03-0.17-12.05-0.39-18.07-0.83
		C1054.04,990.39,1060.44,991.23,1066.92,991.69z"/>
	<path d="M1056.57,988.1c0,0.51,0,0.95,0,1.59c-1.76-0.12-3.46-0.23-5.27-0.35c-0.04-0.23-0.22-0.73-0.12-0.8
		c0.55-0.36,1.17-0.83,1.78-0.84C1054.13,987.68,1055.3,987.94,1056.57,988.1z"/>
	<path d="M1046.36,989.11c0.66-1.47,0.67-1.47,3.27-1.08C1048.87,989.43,1048.87,989.43,1046.36,989.11z"/>
	<path d="M1045.59,991.28c-1.77,0-3.26,0-4.76,0C1042.98,990.46,1043.37,990.46,1045.59,991.28z"/>
	<path class="st0" d="M1153.29,1101.74c0.27-2.55,0.48-4.76,0.74-6.97c0.6-5.16,1.27-10.31,1.81-15.47c0.15-1.45,0.6-2.25,2.11-2.69
		c3.27-0.97,6.06-2.81,8.43-5.29c0.71-0.75,1.53-1.39,2.54-2.31c0.26,0.67,0.54,1.35,0.79,2.04c1.27,3.49,3.04,6.68,5.54,9.45
		c4.82,5.32,10.7,7.37,17.73,5.59c2.76-0.7,5.47-1.64,8.42-2.54c-0.28,0.45-0.44,0.96-0.79,1.25c-1.77,1.48-3.49,3.07-5.42,4.32
		c-7.18,4.66-15.13,7.57-23.36,9.64c-4.71,1.18-9.54,1.89-14.33,2.74C1156.26,1101.72,1154.97,1101.66,1153.29,1101.74z"/>
	<path class="st0" d="M1133.47,1108.01c-0.25,2.5-0.41,4.48-0.66,6.45c-0.78,6.17-1.46,12.36-2.46,18.5
		c-0.32,1.98-1.27,3.96-2.36,5.68c-1.63,2.59-3.95,2.76-6.29,0.8c-0.55-0.46-1.07-0.98-1.49-1.55c-4.55-6.39-6.52-13.49-5.19-21.26
		c0.99-5.81,5.43-9.39,11.3-9.36C1128.6,1107.27,1130.87,1107.72,1133.47,1108.01z"/>
	<path class="st0" d="M905.13,1046.38c-4.38,0.56-8.13-0.44-11.53-2.8c-1.5-1.04-1.86-2.75-2.22-4.38c-0.53-2.39-0.24-4.76,0.42-7.1
		c1.28-4.56,3.87-8.21,7.74-10.91c0.97-0.67,2.08-1.21,3.2-1.56c1.47-0.47,2.36-0.1,2.87,1.35c0.55,1.56,0.91,3.23,1.09,4.87
		c0.45,4.24-0.11,8.45-0.61,12.66C905.78,1041.04,905.47,1043.57,905.13,1046.38z"/>
	<path class="st0" d="M1171.29,1004.19c1.35-1.6,2.92-2.09,4.71-1.29c0.95,0.43,1.65,0.4,2.62-0.22c1.07-0.68,2.44-0.53,3.65-0.22
		c0.01,0.17,0.01,0.34,0.02,0.51c-0.95,0.25-1.89,0.57-2.86,0.72c-0.94,0.15-2.12,0.51-2.81,0.11c-1.09-0.63-1.54,1.48-2.69,0.28
		C1173.52,1003.67,1172.19,1004.13,1171.29,1004.19z"/>
	<path class="st0" d="M1154.07,1004.12c1.74-0.93,5.56-0.91,6.82-0.18C1158.64,1005.07,1156.35,1004.47,1154.07,1004.12z"/>
	<path class="st0" d="M1143.03,1004.05c0.42-0.79,1.17-0.76,1.88-0.66c1.03,0.14,2.05,0.36,3.17,0.56
		c-0.44,1.05-1.46,1.06-1.84,0.77c-1.13-0.87-1.9,0.02-2.98,0.43c-0.08-0.47-0.13-0.82-0.19-1.16
		C1143.07,1004,1143.03,1004.05,1143.03,1004.05z"/>
	<path class="st0" d="M1153.06,1003.99c-1.32,0.47-2.72,1.37-4.23-0.26C1150.39,1003.15,1151.7,1003.77,1153.06,1003.99z"/>
	<path class="st0" d="M1169.23,1004.06c-0.94,0.08-1.87,0.16-3.04,0.26c1.05-1.2,1.05-1.2,3.06-0.8
		C1169.25,1003.7,1169.24,1003.88,1169.23,1004.06z"/>
	<path class="st0" d="M1126.47,1004.76c1.4-0.22,2.25-0.35,3.11-0.48c0.02,0.21,0.05,0.41,0.07,0.62
		C1128.83,1005.59,1127.96,1005.82,1126.47,1004.76z"/>
	<path class="st0" d="M1161.8,1003.24c0.78,0.11,1.57,0.23,2.76,0.4c-1.36,1.41-2.08,0.74-2.81,0.19
		C1161.76,1003.64,1161.78,1003.44,1161.8,1003.24z"/>
	<path class="st0" d="M1132.99,1003.74c-0.4,1.06-0.86,2.25-2.3,0.84C1131.54,1004.27,1132.27,1004,1132.99,1003.74z"/>
	<path class="st0" d="M1183.72,1002.94c0.5-0.33,0.97-0.74,1.51-0.95c0.19-0.08,0.62,0.26,0.83,0.51c0.06,0.08-0.2,0.64-0.38,0.68
		c-0.65,0.13-1.33,0.13-2.01,0.18C1183.69,1003.22,1183.71,1003.08,1183.72,1002.94z"/>
	<path class="st0" d="M1133.54,1003.69c0.71-0.16,1.15-0.26,1.49-0.34c0.18,0.09,0.24,0.13,0.31,0.16c-0.32,0.4-0.64,0.81-0.96,1.21
		C1134.18,1004.48,1133.99,1004.24,1133.54,1003.69z"/>
	<path class="st0" d="M1140.65,1004.37c-0.38-0.04-0.77-0.14-1.14-0.11c-0.34,0.02-0.67,0.18-1.16,0.33
		C1139.28,1003.6,1139.28,1003.6,1140.65,1004.37z"/>
	<path class="st0" d="M1141.89,1006.18c-0.55-1.36-0.15-2.13,1.13-2.12c0.01-0.01,0.05-0.06,0.05-0.07
		c-0.41,0.74-0.83,1.48-1.24,2.23C1141.83,1006.22,1141.89,1006.18,1141.89,1006.18z"/>
	<path class="st0" d="M1189,1002.09c-0.01,0.14,0,0.4-0.03,0.41c-0.37,0.07-0.75,0.1-1.13,0.13c-0.01,0-0.05-0.16-0.04-0.16
		c0.34-0.18,0.68-0.35,1.03-0.5C1188.86,1001.96,1188.94,1002.05,1189,1002.09z"/>
	<path class="st0" d="M870.66,942.43c0,0.95,0.09,1.66-0.01,2.35c-2.81,19.45-5.02,39-9.04,58.26c-1.4,6.72-3.2,13.36-4.95,20
		c-0.5,1.91-1.32,3.78-2.25,5.53c-0.66,1.24-1.61,2.4-2.67,3.33c-1.55,1.36-3.3,1.33-4.73-0.17c-1.24-1.32-2.29-2.87-3.17-4.47
		c-2.91-5.31-4.5-11.08-5.76-16.96c-2.17-10.15-2.95-20.41-2.37-30.75c0.41-7.29,1.36-14.51,4.34-21.26
		c1.18-2.69,2.57-5.38,4.34-7.69c5.09-6.64,11.94-9.66,20.33-8.94C866.69,941.83,868.64,942.16,870.66,942.43z"/>
	<path class="st0" d="M876.77,888.76c-6.77,1.73-13.31,3.5-19.91,5.05c-5.04,1.19-10.12,2.31-15.24,3.07
		c-3.13,0.47-6.4,0.54-9.55,0.21c-7.49-0.78-11.86-4.7-10.54-14.37c0.43-3.15,1.92-5.9,3.74-8.48c4.07-5.78,9.31-10.29,15.28-13.99
		c6.23-3.86,12.88-6.73,20.14-7.96c3.65-0.62,7.31-0.65,10.88,0.63c3.61,1.29,5.7,3.76,5.95,7.6c0.18,2.79,0.3,5.59,0.21,8.38
		c-0.19,5.99-0.52,11.97-0.8,17.96C876.91,887.43,876.84,887.97,876.77,888.76z"/>
</g>
</svg>
